<svg width="1254" height="1254" viewBox="0 0 1254 1254" fill="none" xmlns="http://www.w3.org/2000/svg">
<g clip-path="url(#clip0_242_2569)">
<path d="M759.421 24.4355C760.348 24.4923 761.253 24.6065 762.165 24.7839C765.957 25.5193 769.842 27.09 771.968 30.5007C775.2 35.689 792.616 118.207 792.329 123.983C791.999 130.629 786.253 134.633 784.644 140.639C785.908 143.294 793.047 147.553 795.539 150.895C814.665 176.57 810.083 203.304 785.909 222.621C785.75 227.219 785.88 232.208 785.916 236.838C786.382 237.234 786.849 237.633 787.309 238.034C807.648 255.775 817.409 281.377 819.233 307.878C823.585 312.546 827.341 316.973 830.954 322.416C840.025 336.839 852.464 358.851 854.626 376.044C854.346 388.458 856.163 396.128 859.036 408.177C868.042 445.906 860.608 483.792 828.146 505.37C828.325 524.258 830.063 544.326 831.112 563.25C836.434 655.254 839.034 748.196 849.979 839.716C856.4 893.365 844.664 909.475 803.174 943.654C799.224 946.914 806.076 961.113 806.801 965.825C807.296 969.056 807.821 972.54 808.144 975.987C847.817 978.774 871.805 964.539 868.329 1021.25C867.266 1038.59 872.746 1050.51 852.644 1059.22C853.017 1070.4 851.128 1073.2 844.269 1081.3C843.242 1096.55 843.86 1120.3 843.817 1136.27C855.796 1145.12 859.272 1152.25 856.752 1167.34C892.568 1171.76 880.38 1196.44 882.872 1222.64C884.172 1236.31 878.649 1253.94 863.208 1254.98C846.122 1256.12 826.91 1255.59 809.717 1255.57L697.57 1255.55H489.07L425.73 1255.58C413.426 1255.63 400.956 1255.86 388.665 1255.6C382.356 1255.46 377.476 1254.61 372.387 1250.62C367.589 1246.93 363.624 1240.57 363.621 1234.29C363.615 1218.55 362.225 1201.62 363.826 1186.02C364.652 1177.97 372.131 1170.37 379.722 1168.64C383.091 1167.86 386.356 1167.8 389.906 1167.72C388.651 1151.26 389.316 1146.99 402.109 1136.1C401.806 1120.4 402.208 1105.04 401.68 1089.2L401.576 1080.7C394.061 1072.84 393.294 1069.63 393.052 1059.32C379.798 1052.74 377.499 1049.14 376.819 1034.26C373.931 971.139 381.478 975.829 437.236 975.815C437.746 965.645 441.179 957.946 442.693 948.178C443.493 943.014 433.327 936.393 429.492 933.053C423.74 928.069 418.288 922.747 413.167 917.116C403.392 906.228 394.37 891.706 393.357 876.868C391.808 854.152 396.218 826.875 399.262 804.151C401.775 785.183 403.97 766.165 405.846 747.118C410.302 700.263 413.397 650.564 416.359 603.516C418.274 576.164 420.045 548.803 421.672 521.432C379.749 497.089 381.59 466.118 381.661 422.523C381.708 393.898 386.572 372.095 396.006 345C385.891 314.892 384.431 281.445 410.778 259.655C410.97 242.614 405.051 206.658 433.661 205.484C440.231 205.215 443.593 208.265 448.757 208.548C482.438 210.395 475.493 242.787 475.298 273.193C491.434 285.273 492.525 294.562 492.731 313.494C507.395 304.257 521.143 299.028 537.914 294.485C542.149 227.341 524.648 183.943 572.375 123.799C616.097 65.3564 641.845 90.4826 675.615 140.433C710.038 191.341 692.665 239.228 698.08 293.538L698.202 294.644C702.583 295.63 707.373 296.973 711.762 298.102C711.18 285.286 714.548 283.517 715.985 272.928C718.556 254.035 715.123 246.027 734.227 234.424L734.047 222.707C709.765 205.378 705.406 173.631 724.79 150.176C728.101 146.168 732.367 143.433 736.604 140.438C732.489 135.079 726.679 128.921 728.194 121.568C734.363 91.6245 740.073 60.8978 748.138 31.4832C749.187 27.6574 756.125 25.4166 759.421 24.4355Z" fill="#A2B9CB"/>
<path d="M553.581 303.816C552.624 292.012 553.745 269.706 553.613 257.372C553.184 217.056 550.177 183.671 573.824 148.062C582.169 135.495 602.755 107.769 618.317 104.28C634.254 107.974 654.637 135.736 662.953 148.694C680.556 176.131 683.939 203.749 682.905 235.564C682.632 243.951 683.264 254.056 682.804 262.45C682.826 275.751 683.365 294.408 682.733 307.289C698.253 306.94 721.961 318.036 735.879 324.585C726.952 314.551 730.026 316.927 729.207 304.193C729.013 301.191 726.04 300.113 725.889 292.601C725.961 285.158 728.18 281.729 731.915 275.597C726.593 259.718 732.762 250.43 747.421 244.815C749.511 241.895 752.901 242.618 756.168 242.725C764.026 242.495 764.772 242.427 771.739 246.425C775.768 248.166 777.88 248.891 781.169 251.962C795.914 261.837 805.006 298.764 805.602 315.885C821.309 328.083 836.707 360.206 840.219 380.039C840.93 384.187 838.862 390.39 839.767 394.395C841.412 401.712 844.22 408.898 845.649 416.292C851.488 446.574 844.385 484.105 812.195 496.022C813.955 534.3 815.937 572.568 818.135 610.826C820.311 654.579 822.149 700.45 825.475 744.016C827.68 770.432 830.179 796.818 832.987 823.176C834.567 839.063 837.074 857.829 836.111 873.536C834.502 899.65 806.191 922.92 786.29 936.293C786.232 939.137 786.017 948.401 786.649 950.743C789.96 962.959 792.832 965.854 793.127 978.997C794.334 980.957 793.881 984.893 793.845 987.392C812.102 990.509 827.471 992.176 845.994 992.018C850.231 991.982 852.73 997.828 852.479 1001.83C851.926 1012.16 854.763 1036.19 849.175 1043.08C847.674 1044.93 840.406 1044.21 837.576 1044.08C836.025 1048.82 835.58 1050.86 834.725 1055.76C838.295 1059.32 838.74 1060.07 838 1065.25C836.355 1068.28 836.291 1068.58 833.504 1070.35L829.712 1072.79C828.06 1080.96 828.613 1100.41 828.699 1109.64C828.793 1119.55 828.376 1133.87 828.929 1143.52C824.548 1143.75 817.747 1143.41 813.904 1144.07C806.536 1143.44 793.457 1144.05 785.507 1144.2C780.372 1145.65 778.196 1149.37 776.443 1154.16C776.371 1156.59 776.206 1159.21 776.687 1161.62C777.291 1164.69 779.567 1165.69 778.483 1168.56C775.229 1170.02 773.664 1169.33 770.288 1169.76C753.748 1170.1 736.131 1169.8 719.512 1169.81L655.47 1169.84C635.339 1169 609.685 1169.75 589.11 1169.74C566.422 1169.93 543.732 1169.93 521.044 1169.74L466.697 1169.84C447.497 1169.97 428.295 1169.96 409.096 1169.79C404.546 1165.44 404.43 1162.53 404.667 1156.49C407.595 1149.68 410.649 1145.46 418.144 1143.84L418.05 1077.89C418.438 1068.99 412.262 1075.41 407.624 1064.33C407.95 1060.18 409.027 1059.87 411.268 1056.11C410.43 1050.82 410.231 1049.18 408.36 1044.19C398.291 1043.46 392.976 1047.19 392.661 1031.71C392.459 1021.81 392.943 1011.79 392.757 1001.86C392.72 998.129 393.666 993.476 398.124 992.549C411.996 989.648 440.584 994.474 452.716 987.005C451.869 971.283 454.666 965.573 458.042 950.779C458.577 948.43 458.155 939.295 458.028 936.479C449.739 929.922 433.325 917.045 427.168 909.231C417.573 901.589 408.141 883.613 408.267 871.252C408.71 831.78 417.799 792.617 421.063 753.295C427.77 672.505 432.657 591.56 437.594 510.643C427.014 507.474 418.702 503.605 411.551 495.058C397.47 478.232 395.103 454.69 397.694 433.662C398.576 426.503 395.375 421.574 395.729 417.597C397.905 393.132 403.372 367.501 412.805 345.072C412.504 344.646 411.623 343.496 411.48 343.076C403.193 318.93 397.265 282.078 425.292 268.89C425.25 258.398 425.221 247.89 425.272 237.395C425.297 232.285 425.859 225.5 429.905 221.813C431.69 220.185 434.079 219.718 436.41 220.097C440.613 220.782 442.483 223.328 444.815 226.543L445.4 227.362L446.595 227.419C469.791 210.837 456.831 272.956 461.453 283.136C467.475 284.927 471.753 286.649 474.857 292.632C481.566 305.564 477.055 335.011 468.782 346.183C470.04 348.494 471.326 350.772 472.427 353.162C481.122 339.453 496.157 326.827 510.855 319.99C521.707 314.941 541.878 306.351 553.716 307.52L553.581 303.816Z" fill="#3B5165"/>
<path d="M465.888 974.522L476.559 974.537L506.599 974.623C525.193 974.587 552.702 975.391 570.379 974.551C570.188 978.516 570.19 984.039 569.141 987.716C601.453 987.673 634.793 987.299 667.047 987.737L747.399 987.709C753.928 987.946 788.049 988.714 793.091 987.716L793.127 978.997C794.334 980.958 793.881 984.893 793.845 987.393C812.102 990.51 827.471 992.176 845.994 992.018C850.231 991.982 852.73 997.828 852.479 1001.83C851.926 1012.16 854.763 1036.19 849.175 1043.08C847.674 1044.93 840.406 1044.21 837.576 1044.08C836.025 1048.82 835.58 1050.86 834.725 1055.77C838.295 1059.32 838.74 1060.07 838 1065.25C836.355 1068.28 836.291 1068.58 833.504 1070.35L829.712 1072.79C828.06 1080.96 828.613 1100.41 828.699 1109.64C828.793 1119.55 828.376 1133.87 828.929 1143.52C824.548 1143.75 817.747 1143.41 813.904 1144.07C806.536 1143.44 793.457 1144.05 785.507 1144.2C780.372 1145.65 778.196 1149.37 776.443 1154.16C776.371 1156.59 776.206 1159.21 776.687 1161.62C777.291 1164.69 779.567 1165.69 778.483 1168.56C775.229 1170.02 773.664 1169.33 770.288 1169.76C753.748 1170.1 736.131 1169.8 719.512 1169.82L655.47 1169.84C635.339 1169 609.685 1169.75 589.11 1169.74C566.422 1169.93 543.732 1169.93 521.044 1169.74L466.697 1169.84C447.497 1169.97 428.295 1169.96 409.096 1169.79C404.546 1165.44 404.43 1162.53 404.667 1156.49C407.595 1149.68 410.649 1145.46 418.144 1143.84L418.05 1077.89C418.438 1068.99 412.262 1075.42 407.624 1064.33C407.95 1060.18 409.027 1059.87 411.268 1056.11C410.43 1050.82 410.231 1049.18 408.36 1044.19C398.291 1043.46 392.976 1047.19 392.661 1031.71C392.459 1021.81 392.943 1011.79 392.757 1001.86C392.72 998.13 393.666 993.476 398.124 992.549C411.996 989.648 440.584 994.474 452.716 987.005C455.281 988.434 463.581 987.694 467.123 987.565C466.125 982.02 465.923 980.146 465.888 974.522Z" fill="#5A7287"/>
<path d="M583.356 1044.07L665.61 1044.03L715.188 1044.01L786.483 1044.09C786.907 1047.47 786.634 1050.28 786.469 1053.66C785.722 1054.59 785.535 1054.82 784.673 1055.69C787.841 1056.12 805.444 1055.64 810.284 1055.74C818.041 1055.52 826.882 1055.73 834.725 1055.76C838.294 1059.32 838.739 1060.07 838 1065.24C836.355 1068.28 836.29 1068.58 833.504 1070.35L829.712 1072.79C828.06 1080.96 828.613 1100.41 828.699 1109.64C828.792 1119.55 828.376 1133.87 828.929 1143.52C824.548 1143.75 817.747 1143.41 813.904 1144.07C806.535 1143.44 793.457 1144.05 785.507 1144.2C780.371 1145.65 778.195 1149.37 776.443 1154.16C776.371 1156.59 776.206 1159.21 776.687 1161.62C777.29 1164.69 779.567 1165.69 778.483 1168.56C775.229 1170.02 773.664 1169.33 770.288 1169.76C753.748 1170.09 736.13 1169.8 719.511 1169.81L655.469 1169.84C635.338 1169 609.685 1169.75 589.11 1169.74C589.418 1167.58 593.049 1163.51 593.719 1156.18C592.116 1148 589.132 1144.63 580.772 1143.32C580.968 1119.74 580.869 1096.16 580.474 1072.58C589.616 1069.22 594.065 1060.5 583.428 1055.51C582.567 1053.42 583.262 1047.04 583.356 1044.07Z" fill="#2B4053"/>
<path d="M583.356 1044.07L665.61 1044.03C665.689 1047.03 666.271 1052.99 665.021 1055.33C655.405 1061.03 657.868 1069.01 667.384 1072.59L667.219 1083.29C667.226 1089.71 668.296 1141.64 666.142 1143.38C665.668 1143.77 663.93 1144.18 663.441 1144.33C657.861 1144.79 655.678 1149.58 653.588 1154.13C653.178 1162.83 654.5 1161.45 657.179 1169.1L655.469 1169.84C635.338 1169 609.685 1169.75 589.11 1169.74C589.418 1167.58 593.049 1163.51 593.719 1156.18C592.116 1148 589.132 1144.64 580.772 1143.32C580.968 1119.74 580.869 1096.16 580.474 1072.59C589.616 1069.22 594.065 1060.51 583.428 1055.51C582.567 1053.42 583.262 1047.04 583.356 1044.07Z" fill="#2B4053"/>
<path d="M680.233 1081.09C681.547 1080.79 687.379 1079.22 688.069 1079.27C697.333 1079.93 701.011 1082.61 710.764 1082.27C710.749 1086.59 710.254 1113.27 711.468 1115.09L711.417 1143.47C719.583 1144.29 724.015 1147.93 724.919 1156.45C724.345 1162.88 723.979 1164.89 719.511 1169.82L655.47 1169.84L657.179 1169.1C654.5 1161.45 653.179 1162.84 653.588 1154.13C655.678 1149.58 657.861 1144.79 663.442 1144.33C663.93 1144.18 665.668 1143.77 666.142 1143.38C668.297 1141.64 667.227 1089.72 667.219 1083.29C671.55 1082.52 675.888 1081.78 680.233 1081.09Z" fill="#6A8399"/>
<path d="M679.465 1143.32C684.169 1143.42 691.724 1143.85 696.192 1143.64C698.698 1143.25 708.351 1143.46 711.417 1143.47C719.583 1144.29 724.015 1147.92 724.919 1156.45C724.345 1162.88 723.979 1164.89 719.511 1169.82L655.47 1169.84L657.179 1169.1C654.5 1161.45 653.179 1162.83 653.588 1154.13C655.678 1149.58 657.861 1144.79 663.442 1144.33C668.821 1143.83 673.963 1143.86 679.465 1143.32Z" fill="#5A7287"/>
<path d="M679.465 1143.32C684.169 1143.42 691.724 1143.85 696.192 1143.64C698.246 1146.11 699.452 1147.51 701.147 1150.2C699.438 1152.02 697.427 1154.3 695.574 1155.9C692.565 1156.1 688.334 1156.23 685.476 1156.79C679.781 1156.9 659.003 1157.74 654.392 1156.1L653.588 1154.13C655.678 1149.58 657.861 1144.79 663.442 1144.33C668.821 1143.83 673.963 1143.86 679.465 1143.32Z" fill="#8EA7BB"/>
<path d="M711.417 1143.47C719.583 1144.29 724.014 1147.92 724.919 1156.45C717.005 1157.4 694.281 1157 685.476 1156.79C688.334 1156.23 692.564 1156.1 695.574 1155.9C697.426 1154.29 699.437 1152.02 701.147 1150.2C699.452 1147.51 698.245 1146.11 696.191 1143.64C698.698 1143.25 708.35 1143.46 711.417 1143.47Z" fill="#7790A5"/>
<path d="M680.232 1081.09C680.598 1081.47 680.972 1081.85 681.345 1082.23C682.272 1098.15 681.79 1114.29 681.23 1130.23C681.087 1134.23 681.008 1138.16 681.115 1142.11C678.458 1143.23 674.874 1142.32 672.023 1142.8C674.343 1142.95 677.215 1143.06 679.463 1143.32C673.962 1143.86 668.82 1143.83 663.44 1144.33C663.929 1144.18 665.667 1143.77 666.141 1143.38C668.295 1141.64 667.225 1089.71 667.218 1083.29C671.549 1082.52 675.887 1081.78 680.232 1081.09Z" fill="#7790A5"/>
<path d="M834.725 1055.77C838.295 1059.32 838.74 1060.07 838 1065.25C836.356 1068.28 836.291 1068.58 833.504 1070.35L829.712 1072.79C828.061 1080.96 828.614 1100.41 828.7 1109.64C828.793 1119.55 828.376 1133.87 828.929 1143.52C824.548 1143.75 817.747 1143.41 813.905 1144.07C806.536 1143.44 793.458 1144.05 785.507 1144.2L788.574 1142.73C789.328 1141.36 789.917 1078.58 788.797 1072.66L787.066 1071.48C778.325 1068.79 780.322 1061.37 784.674 1055.69C787.841 1056.12 805.444 1055.64 810.285 1055.74C818.042 1055.52 826.883 1055.73 834.725 1055.77Z" fill="#5A7287"/>
<path d="M834.725 1055.77C838.295 1059.32 838.74 1060.07 838 1065.25C836.356 1068.28 836.291 1068.58 833.504 1070.35L829.712 1072.79C828.061 1080.96 828.614 1100.41 828.7 1109.64C828.793 1119.55 828.376 1133.87 828.929 1143.52C824.548 1143.75 817.747 1143.41 813.905 1144.07C806.536 1143.44 793.458 1144.05 785.507 1144.2L788.574 1142.73C792.215 1143.53 811.477 1143.34 816.569 1143.46C817.481 1135.37 816.505 1121.82 816.246 1112.93C815.83 1098.39 816.562 1086.51 816.943 1072.23C810.113 1071.55 793.759 1070.88 787.066 1071.48C778.325 1068.79 780.322 1061.37 784.674 1055.69C787.841 1056.12 805.444 1055.64 810.285 1055.74C818.042 1055.52 826.883 1055.73 834.725 1055.77Z" fill="#7790A5"/>
<path d="M834.725 1055.77C838.295 1059.32 838.74 1060.07 838 1065.25C830.704 1062.06 798.219 1070.68 795.835 1060.38C797.745 1058.04 798.234 1059.88 801.092 1057.38C799.871 1057.15 798.78 1056.99 797.551 1056.81L810.285 1055.74C818.042 1055.52 826.883 1055.73 834.725 1055.77Z" fill="#829CB1"/>
<path d="M665.61 1044.03L715.188 1044.01C715.346 1047.86 715.539 1051.71 715.776 1055.55C719.906 1058.7 720.732 1060.1 720.459 1065.4C717.378 1070.44 716.839 1070.9 711.194 1072.58C711.525 1083.79 712.121 1103.92 711.467 1115.09C710.254 1113.26 710.749 1086.59 710.763 1082.27C701.01 1082.61 697.333 1079.93 688.068 1079.27C687.379 1079.22 681.547 1080.79 680.233 1081.09C675.888 1081.78 671.55 1082.52 667.219 1083.29L667.384 1072.58C657.868 1069.01 655.405 1061.03 665.021 1055.33C666.271 1052.98 665.689 1047.03 665.61 1044.03Z" fill="#5A7287"/>
<path d="M665.61 1044.03L715.188 1044.01C715.346 1047.86 715.54 1051.71 715.777 1055.55C701.879 1055.97 687.343 1055.7 673.396 1055.64C670.616 1055.45 667.808 1055.41 665.021 1055.33C666.271 1052.98 665.689 1047.03 665.61 1044.03Z" fill="#2B4053"/>
<path d="M673.395 1055.64C687.342 1055.7 701.879 1055.97 715.776 1055.55C719.906 1058.7 720.732 1060.1 720.459 1065.4C706.712 1064.1 691.063 1066.72 677.525 1063.77C674.587 1063.13 672.138 1058.65 673.395 1055.64Z" fill="#7B93A8"/>
<path d="M461.718 1044.09H532.895L583.355 1044.07C583.262 1047.04 582.566 1053.42 583.427 1055.51C594.064 1060.51 589.615 1069.22 580.473 1072.59C580.868 1096.16 580.968 1119.74 580.771 1143.32C589.131 1144.64 592.115 1148 593.719 1156.18C593.048 1163.51 589.417 1167.58 589.109 1169.74C566.42 1169.93 543.73 1169.93 521.042 1169.74L466.696 1169.84C447.495 1169.97 428.294 1169.96 409.095 1169.79C404.545 1165.44 404.428 1162.53 404.666 1156.49C407.594 1149.68 410.647 1145.46 418.143 1143.84L418.049 1077.89C418.437 1068.99 412.261 1075.42 407.622 1064.33C407.949 1060.18 409.026 1059.87 411.267 1056.11C413.222 1055.92 415.087 1055.64 417.044 1055.77L423.995 1055.59C431.443 1055.56 457.396 1055.13 463.176 1056.19C461.343 1053.37 461.789 1047.77 461.718 1044.09Z" fill="#2B4053"/>
<path d="M532.895 1044.09L583.355 1044.07C583.262 1047.04 582.567 1053.42 583.427 1055.51C594.064 1060.51 589.615 1069.22 580.473 1072.59C580.869 1096.16 580.968 1119.74 580.771 1143.32C589.131 1144.64 592.116 1148 593.719 1156.18C593.049 1163.51 589.418 1167.58 589.11 1169.74C566.421 1169.93 543.731 1169.93 521.043 1169.74C522.938 1169.62 524.598 1169.72 526.264 1168.88C526.274 1165.51 523.623 1163.26 523.306 1157.51L523.259 1156.5C524.161 1151.49 527.18 1144.58 533.069 1144.25L536.857 1142.31C536.163 1119.49 537.465 1096.23 536.096 1073.51C536.101 1073.6 527.727 1067.88 528.022 1065.66C527.918 1065.44 527.812 1065.22 527.707 1065C527.882 1059.75 528.559 1058.64 532.588 1055.43C533.073 1052.78 532.89 1047.05 532.895 1044.09Z" fill="#6A8399"/>
<path d="M537.28 1082.09C541.948 1082.04 546.624 1081.91 551.276 1082.27C552.496 1102.69 551.389 1122.8 551.508 1143.11C560.544 1143.21 571.924 1143.65 580.771 1143.32C589.131 1144.64 592.116 1148 593.719 1156.18C593.049 1163.51 589.418 1167.58 589.11 1169.74C566.421 1169.93 543.731 1169.93 521.043 1169.74C522.938 1169.62 524.598 1169.72 526.264 1168.88C526.274 1165.51 523.623 1163.26 523.306 1157.51L523.259 1156.5C524.161 1151.49 527.18 1144.58 533.069 1144.25L536.857 1142.31C537.983 1140.38 537.294 1089.85 537.28 1082.09Z" fill="#7790A5"/>
<path d="M593.719 1156.18C593.049 1163.51 589.418 1167.58 589.11 1169.74C566.421 1169.93 543.731 1169.93 521.043 1169.74C522.938 1169.62 524.598 1169.72 526.264 1168.88C526.274 1165.51 523.623 1163.26 523.306 1157.51L523.259 1156.5C534.329 1157.07 544.746 1156.95 555.843 1156.86C562.426 1156.88 588.535 1157.54 593.719 1156.18Z" fill="#5A7287"/>
<path d="M533.069 1144.25C538.934 1143.98 564.693 1140.5 565.107 1149.17C565.379 1154.88 560.36 1156.07 555.843 1156.86C544.747 1156.95 534.329 1157.07 523.259 1156.5C524.162 1151.49 527.18 1144.58 533.069 1144.25Z" fill="#8EA7BB"/>
<path d="M532.895 1044.09L583.355 1044.07C583.262 1047.04 582.567 1053.42 583.427 1055.51C577.984 1055.54 572.54 1055.61 567.097 1055.74C555.687 1055.7 543.966 1055.81 532.588 1055.43C533.073 1052.78 532.89 1047.05 532.895 1044.09Z" fill="#2B4053"/>
<path d="M532.588 1055.43C543.966 1055.81 555.687 1055.7 567.097 1055.74C570.668 1056.1 573.724 1056.39 577.337 1056.52C576.124 1059.24 574.913 1062.08 573.623 1064.76C563.272 1065.15 537.427 1065.93 527.707 1065C527.882 1059.75 528.559 1058.64 532.588 1055.43Z" fill="#829CB1"/>
<path d="M423.995 1055.59C431.443 1055.56 457.396 1055.13 463.176 1056.19C465.732 1058.71 466.955 1059.77 466.963 1063.5C466.959 1064.63 466.894 1065.76 466.766 1066.87C459.642 1076.45 457.834 1067.97 458.309 1083.55L458.277 1122.5C458.276 1127.51 458.006 1138.41 458.602 1142.86C459.913 1143.32 461.219 1143.8 462.543 1144.21C468.333 1145.73 470.178 1149.98 471.585 1155.37C471.334 1162.25 470.853 1164.26 466.696 1169.84C447.495 1169.97 428.294 1169.96 409.095 1169.79C404.545 1165.44 404.428 1162.53 404.666 1156.49C407.594 1149.68 410.647 1145.46 418.143 1143.84L418.049 1077.89C418.437 1069 412.261 1075.42 407.622 1064.33C407.949 1060.18 409.026 1059.87 411.267 1056.11C413.222 1055.92 415.087 1055.64 417.044 1055.77L423.995 1055.59Z" fill="#657E93"/>
<path d="M418.049 1077.89C418.562 1079.5 418.423 1080.34 419.526 1080.74C422.507 1081.84 428.136 1081.95 431.456 1082.2L431.6 1128.4L431.656 1143.26L440.522 1143.24C443.078 1143.63 458.95 1144.21 462.543 1144.21C468.333 1145.73 470.178 1149.98 471.585 1155.37C471.334 1162.25 470.853 1164.26 466.696 1169.84C447.495 1169.97 428.294 1169.96 409.095 1169.79C404.545 1165.44 404.428 1162.53 404.666 1156.49C407.594 1149.68 410.647 1145.46 418.143 1143.84L418.049 1077.89Z" fill="#829CB1"/>
<path d="M471.585 1155.37C471.334 1162.25 470.853 1164.26 466.696 1169.84C447.495 1169.97 428.294 1169.96 409.095 1169.79C404.545 1165.44 404.428 1162.53 404.666 1156.49C413.332 1156.88 420.393 1157 429.065 1156.82C441.925 1156.97 459.474 1157.81 471.585 1155.37Z" fill="#5A7287"/>
<path d="M418.143 1143.84C424.043 1143.78 439.212 1142.64 443.046 1145.93C444.516 1152.26 434.208 1156.09 429.066 1156.82C420.393 1157 413.333 1156.88 404.667 1156.49C407.594 1149.68 410.648 1145.46 418.143 1143.84Z" fill="#8EA7BB"/>
<path d="M431.601 1128.4L431.657 1143.26L422.184 1143.18C424.52 1137.67 428.091 1133.28 431.601 1128.4Z" fill="#7790A5"/>
<path d="M445.421 1077.29C449.433 1079.49 454.035 1082.28 458.309 1083.54L458.277 1122.5C458.276 1127.51 458.006 1138.41 458.602 1142.86C459.913 1143.32 461.219 1143.79 462.543 1144.21C458.95 1144.21 443.078 1143.63 440.521 1143.24L440.861 1142.78C442.455 1142.35 442.015 1142.53 443.519 1141.72C446.523 1125.82 443.881 1096.32 445.421 1077.29Z" fill="#6A8399"/>
<path d="M423.996 1055.59C431.444 1055.56 457.397 1055.13 463.177 1056.19C465.733 1058.71 466.956 1059.77 466.964 1063.5C466.96 1064.63 466.895 1065.76 466.767 1066.87C454.269 1063.68 438.445 1067.85 426.349 1065.2C419.803 1065.07 414.167 1064.98 407.623 1064.33C407.95 1060.18 409.026 1059.87 411.268 1056.11C413.223 1055.92 415.088 1055.64 417.045 1055.77L423.996 1055.59Z" fill="#7790A5"/>
<path d="M411.268 1056.11C413.223 1055.92 415.088 1055.64 417.045 1055.77C422.928 1056.17 428.322 1056.23 434.224 1056.29C436.55 1060.14 436.906 1060.81 437.301 1065.25C433.724 1065.13 429.946 1065.2 426.349 1065.2C419.803 1065.07 414.167 1064.98 407.623 1064.33C407.95 1060.18 409.026 1059.87 411.268 1056.11Z" fill="#8EA7BB"/>
<path d="M434.225 1056.29C440.924 1056.15 443.764 1055.32 449.138 1058.97L450.116 1060.72C448.346 1065.9 441.705 1065.31 437.301 1065.25C436.906 1060.81 436.55 1060.14 434.225 1056.29Z" fill="#8EA7BB"/>
<path d="M465.887 974.522L476.558 974.537L506.597 974.623C525.191 974.587 552.7 975.391 570.377 974.551C570.186 978.516 570.188 984.039 569.139 987.716C601.452 987.673 634.791 987.299 667.046 987.737L747.398 987.709C753.926 987.946 788.048 988.714 793.09 987.716L793.125 978.997C794.332 980.958 793.879 984.893 793.844 987.393C812.1 990.51 827.47 992.176 845.992 992.018C850.229 991.982 852.729 997.828 852.477 1001.83C841.072 1001.29 826.787 1002.46 814.722 1002.45L705.397 1002.47L392.756 1001.86C392.719 998.13 393.664 993.476 398.122 992.549C411.994 989.648 440.582 994.474 452.715 987.005C455.28 988.434 463.579 987.694 467.122 987.565C466.124 982.02 465.922 980.146 465.887 974.522Z" fill="#8EA7BB"/>
<path d="M465.888 974.522L476.559 974.537L506.598 974.623C525.192 974.587 552.701 975.391 570.378 974.551C570.187 978.516 570.19 984.039 569.14 987.716L467.123 987.565C466.125 982.02 465.923 980.146 465.888 974.522Z" fill="#43596E"/>
<path d="M786.483 1044.1C802.865 1043.83 821.222 1043.69 837.575 1044.08C836.024 1048.82 835.579 1050.86 834.724 1055.77C826.881 1055.73 818.04 1055.52 810.284 1055.74C805.443 1055.64 787.84 1056.13 784.673 1055.69C785.535 1054.83 785.721 1054.6 786.468 1053.66C786.634 1050.28 786.906 1047.47 786.483 1044.1Z" fill="#2B4053"/>
<path d="M423.576 1044.07L461.718 1044.09C461.789 1047.77 461.343 1053.37 463.177 1056.19C457.397 1055.13 431.443 1055.56 423.996 1055.59C423.608 1051.87 423.642 1047.83 423.576 1044.07Z" fill="#2B4053"/>
<path d="M408.36 1044.19L423.577 1044.07C423.643 1047.83 423.609 1051.87 423.996 1055.59L417.046 1055.77C415.088 1055.64 413.223 1055.92 411.268 1056.11C410.43 1050.82 410.231 1049.18 408.36 1044.19Z" fill="#3B5165"/>
<path d="M557.095 379.359C561.06 379.672 565.558 379.752 569.58 379.905C602.665 380.447 636.94 379.872 670.12 379.768C674.149 379.831 678.969 379.792 682.919 380.027C686.021 382.18 686.991 382.607 689.181 385.555C681.217 387.736 683.335 392.904 683.623 400.386L683.687 464.779C683.68 472.946 683.242 488.966 683.831 496.734L683.702 772.938L683.781 837.476C683.795 843.465 684.614 880.589 682.387 884.618C673.345 900.964 654.887 917.914 642.757 932.881C632.968 944.164 620.96 963.189 606.123 945.227C590.302 926.073 569.411 906.028 556.299 885.617C553.784 881.702 554.762 836.959 554.764 830.437C554.567 800.79 554.562 771.143 554.75 741.488C554.755 726.65 555.337 706.261 554.46 691.818C555 688.385 554.735 669.992 554.727 665.733L554.717 610.697L554.518 398.728C554.839 393.31 556.365 388.384 551.353 385.376C552.625 382.332 554.476 381.273 557.095 379.359Z" fill="#637C92"/>
<path d="M557.095 379.359C561.06 379.672 565.558 379.752 569.58 379.905C571.994 387.758 572.808 386.268 572.554 395.22L572.55 714.017L572.589 820.224C572.597 836.413 571.949 862.807 573.207 878.47C580.504 889.588 608.956 921.871 618.97 930.791C624.213 927.251 662.249 883.986 665.244 875.44C666.17 872.811 665.905 847.387 665.897 841.778L665.869 768.371L665.854 423.252C664.892 413.488 664.109 387.062 670.12 379.768C674.149 379.831 678.969 379.792 682.919 380.027C686.021 382.18 686.991 382.607 689.181 385.555C681.217 387.736 683.335 392.904 683.623 400.386L683.687 464.779C683.68 472.946 683.242 488.966 683.831 496.734L683.702 772.938L683.781 837.476C683.795 843.465 684.614 880.589 682.387 884.618C673.345 900.964 654.887 917.914 642.757 932.881C632.968 944.164 620.96 963.189 606.123 945.227C590.302 926.073 569.411 906.028 556.299 885.617C553.784 881.702 554.762 836.959 554.764 830.437C554.567 800.79 554.562 771.143 554.75 741.488C554.755 726.65 555.337 706.261 554.46 691.818C555 688.385 554.735 669.992 554.727 665.733L554.717 610.697L554.518 398.728C554.839 393.31 556.365 388.384 551.353 385.376C552.625 382.332 554.476 381.273 557.095 379.359Z" fill="#88A1B5"/>
<path d="M670.121 379.768C674.15 379.831 678.969 379.792 682.919 380.026C686.022 382.18 686.991 382.607 689.182 385.554C681.217 387.736 683.335 392.903 683.623 400.386C682.086 394.23 679.507 393.382 673.862 390.868C671.083 392.164 668.16 393.059 667.356 395.975C664.971 404.617 666.803 413.913 665.855 423.252C664.892 413.488 664.109 387.062 670.121 379.768Z" fill="#7790A5"/>
<path d="M557.095 379.359C561.06 379.672 565.558 379.752 569.58 379.905C571.994 387.758 572.808 386.268 572.554 395.22C565.908 390.107 558.039 390.13 554.518 398.728C554.839 393.31 556.365 388.384 551.353 385.376C552.625 382.332 554.476 381.273 557.095 379.359Z" fill="#829CB1"/>
<path d="M683.831 496.734C685.748 492.893 683.558 469.755 685.059 467.989L684.901 466.632C684.046 473.555 685.08 463.443 685.116 469.122C685.224 486.297 685.066 503.49 685.138 520.666C685.152 526.063 684.836 532.222 685.353 537.532C689.684 538.75 694.998 532.647 697.491 534.613L696.334 535.594C696.772 539.169 696.859 540.737 696.765 544.336L705.965 543.389C709.643 542.508 712.113 542.265 715.833 541.837C716.731 544.997 717.636 548.416 718.685 551.509L718.9 552.847C721.033 565.476 726.089 578.721 727.274 591.771C729.479 616.083 725.838 649.472 727.942 672.936L739.872 667.707L739.936 933.772L739.807 954.951L740.669 957.3L742.155 957.925C745.452 956.424 745.201 952.373 748.26 951.095L749.194 953.996C749.086 958.995 749.158 968.525 748.519 973.15C745.481 975.269 745.596 975.032 741.933 975.485L740.547 975.664C741.904 981.956 743.168 983.011 747.398 987.708L667.046 987.737C634.792 987.299 601.452 987.672 569.14 987.716C570.189 984.038 570.187 978.515 570.378 974.551C552.701 975.391 525.192 974.587 506.598 974.623C507.122 961.178 512.697 948.43 522.21 938.914C524.507 935.395 526.457 931.416 528.415 927.674C525.574 927.387 523.662 927.43 520.79 927.473L514.152 928.033C512.178 926.891 509.927 927.976 507.959 928.615L507.002 928.931L506.29 928.55C506.162 925.764 508.367 917.626 511.244 917.102C517.566 915.96 525.24 915.953 531.682 915.702L530.682 914.825C526.169 914.84 521.655 914.926 517.144 915.084L509.937 916.571C508.851 902.415 508.961 883.756 507.089 870.153C506.882 872.251 506.797 874.822 506.674 876.962C505.811 870.118 504.471 844.191 506.762 838.775C510.992 836.147 516.862 846.245 526.421 845.376L526.586 844.65L527.481 843.954C527.894 842.632 524.976 821.144 524.96 816.116L524.869 815.664C524.992 808.589 525.045 797.019 526.355 790.498L526.213 790.089L528.154 778.856C535.235 779.51 539.184 782.885 542.054 783.251L542.505 781.341C543.971 785.054 548.62 786.878 552.868 790.39C555.972 788.099 551.298 704.156 554.46 691.817C555.337 706.26 554.755 726.65 554.75 741.488C554.562 771.143 554.567 800.79 554.764 830.437C554.762 836.958 553.783 881.702 556.299 885.616C569.411 906.028 590.302 926.072 606.123 945.227C620.959 963.189 632.968 944.164 642.757 932.881C654.887 917.914 673.345 900.964 682.387 884.618C684.613 880.589 683.795 843.465 683.78 837.475L683.701 772.938L683.831 496.734Z" fill="#2B4053"/>
<path d="M708.314 927.768C716.487 927.416 719.856 927.718 727.864 929.549C732.036 930.921 735.821 932.214 739.937 933.772L739.807 954.952L740.669 957.3L742.156 957.925C745.452 956.424 745.201 952.374 748.261 951.095L749.194 953.997C749.086 958.995 749.158 968.526 748.519 973.151C745.481 975.27 745.596 975.033 741.933 975.485L740.547 975.665C741.905 981.956 743.169 983.012 747.399 987.709L667.047 987.738C665.158 983.019 664.763 979.608 664.641 974.652C667.399 953.329 685.741 929.269 708.314 927.768Z" fill="#5C7489"/>
<path d="M727.864 929.549C732.036 930.921 735.821 932.213 739.937 933.772L739.807 954.952L740.669 957.3L742.156 957.925C745.452 956.424 745.201 952.373 748.261 951.095L749.194 953.996C749.086 958.995 749.158 968.525 748.519 973.151C745.481 975.269 745.596 975.032 741.933 975.485L740.547 975.664C741.905 981.956 743.169 983.012 747.399 987.709L667.047 987.737C665.158 983.019 664.763 979.607 664.641 974.652C681.755 975.549 710.067 974.666 727.885 974.558C727.943 966.321 728.295 955.964 727.612 947.913L727.727 941.83L727.864 929.549Z" fill="#43596E"/>
<path d="M739.807 954.951L740.668 957.3L742.155 957.925C745.452 956.424 745.2 952.373 748.26 951.095L749.193 953.996C749.086 958.995 749.158 968.525 748.518 973.151C745.48 975.269 745.595 975.032 741.932 975.485L740.546 975.664C739.907 969.402 739.943 961.365 739.807 954.951Z" fill="#7790A5"/>
<path d="M708.314 927.768C716.488 927.416 719.856 927.718 727.864 929.549L727.727 941.83C723.102 939.654 718.621 939.108 713.608 938.232C710.778 934.993 709.42 931.905 708.314 927.768Z" fill="#7790A5"/>
<path d="M713.607 938.231C718.62 939.108 723.102 939.653 727.727 941.83L727.612 947.913C727.303 952.114 727.232 956.014 727.153 960.223C723.468 951.719 719.877 945.018 713.607 938.231Z" fill="#7790A5"/>
<path d="M701.319 682.165C693.979 671.22 696.169 665.396 696.148 652.569L696.385 604.689C696.399 590.867 696.291 577.046 696.076 563.225C695.975 557.279 695.458 540.97 696.335 535.595C696.773 539.169 696.859 540.738 696.765 544.337L705.966 543.389C709.643 542.509 712.113 542.265 715.834 541.838C716.731 544.998 717.636 548.417 718.685 551.509L718.9 552.848C721.033 565.477 726.09 578.722 727.275 591.772C729.479 616.084 725.838 649.473 727.942 672.937C718.872 676.657 710.971 680.133 701.319 682.165Z" fill="#4F677C"/>
<path d="M715.834 541.838C716.732 544.998 717.637 548.417 718.685 551.509C715.482 553.639 713.73 554.194 710.203 555.596C705.348 557.086 701.822 558.07 696.873 559.139L696.766 544.337L705.966 543.389C709.643 542.509 712.114 542.265 715.834 541.838Z" fill="#5A7287"/>
<path d="M715.834 541.838C716.732 544.998 717.637 548.417 718.685 551.509C715.482 553.639 713.73 554.194 710.203 555.596C709.011 554.222 706.655 545.652 705.966 543.389C709.643 542.509 712.114 542.265 715.834 541.838Z" fill="#5A7287"/>
<path d="M528.416 927.675C538.32 930.117 545.03 933.478 552.835 940.265C562.437 949.767 569.605 960.654 570.379 974.552C552.702 975.392 525.193 974.588 506.599 974.623C507.123 961.179 512.698 948.431 522.211 938.915C524.508 935.395 526.458 931.417 528.416 927.675Z" fill="#5F778C"/>
<path d="M528.415 927.675C538.319 930.117 545.029 933.478 552.834 940.265C551.941 944.308 551.521 950.054 551.182 954.205C539.499 945.745 538.308 941.637 522.21 938.915C524.507 935.395 526.457 931.417 528.415 927.675Z" fill="#7790A5"/>
<path d="M506.506 848.399C510.453 851.315 511.728 852.27 516.191 854.439L519.347 855.51C520.64 855.782 523.535 856.479 524.711 856.573C527.919 857.635 527.375 856.924 529.047 859.187C529.509 861.887 529.417 863.625 529.408 866.39C529.87 875.267 529.465 909.935 530.683 914.826C526.169 914.84 521.656 914.926 517.145 915.084L509.938 916.571C508.852 902.415 508.962 883.756 507.09 870.154C507.331 865.356 506.667 853.642 506.506 848.399Z" fill="#7790A5"/>
<path d="M506.506 848.399C510.453 851.315 511.728 852.27 516.191 854.439C515.052 860.271 516.003 874.607 516.24 881.358L517.145 915.084L509.938 916.571C508.852 902.415 508.962 883.756 507.09 870.154C507.331 865.356 506.667 853.642 506.506 848.399Z" fill="#829CB1"/>
<path d="M519.347 855.51C520.64 855.783 523.535 856.479 524.711 856.573C527.919 857.636 527.375 856.925 529.047 859.187C529.509 861.887 529.417 863.625 529.408 866.391C525.104 863.611 521.718 860.034 519.347 855.51Z" fill="#6A8399"/>
<path d="M524.71 856.574C532.732 856.832 534.494 856.803 542.29 854.419C542.093 868.532 540.012 884.476 547.926 896.613C549.802 899.486 551.984 901.892 553.871 904.693C554.818 906.546 555.724 908.593 556.946 910.223C556.961 914.547 557.862 921.527 555.84 924.278C553.372 923.668 552.477 922.957 550.134 922.339C545.136 919.179 537.563 916.206 531.682 915.703L530.682 914.827C529.464 909.936 529.869 875.268 529.407 866.391C529.416 863.626 529.508 861.888 529.046 859.188C527.374 856.925 527.918 857.636 524.71 856.574Z" fill="#5A7287"/>
<path d="M528.154 778.856C535.235 779.51 539.183 782.886 542.053 783.252L542.142 785.995C542.438 794.757 542.364 803.268 542.307 812.023C531.188 816.404 534.103 814.206 524.959 816.117L524.868 815.664C524.992 808.59 525.045 797.02 526.355 790.499L526.213 790.089L528.154 778.856Z" fill="#7790A5"/>
<path d="M528.154 778.856C535.235 779.51 539.184 782.886 542.053 783.252L542.142 785.995C541.558 790.161 541.508 792.007 541.495 796.122C536.182 793.235 532.453 790.707 526.355 790.499L526.213 790.089L528.154 778.856Z" fill="#829CB1"/>
<path d="M524.96 816.117C534.104 814.207 531.188 816.404 542.307 812.023L542.245 840.953C535.883 844.07 533.654 844.572 526.421 845.377L526.586 844.651L527.482 843.955C527.894 842.633 524.976 821.145 524.96 816.117Z" fill="#5A7287"/>
<path d="M553.872 904.692C559.214 909.698 565.078 917.713 570.324 923.401C569.994 928.802 569.56 934.44 569.357 939.827C562.819 932.436 557.972 928.371 550.135 922.338C552.478 922.956 553.372 923.667 555.841 924.278C557.863 921.527 556.962 914.546 556.947 910.222C555.724 908.592 554.819 906.545 553.872 904.692Z" fill="#43596E"/>
<path d="M707.834 857.355C716.941 855.955 718.578 855.086 726.507 850.489C726.96 870.843 724.468 895.168 723.261 915.845C716.912 914.782 712.301 914.689 705.809 915.292C686.144 920.413 682.115 923.049 667.486 937.736C667.127 933.743 666.875 929.599 666.588 925.591C695.977 889.207 695.179 901.288 696.135 855.682C700.932 856.695 702.9 857.125 707.834 857.355Z" fill="#4F677C"/>
<path d="M707.833 857.355C716.94 855.955 718.578 855.086 726.507 850.489C726.959 870.843 724.467 895.168 723.26 915.845C716.911 914.782 712.301 914.689 705.808 915.292C705.65 893.466 705.751 879.102 707.833 857.355Z" fill="#5A7287"/>
<path d="M725.371 688.019L725.759 688.248C727.864 691.344 726.499 763.142 726.233 772.199C717.715 767.789 711 765.182 701.254 766.949C698.389 767.782 698.468 768.328 696.399 767.387C695.832 759.996 696.27 750.33 696.335 742.767L696.744 697.456C706.626 694.123 715.029 691.768 725.371 688.019Z" fill="#4F677C"/>
<path d="M696.392 782.943C700.529 780.479 703.538 779.732 708.084 778.842C713.298 779.84 715.029 780.35 719.992 782.727C723.849 785.184 725.996 786.491 728.28 790.541C727.892 804 728 819.341 728.223 832.879C723.174 840.693 718.412 842.065 710.282 845.196C704.508 845.634 701.24 843.889 696.011 841.663C696.069 831.227 695.803 820.742 695.868 810.227C696.126 803.383 695.451 788.897 696.392 782.943Z" fill="#5A7287"/>
<path d="M695.868 810.227C700.155 814.335 703.028 814.895 708.917 814.766C709.75 814.744 710.576 814.722 711.409 814.687C711.402 823.355 707.811 840.908 708.178 844.003C709.032 844.557 709.341 844.851 710.282 845.196C704.508 845.634 701.24 843.889 696.011 841.662C696.069 831.227 695.803 820.741 695.868 810.227Z" fill="#4F677C"/>
<path d="M708.085 778.842C713.299 779.84 715.03 780.35 719.993 782.727C723.849 785.184 725.997 786.491 728.281 790.541L727.132 792.164C726.205 789.572 724.022 786.677 721.666 785.234C718.93 789.263 720.97 807.283 719.095 812.913C718.657 814.235 716.351 814.429 714.843 814.802C713.601 814.472 711.841 814.213 711.654 812.655C710.987 807.017 709.823 796.969 709.399 791.726L709.421 791.224C708.638 786.354 708.229 783.797 708.085 778.842Z" fill="#7790A5"/>
<path d="M708.085 778.842C713.299 779.84 715.03 780.35 719.993 782.727C719.583 786.325 719.045 790.276 718.801 793.852C715.159 792.466 713.378 791.633 709.421 791.224C708.638 786.354 708.229 783.797 708.085 778.842Z" fill="#829CB1"/>
<path d="M553.58 303.816C552.623 292.012 553.743 269.706 553.612 257.372C553.182 217.056 550.175 183.671 573.823 148.062C582.167 135.495 602.753 107.769 618.316 104.28C634.253 107.974 654.635 135.736 662.952 148.694C680.555 176.131 683.938 203.749 682.904 235.564C682.631 243.951 683.263 254.056 682.803 262.45C682.825 275.751 683.363 294.408 682.731 307.289L681.711 305.125C678.027 304.613 673.517 308.712 670.443 310.981C662.277 319.342 652.689 326.191 642.131 331.21C639.33 332.614 637.262 333.746 634.231 334.709C630.13 338.841 608.828 337.253 603.277 334.858C595.377 332.349 580.267 323.911 574.417 317.947C570.826 315.33 568.88 313.772 565.984 310.327L565.326 309.817C561.491 307.703 557.599 304.771 553.58 303.816Z" fill="#8EA7BB"/>
<path d="M661.905 225.35C669.13 228.528 666.387 236.104 664.045 241.717C666.882 240.884 667.507 240.104 669.618 240.981C670.71 243.463 669.69 247.026 670.207 250.421L670.645 250.476L670.725 249.603C676.054 245.14 677.526 243.188 681.993 237.94C682.029 243.61 681.742 257.465 682.805 262.45C682.826 275.751 683.365 294.408 682.733 307.289L681.713 305.126C678.029 304.614 673.518 308.712 670.444 310.981C662.279 319.342 652.691 326.191 642.133 331.21C639.332 332.615 637.264 333.746 634.233 334.709C630.132 338.841 608.829 337.254 603.278 334.858C595.378 332.349 580.269 323.911 574.419 317.948C570.828 315.331 568.882 313.772 565.986 310.327L565.327 309.817C565.205 289.805 565.338 269.792 565.727 249.783C565.421 247.543 565.304 244.55 565.141 242.235L571.283 238.189C570.987 232.847 570.57 229.429 575.371 226.28L575.739 226.601C589.388 229.442 602.421 231.929 616.371 232.928C622.138 234.529 652.181 228.511 659.887 226.568L661.905 225.35Z" fill="#2B4053"/>
<path d="M565.725 249.783C572.794 256.982 582.083 261.087 591.994 262.684C593.686 263.802 594.382 264.057 595.535 265.716C597.883 264.692 603.067 259.607 605.172 257.671C605.892 268.943 605.644 280.778 605.754 292.099C605.878 304.771 606.042 317.638 605.392 330.277C605.31 331.883 604.137 333.614 603.277 334.858C595.377 332.349 580.267 323.911 574.418 317.947C570.827 315.33 568.88 313.772 565.985 310.327L565.326 309.817C565.204 289.805 565.337 269.792 565.725 249.783Z" fill="#829CB1"/>
<path d="M605.173 257.672C605.893 268.944 605.646 280.779 605.755 292.099C605.88 304.772 606.043 317.639 605.393 330.277C605.311 331.883 604.138 333.615 603.278 334.859C595.378 332.35 580.269 323.911 574.419 317.948L575.372 317.053C576.153 313.979 575.815 310.809 575.717 307.595C582.288 312.289 588.817 317.039 595.306 321.844C595.463 310.036 595.5 298.226 595.418 286.417C595.375 280.539 594.928 271.293 595.536 265.716C597.885 264.692 603.068 259.608 605.173 257.672Z" fill="#8EA7BB"/>
<path d="M566.016 297.452C566.06 290.944 565.593 268.651 566.366 263.745L567.046 263.407C573.026 266.146 574.545 271.093 574.856 277.444C575.317 286.846 575.401 297.057 574.884 306.443C571.567 303.337 569.098 300.797 566.016 297.452Z" fill="#8EA7BB"/>
<path d="M566.016 297.452C569.098 300.797 571.567 303.337 574.884 306.443L575.716 307.595C575.815 310.808 576.152 313.979 575.372 317.053L574.418 317.948C570.827 315.331 568.881 313.773 565.985 310.327L566.016 297.452Z" fill="#8EA7BB"/>
<path d="M681.992 237.94C682.028 243.611 681.741 257.465 682.804 262.451C682.826 275.752 683.364 294.409 682.732 307.29L681.712 305.127C678.028 304.614 673.518 308.713 670.444 310.982C662.278 319.343 652.69 326.192 642.132 331.211C641.594 316.842 642.096 302.418 642.032 288.056C642.003 282.034 642.405 273.059 641.716 267.254C642.427 265.547 643.368 264.507 644.488 263.049C652.518 262.221 664.08 256.313 670.207 250.422L670.645 250.477L670.724 249.604C676.053 245.14 677.525 243.188 681.992 237.94Z" fill="#6A8399"/>
<path d="M681.993 237.94C682.029 243.611 681.742 257.465 682.805 262.451C682.826 275.752 683.365 294.409 682.733 307.29L681.713 305.127C678.028 304.614 673.518 308.713 670.444 310.982C671.558 293.405 670.179 269.141 670.645 250.477L670.724 249.604C676.053 245.14 677.526 243.188 681.993 237.94Z" fill="#4F677C"/>
<path d="M631.561 259.42L641.716 267.254C642.406 273.059 642.004 282.033 642.032 288.055C642.097 302.418 641.594 316.842 642.133 331.21C639.332 332.615 637.264 333.746 634.233 334.709C630.441 330.463 631.331 325.744 631.31 320.307C631.224 300.04 631.913 279.677 631.561 259.42Z" fill="#8EA7BB"/>
<path d="M565.141 242.235L571.283 238.188C572.788 241.338 573.06 242.078 575.196 244.749C579.286 247.827 596.145 253.771 600.642 253.276C602.909 255.073 603.471 255.405 605.173 257.671C603.068 259.607 597.885 264.691 595.536 265.716C594.384 264.057 593.688 263.802 591.995 262.684C582.084 261.087 572.795 256.982 565.727 249.783C565.421 247.543 565.304 244.55 565.141 242.235Z" fill="#A2BACC"/>
<path d="M600.641 253.275C602.908 255.072 603.47 255.405 605.172 257.671C603.067 259.607 597.884 264.691 595.536 265.715C594.383 264.056 593.687 263.801 591.994 262.684C594.734 259.486 597.483 256.017 600.641 253.275Z" fill="#AFC6D6"/>
<path d="M664.045 241.717C666.882 240.884 667.506 240.104 669.618 240.982C670.71 243.464 669.69 247.026 670.207 250.422C664.081 256.313 652.518 262.221 644.488 263.049C643.368 264.506 642.427 265.547 641.716 267.254L631.561 259.42C632.717 256.098 633.413 255.642 636.013 253.242C641.041 253.871 654.679 248.291 659.879 246.258C661.416 245.081 662.781 243.237 664.045 241.717Z" fill="#829CB1"/>
<path d="M636.013 253.241C639.963 256.248 641.895 258.807 644.488 263.047C643.368 264.505 642.427 265.546 641.716 267.253L631.561 259.419C632.717 256.097 633.413 255.641 636.013 253.241Z" fill="#AFC6D6"/>
<path d="M661.904 225.35C669.129 228.528 666.385 236.104 664.044 241.717C662.78 243.236 661.415 245.08 659.878 246.258C658.384 242.226 659.965 232.572 659.886 226.568L661.904 225.35Z" fill="#3B5165"/>
<path d="M575.37 226.28L575.739 226.601C575.424 232.326 576.106 239.586 575.196 244.749C573.06 242.079 572.788 241.338 571.283 238.189C570.986 232.847 570.57 229.429 575.37 226.28Z" fill="#4F677C"/>
<path d="M553.58 303.816C552.623 292.012 553.743 269.706 553.612 257.372C553.182 217.056 550.175 183.671 573.823 148.062C582.167 135.495 602.753 107.769 618.316 104.28C618.833 109.116 618.912 115.584 622.697 119.044C625.153 121.292 628.234 122.134 628.888 125.563C625.627 122.762 622.259 120.093 618.79 117.561C618.883 120.67 619.07 124.089 618.991 127.172C619.12 128.828 619.271 129.629 619.092 131.291C618.675 142.483 618.926 154.403 618.977 165.66L618.869 166.595C618.144 173.33 618.811 182.457 617.713 188.187C616.14 189.462 616.061 188.878 614.28 189.048C606.385 189.803 605.101 195.791 595.97 193.423C589.029 191.623 586.981 188.195 581.644 185.116C579.475 185.041 575.167 181.045 572.193 179.214C570.23 185.8 563.845 216.573 564.884 222.726C568.794 224.367 571.136 225.503 575.369 226.28C570.569 229.429 570.985 232.847 571.282 238.189L565.139 242.235C565.302 244.55 565.42 247.543 565.725 249.783C565.337 269.792 565.204 289.805 565.326 309.817C561.491 307.703 557.599 304.771 553.58 303.816Z" fill="#6F889E"/>
<path d="M581.646 185.117C585.34 167.187 604.136 142.764 617.865 131.093C618.382 130.653 618.856 127.848 618.993 127.173C619.122 128.828 619.273 129.63 619.093 131.292C618.677 142.484 618.928 154.403 618.978 165.66L618.87 166.596C618.145 173.331 618.813 182.458 617.714 188.187C616.141 189.462 616.062 188.878 614.281 189.049C606.387 189.804 605.103 195.792 595.971 193.424C589.031 191.624 586.982 188.195 581.646 185.117Z" fill="#A2BACC"/>
<path d="M572.194 179.215C573.406 176.042 574.711 172.907 576.107 169.811C582.554 155.61 604.421 122.946 618.791 117.562C618.884 120.671 619.071 124.09 618.992 127.173C618.856 127.848 618.382 130.654 617.865 131.093C604.136 142.765 585.34 167.187 581.645 185.117C579.476 185.042 575.168 181.046 572.194 179.215Z" fill="#AFC6D6"/>
<path d="M564.885 222.727C568.795 224.368 571.137 225.504 575.37 226.281C570.569 229.43 570.986 232.847 571.282 238.189L565.14 242.236C564.731 235.709 565.553 229.386 564.885 222.727Z" fill="#8EA7BB"/>
<path d="M618.316 104.28C634.253 107.974 654.636 135.736 662.952 148.694C680.556 176.131 683.938 203.749 682.904 235.564C682.631 243.951 683.263 254.056 682.803 262.45C681.741 257.464 682.028 243.609 681.992 237.939C677.525 243.187 676.052 245.139 670.723 249.603L670.644 250.475L670.206 250.421C669.689 247.025 670.709 243.463 669.617 240.981C667.506 240.103 666.881 240.883 664.044 241.716C666.385 236.104 669.129 228.528 661.904 225.349L670.781 223.374C671.693 219.323 670.831 216.943 669.933 212.969C666.658 211.136 663.85 212.397 660.044 213.261C660.159 203.198 656.424 194.745 654.901 185.44C651.26 167.103 633.995 143.398 619.092 131.291C619.272 129.629 619.121 128.828 618.992 127.172C619.071 124.089 618.884 120.67 618.79 117.561C622.259 120.093 625.628 122.762 628.888 125.563C628.235 122.134 625.154 121.292 622.697 119.044C618.912 115.584 618.834 109.116 618.316 104.28Z" fill="#6A8399"/>
<path d="M618.791 117.562C622.26 120.094 625.628 122.763 628.889 125.564C646.334 144.199 654.787 155.904 664.138 179.93C660.08 181.415 658.328 182.933 654.902 185.441C651.261 167.104 633.995 143.399 619.093 131.292C619.272 129.63 619.121 128.829 618.992 127.173C619.071 124.09 618.884 120.671 618.791 117.562Z" fill="#8EA7BB"/>
<path d="M664.137 179.929C666.364 187.787 667.613 193.175 668.669 201.302C669 203.866 669.509 211.193 669.933 212.969C666.658 211.136 663.85 212.396 660.044 213.261C660.159 203.198 656.424 194.744 654.901 185.44C658.327 182.931 660.08 181.414 664.137 179.929Z" fill="#7790A5"/>
<path d="M661.904 225.35L670.781 223.375C670.207 230.655 670.609 242.016 670.724 249.604L670.645 250.476L670.207 250.422C669.69 247.026 670.709 243.464 669.618 240.982C667.506 240.104 666.881 240.884 664.045 241.717C666.386 236.104 669.129 228.529 661.904 225.35Z" fill="#7790A5"/>
<path d="M619.092 131.292C633.995 143.399 651.261 167.104 654.902 185.441C656.424 194.746 660.159 203.199 660.044 213.262C645.666 217.275 633.514 218.14 618.877 218.484C618.82 201.855 619.717 181.694 618.978 165.661C618.927 154.404 618.676 142.484 619.092 131.292Z" fill="#7993A8"/>
<path d="M572.194 179.214C575.168 181.045 579.476 185.041 581.645 185.117C578.576 196.121 577.539 201.757 576.944 213.063C588.568 216.078 606.526 219.161 618.698 218.802C618.777 222.501 620.206 231.568 616.371 232.928C602.42 231.929 589.387 229.442 575.738 226.601L575.37 226.28C571.137 225.503 568.795 224.368 564.885 222.726C563.846 216.573 570.231 185.8 572.194 179.214Z" fill="#A2BACC"/>
<path d="M741.509 333.012L749.782 336.858L749.883 337.386C754.537 340.677 758.537 342.522 759.622 347.942L759.859 349.081L759.155 932.759C758.293 946.498 759.277 960.819 758.983 974.508C755.6 974.472 751.183 974.91 748.518 973.151C749.158 968.525 749.086 958.995 749.193 953.996L748.26 951.095C745.2 952.373 745.452 956.424 742.155 957.925L740.668 957.3L739.807 954.951L739.936 933.772L739.871 667.708L739.886 425.828L740.022 371.081C740.044 361.582 739.455 341.802 741.509 333.012Z" fill="#6A8399"/>
<path d="M741.509 333.012L749.782 336.858L749.883 337.386L749.114 763.831L748.885 902.609C748.87 911.608 748.827 920.621 748.956 929.62C749.071 938.26 750.407 945.399 749.193 953.996L748.26 951.095C745.2 952.373 745.452 956.424 742.155 957.925L740.668 957.3L739.807 954.951L739.936 933.772L739.871 667.708L739.886 425.828L740.022 371.081C740.044 361.582 739.455 341.802 741.509 333.012Z" fill="#97AFC2"/>
<path d="M449.78 522.352C457.808 523.834 459.035 523.291 466.797 521.392C466.623 525.015 466.769 528.084 466.914 531.684C464.546 660.762 458.02 791.18 458.074 919.961C445.1 909.59 420.814 890.105 420.407 872.983C419.789 847.02 425.361 814.263 428.97 788.3C431.838 767.451 434.162 746.53 435.941 725.558C438.942 691.422 439.766 656.116 442.402 621.858C442.797 616.73 444.017 588.532 445.07 585.962C445.959 583.238 446.606 569.015 446.831 565.408C447.606 551.042 448.589 536.689 449.78 522.352Z" fill="#5A7287"/>
<path d="M425.291 268.891C425.249 258.399 425.22 247.891 425.271 237.396C425.296 232.286 425.859 225.501 429.904 221.813C431.69 220.186 434.078 219.718 436.409 220.098C440.612 220.783 442.483 223.328 444.815 226.544L445.399 227.363L446.595 227.42C469.79 210.838 456.83 272.956 461.453 283.136C467.474 284.928 471.752 286.65 474.856 292.633C481.566 305.565 477.055 335.012 468.781 346.184C464.581 346.252 461.901 345.709 457.811 345.04C460.179 341.217 461.047 339.724 462.843 335.524C455.522 344.07 448.983 338.754 446.812 329.584L444.848 333.544L443.825 333.546L443.559 333.223C442.093 327.554 439.104 320.164 434.341 316.578C431.887 315.981 429.438 315.366 426.994 314.733C425.267 312.195 425.077 309.349 425.326 306.412C424.067 309.195 419.661 312.902 416.635 313.195C414.704 302.195 415.086 296.62 419.808 286.511L420.037 284.805C422.663 282.558 425.719 280.075 428.319 277.895C433.707 273.379 433.196 276.315 438.759 276.267C440.571 274.799 440.67 271.978 440.988 269.541C439.428 268.605 434.837 266.355 433.173 267.052C422.378 271.572 414.113 274.728 409.499 286.333C403.323 301.867 406.278 316.807 409.635 332.577C410.411 336.105 412.567 341.955 412.804 345.072C412.504 344.647 411.623 343.497 411.479 343.077C403.192 318.931 397.264 282.079 425.291 268.891Z" fill="#43596E"/>
<path d="M425.291 268.891C425.249 258.399 425.22 247.891 425.271 237.396C425.296 232.286 425.859 225.501 429.904 221.813C431.69 220.186 434.078 219.718 436.409 220.098C440.612 220.783 442.483 223.328 444.815 226.544L445.399 227.363L446.595 227.42C469.79 210.838 456.83 272.956 461.453 283.136C461.662 285.442 462.25 290.292 462.228 292.402L460.551 291.769C464.022 282.648 452.905 281.43 448.492 275.232C448.335 268.765 449.722 238.169 447.876 234.345C445.835 233.151 446.906 233.338 444.547 233.825C440.844 238.048 442.943 260.507 442.015 268.522L440.988 269.541C439.428 268.605 434.837 266.355 433.173 267.052C422.378 271.572 414.113 274.728 409.499 286.333C403.323 301.867 406.278 316.807 409.635 332.577C410.411 336.105 412.567 341.955 412.804 345.072C412.504 344.647 411.623 343.497 411.479 343.077C403.192 318.931 397.264 282.079 425.291 268.891Z" fill="#698398"/>
<path d="M432.831 231.712C434.743 229.327 433.915 229.682 436.443 228.794C439.98 230.883 439.712 235.011 439.597 238.692C439.719 248.347 440.038 254.21 433.365 261.253C432.956 254.746 431.918 237.419 432.831 231.712Z" fill="#8EA7BB"/>
<path d="M432.83 231.712C434.742 229.327 433.915 229.682 436.442 228.794C439.98 230.883 439.711 235.011 439.596 238.692C437.457 239.269 436.074 239.895 433.947 239.371C432.541 237.034 432.948 234.762 432.83 231.712Z" fill="#A2BACC"/>
<path d="M452.43 231.423C454.259 232.111 454.105 232.148 455.196 233.812C455.526 236.744 454.584 238.099 453.373 240.932C451.867 239.35 451.594 238.551 450.638 236.636C450.728 233.236 450.477 234.507 452.43 231.423Z" fill="#7790A5"/>
<path d="M461.452 283.137C467.474 284.929 471.752 286.65 474.856 292.633C481.565 305.565 477.054 335.012 468.781 346.185C464.581 346.252 461.901 345.709 457.811 345.04C460.178 341.218 461.046 339.724 462.843 335.524C455.522 344.07 448.982 338.755 446.812 329.584C445.506 315.183 458.665 312.494 459.67 308.347C455.467 301.995 451.587 307.979 448.802 299.051C450.818 291.581 453.26 290.842 460.551 291.769L462.227 292.403C462.249 290.292 461.662 285.442 461.452 283.137Z" fill="#7790A5"/>
<path d="M461.453 283.137C467.474 284.929 471.753 286.65 474.857 292.633C481.566 305.565 477.055 335.012 468.781 346.185C464.581 346.252 461.902 345.709 457.812 345.04C460.179 341.218 461.047 339.724 462.843 335.524C467.963 323.507 469.239 312.355 468.905 299.404C467.025 295.271 466.347 294.114 462.228 292.403C462.25 290.292 461.663 285.442 461.453 283.137Z" fill="#5A7287"/>
<path d="M448.803 299.05C450.819 291.58 453.261 290.84 460.552 291.768L462.228 292.402C466.347 294.113 467.025 295.27 468.905 299.403C464.727 302.88 453.776 300.357 448.803 299.05Z" fill="#A2BACC"/>
<path d="M419.808 286.511C429.548 279.083 435.624 269.648 444.478 283.558C441.296 286.431 440.092 288.153 435.824 288.018C431.154 288.073 426.179 295.963 420.369 299.895C422.384 302.249 423.779 303.712 425.327 306.412C424.067 309.195 419.662 312.902 416.635 313.195C414.705 302.195 415.087 296.62 419.808 286.511Z" fill="#AFC6D6"/>
<path d="M420.369 299.895C426.179 295.963 431.154 288.073 435.824 288.018C437.8 292.629 438.598 298 442.675 300.777C440.787 303.455 441.963 302.474 439.037 303.872C435.278 303.392 432.608 298.908 429.235 296.596C428.478 296.977 427.722 297.359 426.965 297.741C427.532 302.483 428.021 308.707 431.274 311.919C432.201 312.835 433.795 315.381 434.342 316.578C431.888 315.981 429.439 315.366 426.995 314.732C425.267 312.194 425.077 309.349 425.327 306.412C423.779 303.712 422.384 302.249 420.369 299.895Z" fill="#7790A5"/>
<path d="M444.478 283.558C447.108 291.586 446.205 293.264 442.674 300.777C438.598 298 437.799 292.629 435.823 288.018C440.091 288.153 441.295 286.431 444.478 283.558Z" fill="#8EA7BB"/>
<path d="M551.353 385.377C544.947 388.376 538.866 386.657 536.21 379.809C534.196 374.546 534.431 368.687 536.862 363.604C538.435 360.36 543.666 353.797 546.894 353.507C564.812 351.9 585.502 352.709 603.539 352.628C629.126 352.735 654.744 352.447 680.334 352.804C682.862 352.839 693.326 354.117 695.136 355.398C703.28 361.17 706.268 375.073 700.077 383.313C697.29 387.019 693.168 387.883 689.182 385.556C686.991 382.608 686.022 382.181 682.919 380.028C678.969 379.793 674.15 379.832 670.121 379.769C636.94 379.873 602.665 380.448 569.58 379.906C565.558 379.753 561.06 379.673 557.095 379.36C554.476 381.274 552.626 382.333 551.353 385.377Z" fill="#A5BDCF"/>
<path d="M553.716 307.52L552.908 307.8C551.926 308.131 551.331 308.291 550.34 308.531C548.318 311.849 548.707 315.508 549.893 319.132C545.79 320.15 542.079 320.758 538.481 322.911C539.737 328.469 541.402 333.263 546.524 336.452C547.263 339.552 546.647 339.218 548.62 340.694C550.688 340.822 553.41 340.87 555.371 341.097C552.334 341.373 548.175 341.579 545.334 342.376C528.639 347.06 520.938 363.149 523.874 379.387L524.053 380.432C512.617 389.359 503.788 394.235 488.316 392.423C485.549 392.099 484.151 391.315 481.471 391.924C480.503 388.358 479.86 384.823 479.144 381.203C478.02 376.927 476.437 372.352 477.162 368.103C475.793 365.328 473.432 356.587 472.428 353.162C481.122 339.453 496.157 326.827 510.855 319.99C521.708 314.941 541.878 306.352 553.716 307.52Z" fill="#809BAF"/>
<path d="M553.716 307.52L552.908 307.8C551.926 308.131 551.331 308.291 550.34 308.531C548.318 311.849 548.707 315.508 549.893 319.132C545.79 320.15 542.079 320.758 538.481 322.911C535.855 324.187 535.753 324.225 532.905 324.861C507.121 332.649 491.168 344.154 477.768 367.791L477.162 368.103C475.793 365.328 473.432 356.587 472.428 353.162C481.122 339.453 496.157 326.827 510.855 319.99C521.708 314.941 541.878 306.352 553.716 307.52Z" fill="#5A7287"/>
<path d="M477.767 367.791C491.167 344.153 507.12 332.649 532.904 324.86C533.712 328.524 534.468 329.735 536.125 333.082C513.904 342.433 502.37 348.894 488.68 368.92C483.802 367.447 481.857 369.69 477.767 367.791Z" fill="#AFC6D6"/>
<path d="M477.767 367.791C481.857 369.69 483.802 367.448 488.681 368.921C486.465 372.415 482.573 379.735 479.143 381.203C478.019 376.927 476.437 372.352 477.162 368.103L477.767 367.791Z" fill="#A2BACC"/>
<path d="M520.79 927.474C523.663 927.43 525.574 927.387 528.416 927.675C526.458 931.416 524.508 935.395 522.21 938.914C512.697 948.431 507.122 961.179 506.598 974.623L476.559 974.537L465.888 974.523C466.5 969.057 468.066 963.735 470.516 958.809C479.389 940.724 496.576 934.059 514.152 928.034L520.79 927.474Z" fill="#8EA7BB"/>
<path d="M514.152 928.034L520.79 927.474L523.318 928.149C523.235 931.28 519.732 934.641 517.578 937.191C498.373 943.533 480.469 952.431 476.559 974.537L465.888 974.523C466.5 969.057 468.066 963.736 470.516 958.809C479.389 940.724 496.576 934.06 514.152 928.034Z" fill="#A2BACC"/>
<path d="M781.872 271.145C785.37 276.801 788.157 287.012 790.469 290.57C792.509 300.52 793.723 308.178 795.13 318.294C793.17 321.958 792.473 323.368 789.744 326.658C779.775 321.558 778.016 320.77 770.367 312.828L769.886 307.927L769.8 303.876C768.018 302.518 764.887 300.932 762.84 299.812L761.921 299.839L761.231 297.104C762.158 292.16 764.463 290.119 764.198 285.016C767.185 285.44 770.345 285.946 773.333 286.279L775.876 281.451L778.899 275.068L781.872 271.145Z" fill="#7790A5"/>
<path d="M764.198 285.016C767.185 285.439 770.345 285.946 773.333 286.279C774.331 292.904 774.015 293.424 771.301 299.4L770.36 301.498L769.8 303.876C768.018 302.517 764.887 300.932 762.84 299.812L761.921 299.839L761.231 297.104C762.158 292.16 764.463 290.118 764.198 285.016Z" fill="#8EA7BB"/>
<path d="M762.84 299.813L763.328 297.975C765.943 297.094 768.334 299.795 770.359 301.499L769.799 303.876C768.018 302.518 764.887 300.932 762.84 299.813Z" fill="#829CB1"/>
<path d="M437.593 510.643C450.005 511.385 456.798 509.399 468.06 504.003C467.206 512.929 467.968 524.042 466.914 531.684C466.768 528.084 466.623 525.015 466.796 521.392C459.035 523.291 457.807 523.835 449.779 522.352C448.588 536.689 447.605 551.043 446.831 565.408C446.606 569.016 445.959 583.238 445.07 585.962C444.7 569.049 447.284 551.148 447.974 534.213C448.285 526.547 449.519 518.974 449.216 511.262C446.205 511.158 442.287 510.634 439.751 511.931C437.436 514.845 437.543 532.23 437.244 537.095L433.898 590.747C429.18 668.965 424.481 747.184 413.287 824.685C410.884 841.325 408.701 858.986 409.856 875.741C411.257 890.464 421.623 898.63 427.167 909.231C417.572 901.589 408.14 883.613 408.266 871.253C408.709 831.78 417.798 792.617 421.062 753.296C427.769 672.505 432.656 591.561 437.593 510.643Z" fill="#4F677C"/>
<path d="M498.902 810.587C500.562 793.386 509.961 780.307 528.155 778.856L526.213 790.089L526.356 790.499C525.046 797.02 524.992 808.59 524.869 815.664C517.438 815.98 514.029 814.292 506.961 811.908C503.859 810.371 502.176 810.084 498.902 810.587Z" fill="#AFC6D6"/>
<path d="M506.961 811.908C510.479 799.081 512.759 793.931 526.214 790.089L526.356 790.498C525.046 797.02 524.993 808.59 524.869 815.664C517.439 815.98 514.029 814.292 506.961 811.908Z" fill="#8EA7BB"/>
<path d="M425.326 306.412C425.076 309.349 425.267 312.194 426.994 314.732C429.438 315.366 431.887 315.981 434.341 316.578C439.104 320.164 442.093 327.554 443.559 333.222C441.544 347.033 437.45 342.974 426.697 346.974C425.55 345.379 424.03 342.749 422.956 341.021C419.993 333.031 417.059 321.682 416.635 313.195C419.661 312.902 424.067 309.194 425.326 306.412Z" fill="#8EA7BB"/>
<path d="M425.326 306.412C425.076 309.349 425.267 312.194 426.994 314.732C429.858 325.324 434.593 335.276 422.956 341.021C419.993 333.031 417.059 321.682 416.635 313.195C419.661 312.902 424.067 309.194 425.326 306.412Z" fill="#A2BACC"/>
<path d="M498.902 810.587C502.176 810.084 503.859 810.372 506.961 811.909C514.029 814.293 517.438 815.981 524.869 815.665L524.96 816.117C524.977 821.145 527.894 842.633 527.482 843.955L526.586 844.651C508.616 841.951 499.348 827.903 498.902 810.587Z" fill="#7790A5"/>
<path d="M739.98 264.811C741.661 254.3 749.849 252.344 759.228 253.996C770.648 256.009 776.573 261.385 781.873 271.145L778.9 275.068L775.876 281.452C772.615 278.443 770.296 276.488 766.001 275.326L766.611 271.946C760.248 267.819 752.427 267.692 745.302 269.745C741.474 269.003 741.252 268.237 739.98 264.811Z" fill="#AFC6D6"/>
<path d="M739.98 264.811C749.044 268.4 755.896 260.255 767.523 266.475L766.611 271.945C760.248 267.818 752.427 267.691 745.302 269.745C741.474 269.003 741.252 268.236 739.98 264.811Z" fill="#7790A5"/>
<path d="M767.523 266.476C771.803 269.44 774.863 271.771 778.899 275.068L775.875 281.451C772.615 278.443 770.295 276.488 766 275.326L766.61 271.945L767.523 266.476Z" fill="#8EA7BB"/>
<path d="M524.053 380.433C525.544 383.275 526.626 385.461 528.467 388.121C513.911 401.936 504.03 408.035 483.557 402.329L481.471 391.924C484.15 391.315 485.549 392.099 488.316 392.423C503.787 394.235 512.616 389.359 524.053 380.433Z" fill="#829CB1"/>
<path d="M735.871 306.196C744.166 295.551 751.564 305.65 761.92 299.84L762.839 299.813C764.886 300.933 768.018 302.519 769.799 303.877L769.885 307.928L770.366 312.829C767.831 315.537 765.992 317.768 762.926 319.886C750.867 308.789 736.216 325.018 735.871 306.196Z" fill="#A2BACC"/>
<path d="M762.926 319.885C750.867 308.788 736.216 325.017 735.871 306.195C743.175 312.905 762.732 315.085 769.885 307.928L770.366 312.829C767.831 315.536 765.992 317.767 762.926 319.885Z" fill="#829CB1"/>
<path d="M756.168 242.726C764.025 242.496 764.772 242.428 771.738 246.426C775.768 248.166 777.879 248.892 781.168 251.963C778.971 251.098 777.132 250.484 775.157 249.13C773.003 247.65 768.672 253.503 768.011 255.234C769.081 255.839 775.624 259.569 776.076 260.106C782.483 267.781 787.733 280.121 790.8 289.214L790.469 290.57C788.157 287.013 785.37 276.802 781.872 271.145C776.572 261.385 770.647 256.009 759.228 253.997C749.848 252.344 741.66 254.301 739.98 264.811C741.251 268.237 741.474 269.004 745.302 269.745C742.63 270.574 743.944 270.595 741.244 269.571C736.798 264.755 740.777 254.495 747.463 253.666C748.318 251.333 748.577 251.241 747.973 248.791C742.027 243.663 736.403 252.784 733.229 256.996C729.185 262.362 733.107 267.867 732.489 273.614C731.347 279.957 727.907 285.622 725.889 292.602C725.96 285.159 728.18 281.73 731.914 275.598C726.593 259.719 732.762 250.43 747.42 244.815C749.51 241.896 752.9 242.618 756.168 242.726Z" fill="#4F677C"/>
<path d="M759.155 932.76C759.938 940.416 760.462 967.88 759.608 974.731C762.912 974.616 766.467 973.913 769.375 975.457C770.252 978.602 764.168 983.752 762.524 987.235C768.937 987.185 787.194 986.869 793.09 987.716C788.049 988.715 753.927 987.946 747.398 987.709C743.168 983.012 741.904 981.956 740.547 975.665L741.933 975.485C745.596 975.033 745.481 975.27 748.519 973.151C751.183 974.911 755.6 974.473 758.983 974.509C759.277 960.82 758.294 946.499 759.155 932.76Z" fill="#4F677C"/>
<path d="M759.608 974.731C762.912 974.616 766.467 973.912 769.376 975.457C770.252 978.602 764.169 983.752 762.524 987.235C758.481 987.357 755.838 987.307 751.83 987.091C756.513 982.416 757.403 980.707 759.608 974.731Z" fill="#2B4053"/>
<path d="M766 275.327C770.295 276.489 772.615 278.444 775.876 281.453L773.333 286.28C770.346 285.947 767.185 285.441 764.198 285.017L762.783 284.957C750.954 284.343 744.95 292.111 735.226 283.915C744.153 268.506 755.96 281.921 766 275.327Z" fill="#AFC6D6"/>
<path d="M446.813 329.583C448.983 338.754 455.523 344.069 462.843 335.523C461.047 339.723 460.179 341.216 457.812 345.039C451.944 353.83 437.927 354.44 429.586 349.075C428.578 348.439 427.613 347.737 426.697 346.974C437.45 342.973 441.545 347.033 443.559 333.222L443.826 333.545L444.848 333.544L446.813 329.583Z" fill="#7790A5"/>
<path d="M770.366 312.829C778.015 320.771 779.775 321.559 789.743 326.659C775.997 340.527 770.28 334.236 762.926 319.885C765.992 317.767 767.831 315.537 770.366 312.829Z" fill="#6A8399"/>
<path d="M735.441 295.44C735.075 291.339 735.161 287.999 735.226 283.914C744.95 292.109 750.954 284.341 762.783 284.955L764.198 285.016C764.464 290.119 762.158 292.16 761.232 297.104C754.911 290.168 743.463 293.49 735.441 295.44Z" fill="#829CB1"/>
<path d="M748.317 325.25C753.768 325.386 756.627 329.679 759.457 333.758C759.672 338.863 759.801 343.971 759.859 349.081L759.622 347.942C758.537 342.522 754.537 340.677 749.883 337.386L749.782 336.858L741.509 333.012C743.046 328.304 743.908 327.711 748.317 325.25Z" fill="#5A7287"/>
<path d="M748.317 325.25C750.817 328.047 749.976 332.775 749.782 336.858L741.509 333.012C743.046 328.304 743.908 327.711 748.317 325.25Z" fill="#7790A5"/>
<path d="M708.882 530.721C712.451 534.247 713.938 537.196 715.834 541.838C712.114 542.266 709.643 542.509 705.966 543.39L696.766 544.337C696.859 540.738 696.773 539.17 696.335 535.595L697.491 534.614C702.109 533.381 704.443 532.514 708.882 530.721Z" fill="#6A8399"/>
<path d="M549.891 319.132C551.325 322.109 552.349 324.385 553.534 327.466C549.853 329.857 547.614 332.059 546.522 336.452C541.4 333.263 539.735 328.468 538.479 322.911C542.078 320.758 545.789 320.15 549.891 319.132Z" fill="#8EA7BB"/>
<path d="M553.534 327.467C555.594 331.247 558.969 336.243 559.633 340.078L558.873 341.01L555.37 341.098C553.409 340.871 550.687 340.822 548.619 340.695C546.646 339.219 547.262 339.553 546.522 336.453C547.614 332.06 549.853 329.858 553.534 327.467Z" fill="#829CB1"/>
<path d="M417.941 366.063L420.906 358.345C425.913 361.666 426.614 362.085 432.053 364.242C437.089 365.025 438.926 365.338 444.062 365.225C443.301 368.912 442.497 372.609 441.874 376.318C447.717 375.268 449.873 374.802 455.431 372.82L456.337 372.39C459.986 370.629 462.491 369.806 463.813 365.993C464.934 379.557 475.368 412.595 471.141 422.634C473.725 427.112 476.009 431.143 476.717 436.341C477.741 440.725 478.762 444.957 478.924 449.478C479.588 468.038 471.015 492.329 450.549 496.655C446.971 497.42 443.302 497.667 439.654 497.388C425.953 494.324 419.756 487.04 414.45 474.693C409.314 463.291 409.34 454.336 409.24 442.141C413.702 445.316 416.256 447.038 421.038 449.649C420.981 446.15 420.793 439.171 422.032 436.113L420.581 434.987C416.949 432.599 414.026 430.547 411.806 426.801L410.893 425.565C404.897 412.251 414.933 381.158 417.941 366.063Z" fill="#6A8399"/>
<path d="M467.362 445.217C470.602 442.671 473.772 439.286 476.716 436.342C477.74 440.726 478.761 444.957 478.923 449.478C479.587 468.039 471.014 492.33 450.548 496.655C446.97 497.421 443.301 497.667 439.653 497.389C425.952 494.325 419.754 487.04 414.449 474.694C409.313 463.291 409.339 454.336 409.239 442.142C413.701 445.316 416.255 447.039 421.037 449.649C432.033 453.649 441.732 456.071 453.38 452.187C459.376 450.311 462.303 448.682 467.362 445.217Z" fill="#6A8399"/>
<path d="M409.239 442.142C413.701 445.316 416.255 447.038 421.037 449.649C432.033 453.649 441.732 456.07 453.38 452.187C456.617 454.897 462.599 460.722 457.886 465.234C448.167 474.537 436.101 473.373 424.609 468.599C425.582 471.495 426.533 474.486 427.986 477.179C431.488 483.666 438.535 490.104 439.653 497.388C425.952 494.325 419.754 487.04 414.449 474.693C409.313 463.291 409.339 454.336 409.239 442.142Z" fill="#7790A5"/>
<path d="M409.239 442.142C413.701 445.316 416.255 447.038 421.037 449.649C421.342 456.06 421.711 461.962 423.454 468.185C419.421 470.279 416.349 473.951 414.449 474.693C409.313 463.291 409.339 454.336 409.239 442.142Z" fill="#A2BACC"/>
<path d="M417.941 366.063L420.906 358.345C425.913 361.666 426.614 362.085 432.053 364.242C437.089 365.025 438.926 365.338 444.062 365.225C443.301 368.912 442.497 372.609 441.874 376.318C440.597 389.579 440.144 425.789 440.956 439.547C438.557 440.453 437.491 440.321 434.964 440.381C429.359 438.992 427.312 438.383 422.032 436.113L420.581 434.987C416.949 432.599 414.026 430.547 411.806 426.801L410.893 425.565C404.897 412.251 414.933 381.158 417.941 366.063Z" fill="#8EA7BB"/>
<path d="M417.941 366.063L420.906 358.345C425.913 361.666 426.614 362.085 432.053 364.242C430.258 367.085 428.768 369.505 427.138 372.465L427.02 373.1C423.706 383.101 420.79 411.036 419.442 422.263C415.907 423.753 414.943 424.521 411.806 426.801L410.893 425.565C404.897 412.251 414.933 381.158 417.941 366.063Z" fill="#AFC6D6"/>
<path d="M417.94 366.063L420.905 358.345C425.912 361.666 426.613 362.085 432.052 364.242C430.257 367.085 428.767 369.505 427.137 372.465C423.221 372.246 419.645 369.549 417.94 366.063Z" fill="#AFC6D6"/>
<path d="M432.052 364.242C437.088 365.025 438.926 365.338 444.062 365.225C443.3 368.912 442.496 372.609 441.873 376.319C435.736 375.413 432.893 375.275 427.02 373.1L427.137 372.466C428.768 369.505 430.257 367.085 432.052 364.242Z" fill="#A2BACC"/>
<path d="M411.806 426.801C414.943 424.521 415.907 423.753 419.442 422.263C419.857 426.502 420.236 430.742 420.581 434.987C416.949 432.598 414.026 430.547 411.806 426.801Z" fill="#A2BACC"/>
<path d="M471.14 422.634C473.724 427.111 476.008 431.142 476.716 436.341C473.773 439.285 470.603 442.67 467.363 445.216C462.304 448.681 459.377 450.31 453.381 452.186C441.733 456.07 432.034 453.648 421.038 449.648C420.981 446.15 420.793 439.17 422.031 436.112C427.312 438.382 429.358 438.992 434.964 440.381C445.251 442.552 455.86 438.075 464.064 432.171L464.068 431.73C467.347 428.953 468.851 426.209 471.14 422.634Z" fill="#43596E"/>
<path d="M471.14 422.634C473.724 427.111 476.008 431.142 476.716 436.341C473.773 439.285 470.603 442.67 467.362 445.216C466.931 441.748 466.423 434.366 464.063 432.171L464.067 431.73C467.346 428.953 468.85 426.209 471.14 422.634Z" fill="#4F677C"/>
<path d="M463.813 365.993C464.933 379.558 475.367 412.596 471.14 422.635C468.85 426.21 467.346 428.953 464.067 431.731C462.588 427.001 463.316 421.024 462.203 416.471C459.163 404.031 458.856 384.386 455.431 372.82L456.336 372.39C459.985 370.629 462.49 369.806 463.813 365.993Z" fill="#7790A5"/>
<path d="M516.554 551.65C519.525 543.062 521.133 537.226 527.289 530.458C530.275 531.58 540.447 534.456 542.104 536.109C542.154 538.63 542.356 542.572 542.132 544.968C542.647 565.574 542.661 593.071 542.021 613.714C542.114 624.925 546.29 676.994 530.518 681.124C525.317 682.489 499.389 670.473 494.133 664.692C494.411 660.131 494.648 656.202 495.268 651.663C498.31 621.801 504.212 595.399 512.301 566.65C513.982 561.352 515.343 557.06 516.554 551.65Z" fill="#7790A5"/>
<path d="M541.354 613.879L542.021 613.714C542.114 624.925 546.29 676.994 530.518 681.124C525.317 682.489 499.389 670.473 494.133 664.692C494.411 660.131 494.648 656.203 495.268 651.663C499.435 652.331 502.121 653.423 506.045 654.831L506.209 657.948L506.895 658.206L506.182 655.836L507.317 657.775C512.708 656.949 524.093 659.65 526.588 656.016C531.653 648.64 541.892 621.973 541.354 613.879Z" fill="#728BA0"/>
<path d="M512.301 566.649C517.107 567.291 519.632 567.531 524.253 569.012C514.52 602.291 510.508 620.874 506.045 654.831C502.121 653.423 499.435 652.331 495.268 651.663C498.31 621.801 504.212 595.399 512.301 566.649Z" fill="#8EA7BB"/>
<path d="M516.555 551.65C519.526 543.062 521.133 537.226 527.289 530.458C530.275 531.58 540.448 534.456 542.105 536.109C542.155 538.63 542.357 542.572 542.132 544.968C541.309 550.329 541.723 555.93 541.374 561.417C536.266 559.954 530.682 558.476 525.66 556.859C521.884 555.512 518.474 554.848 516.555 551.65Z" fill="#8EA7BB"/>
<path d="M541.504 545.691C541.535 542.232 541.782 539.518 542.105 536.108C542.155 538.629 542.357 542.571 542.132 544.967C541.309 550.329 541.723 555.93 541.374 561.417C536.266 559.953 530.683 558.475 525.66 556.859C527.189 551.983 528.58 547.902 530.395 543.127C534.035 544.058 537.829 544.862 541.504 545.691Z" fill="#7790A5"/>
<path d="M542.132 544.968C542.648 565.574 542.662 593.071 542.022 613.714L541.355 613.879C541.043 601.773 541.581 587.26 541.706 574.962C537.036 573.826 529.39 570.694 524.253 569.012C519.632 567.531 517.108 567.292 512.302 566.65C513.982 561.352 515.343 557.06 516.555 551.65C518.475 554.848 521.884 555.512 525.66 556.859C530.683 558.476 536.266 559.954 541.374 561.417C541.724 555.93 541.309 550.329 542.132 544.968Z" fill="#6A8399"/>
<path d="M802.542 330.254C804.826 332.661 806.47 334.898 808.474 337.518C815.225 348.906 821.452 360.182 825.531 372.876C828.318 381.533 827.945 387.495 824.389 395.685C823.147 397.701 821.797 400.033 820.411 401.926L819.211 403.642C811.641 409.896 808.079 412.33 798.161 414.662C787.704 414.977 778.978 413.956 771.013 406.459C771.508 386.966 770.826 367.505 770.826 348.033C771.135 347.678 771.451 347.324 771.76 346.969L774.037 347.126C777.261 346.796 781.082 345.735 784.292 344.966C789.025 342.894 791.173 341.22 795.381 338.24C798.585 335.352 799.92 333.573 802.542 330.254Z" fill="#7790A5"/>
<path d="M771.013 406.459C771.508 386.966 770.826 367.504 770.826 348.032C771.135 347.678 771.451 347.324 771.76 346.969L774.037 347.125L771.781 348.25C771.192 350.546 771.315 350.712 771.451 353.008C774.424 357.476 782.31 355.606 787.165 354.847C791.273 370.727 796.861 398.315 798.161 414.662C787.704 414.976 778.978 413.956 771.013 406.459Z" fill="#5A7287"/>
<path d="M802.542 330.254C804.826 332.661 806.471 334.898 808.475 337.518C815.226 348.906 821.453 360.182 825.532 372.876C828.319 381.533 827.945 387.495 824.39 395.685C823.148 397.701 821.797 400.033 820.411 401.926C819.097 398.677 816.346 386.395 814.68 381.505C810.55 369.404 806.227 358.874 801.285 347.065C796.057 350.482 793.062 351.933 787.352 354.615C786.447 351.355 785.356 348.179 784.293 344.966C789.026 342.894 791.173 341.22 795.382 338.24C798.585 335.352 799.921 333.573 802.542 330.254Z" fill="#8EA7BB"/>
<path d="M802.541 330.254C804.825 332.661 806.47 334.898 808.474 337.518C806.218 341.657 805.112 343.526 801.608 346.958C800.056 344.703 797.083 340.105 795.381 338.24C798.584 335.352 799.92 333.573 802.541 330.254Z" fill="#A2BACC"/>
<path d="M822.479 417.014C824.878 415.255 828.448 410.971 830.494 408.581C833.554 419.461 834.782 427.944 834.43 439.21C833.353 449.549 832.067 459.289 826.207 468.253C818.278 482.839 803.943 486.389 788.681 481.898C781.269 479.65 777.721 478.083 771.229 473.901L771.25 456.03C770.582 444.569 770.539 433.081 771.128 421.616C775.452 424.012 780.098 425.771 784.925 426.841C799.554 429.993 809.724 425.682 821.553 418.03L822.479 417.014Z" fill="#667F94"/>
<path d="M822.479 417.014C824.878 415.255 828.447 410.971 830.494 408.581C833.554 419.461 834.782 427.944 834.43 439.21C831.888 444.559 827.578 444.748 822.767 449.625C824.993 437.998 824.138 429.595 821.553 418.03L822.479 417.014Z" fill="#8EA7BB"/>
<path d="M822.767 449.624C827.579 444.747 831.888 444.557 834.43 439.209C833.353 449.548 832.067 459.288 826.207 468.252C824.785 467.111 822.041 463.341 820.152 461.539C821.474 457.206 821.991 454.078 822.767 449.624Z" fill="#7790A5"/>
<path d="M771.249 456.029C774.445 462.84 776.671 467.765 781.541 473.691C783.171 475.676 787.804 480.386 788.68 481.897C781.268 479.649 777.72 478.083 771.228 473.901L771.249 456.029Z" fill="#4F677C"/>
<path d="M505.72 686.496C512.186 689.347 518.402 691.488 525.123 693.628C530.655 695.05 536.535 696.256 541.928 697.722C542.326 712.021 542.2 726.873 542.211 741.23C542.218 749.389 542.563 761.153 542.013 769.125C536.722 766.712 533.635 766.381 528.031 766.087C519.51 766.367 513.792 768.852 507.272 773.958C505.753 748.01 504.731 725.128 505.368 699.093L505.72 686.496Z" fill="#7790A5"/>
<path d="M505.72 686.496C512.185 689.347 518.402 691.488 525.123 693.628C530.655 695.05 536.534 696.256 541.928 697.722C542.325 712.021 542.2 726.873 542.211 741.23C542.218 749.389 542.563 761.153 542.013 769.125C536.722 766.712 533.634 766.381 528.031 766.087C529.802 763.968 527.29 715.727 526.873 708.444C521.072 705.349 511.797 701.995 505.368 699.093L505.72 686.496Z" fill="#5A7287"/>
<path d="M525.123 693.628C530.655 695.05 536.535 696.257 541.928 697.722C542.325 712.021 542.2 726.873 542.211 741.23C542.218 749.389 542.563 761.153 542.013 769.125C541.125 751.479 542.226 732.87 541.527 715.002C537.585 712.782 529.005 709.579 526.944 706.34C527.153 702.605 526.949 696.939 525.123 693.628Z" fill="#4F677C"/>
<path d="M523.631 407.524C535.204 443.005 513.634 463.354 485.096 480.552C491.343 463.67 492.438 458.37 491.149 440.467C489.712 433.488 482.372 421.055 486.388 416.301C488.861 415.524 491.119 416.615 493.687 417.42C505.177 416.925 514.278 414.267 523.631 407.524Z" fill="#4F677C"/>
<path d="M491.15 440.466C489.713 433.488 482.373 421.055 486.389 416.3C488.862 415.524 491.12 416.614 493.688 417.42C499.047 418.795 502.693 422.76 506.645 426.527C501.986 432.323 497.669 436.654 491.15 440.466Z" fill="#5A7287"/>
<path d="M686.683 319.105C690.561 319.996 693.304 320.94 697.025 322.21C698.317 322.684 700.673 323.635 701.908 323.95C712.724 327.651 718.362 329.682 728.41 335.602L727.656 347.556C728.417 361.221 727.548 386.183 727.584 400.797C719.641 397.513 715.353 394.692 709.442 388.611C718.211 375.692 716.545 362.62 706.282 350.398C698.037 340.572 686.295 341.283 674.545 341.087C677.497 337.486 680.829 331.571 683.163 327.475L686.683 319.105Z" fill="#5A7287"/>
<path d="M701.909 323.95C712.725 327.65 718.363 329.681 728.41 335.602L727.656 347.555C717.882 340.375 710.204 337.295 699.201 332.412C700.264 329.718 701.076 326.74 701.909 323.95Z" fill="#7790A5"/>
<path d="M686.682 319.105C690.561 319.996 693.304 320.94 697.024 322.21C696.364 325.5 696.256 327.591 694.274 330.304C689.842 332.944 687.307 330.013 683.163 327.475L686.682 319.105Z" fill="#6A8399"/>
<path d="M518.95 472.47C540.45 451.93 541.065 433.947 536.002 404.817C535.616 402.59 537.088 400.328 538.56 398.886L540.333 399.22C540.832 399.784 541.331 400.349 541.831 400.914C542.615 421.333 542.061 458.897 541.854 477.616C542.3 491.666 542.127 506.276 542.144 520.371C537.587 518.778 532.796 517.012 528.227 515.533C525.558 507.664 524.079 499.411 522.67 491.23C521.665 485.236 520.16 478.491 518.95 472.47Z" fill="#4F677C"/>
<path d="M537.053 469.753L541.853 477.617C542.3 491.667 542.127 506.277 542.144 520.372C537.586 518.779 532.795 517.013 528.227 515.534C525.557 507.665 524.078 499.412 522.67 491.231C529.069 484.21 532.318 477.912 537.053 469.753Z" fill="#5B7389"/>
<path d="M713.083 407.883C716.272 409.668 723.849 412.47 727.476 413.448C727.411 419.933 728.618 453.807 726.42 456.952C709.025 446.526 707.84 425.392 713.083 407.883Z" fill="#43596E"/>
<path d="M444.061 365.226C450.542 363.981 454.21 363.344 460.042 359.866L461.488 360.114C462.288 362.064 463.063 364.025 463.813 365.994C462.49 369.807 459.985 370.63 456.336 372.391L455.431 372.821C449.872 374.803 447.716 375.269 441.873 376.319C442.496 372.61 443.3 368.913 444.061 365.226Z" fill="#8EA7BB"/>
<path d="M410.892 425.565L411.805 426.801C414.026 430.548 416.948 432.599 420.58 434.987L422.031 436.113C420.793 439.171 420.98 446.15 421.037 449.649C416.256 447.038 413.701 445.316 409.24 442.141C409.176 438.867 410.489 429.359 410.892 425.565Z" fill="#5A7287"/>
<path d="M820.41 401.926C821.796 400.033 823.147 397.701 824.389 395.686C826.551 398.808 829.639 404.926 830.494 408.581C828.447 410.971 824.877 415.254 822.479 417.014C822.033 414.026 820.058 406.768 819.211 403.642L820.41 401.926Z" fill="#4F677C"/>
<path d="M770.525 968.074L770.453 953.171C773.858 957.696 775.517 960.834 777.614 965.984C778.411 969 779.057 971.535 779.632 974.602C776.975 974.667 773.226 975.191 771.215 973.79C770.137 971.916 770.461 970.293 770.525 968.074Z" fill="#6A8399"/>
<path d="M770.524 968.074L770.452 953.171C773.856 957.696 775.515 960.834 777.613 965.984C775.688 967.894 773.275 968.095 770.524 968.074Z" fill="#7790A5"/>
<path d="M565.229 326.546C568.304 328.078 585.424 339.416 588.398 341.537L575.003 341.745C569.965 336.057 568.332 333.456 565.229 326.546Z" fill="#4F677C"/>
<path d="M861.938 1238.12C856.76 1239.19 821.783 1238.65 814.616 1238.67L684.061 1238.56L479.564 1238.57L415.746 1238.68C409.509 1238.68 389.979 1238.96 384.506 1237.91C383.068 1236.84 381.17 1235.53 380.979 1233.78C380.016 1224.91 378.999 1194.72 382.638 1188.04C387.49 1186.08 498.474 1187.13 510.287 1187.14L769.233 1187.08L828.398 1187.07C837.62 1187.07 847.308 1186.37 856.465 1187.14C859.13 1187.37 862.879 1187.75 864.983 1189.57C867.928 1192.14 866.29 1215.07 866.312 1219.64C866.326 1223.02 866.886 1226.44 866.721 1229.8C866.599 1232.31 865.988 1234.98 863.992 1236.67C862.943 1237.56 863.065 1237.43 861.938 1238.12Z" fill="#5A7287"/>
<path d="M769.232 1187.08L828.397 1187.07C837.619 1187.07 847.307 1186.37 856.464 1187.14C859.129 1187.37 862.878 1187.75 864.982 1189.57C867.927 1192.14 866.289 1215.07 866.311 1219.64C866.325 1223.02 866.885 1226.44 866.72 1229.8C866.598 1232.31 865.988 1234.98 863.991 1236.67C862.943 1237.56 863.065 1237.43 861.937 1238.12C855.947 1237.23 836.412 1237.72 829.13 1237.74L763.831 1237.83C771.185 1220.94 764.054 1193.11 766.309 1187.69L769.232 1187.08Z" fill="#4F677C"/>
<path d="M747.45 151.88C749.885 155.701 751.134 156.341 755.379 157.972C757.972 157.225 758.819 157.4 761.462 157.511C766.073 157.233 768.845 155.406 772.393 152.692C784.516 157.817 790.678 166.882 792.373 179.872C792.108 192.869 786.233 209.225 772.063 212.477C771.991 223.378 772.192 235.638 771.739 246.425C764.773 242.428 764.026 242.495 756.169 242.726C752.901 242.618 749.511 241.895 747.421 244.815C747.967 238.046 747.672 229.721 747.601 222.818C747.687 219.401 748.29 214.221 746.358 211.638C736.461 211.291 729.373 195.509 728.051 186.933C727.29 182.843 728.116 176.38 729.114 172.11C730.773 164.996 738.006 158.078 744.204 154.363C745.899 153.347 746.107 153.506 747.45 151.88Z" fill="#5A7287"/>
<path d="M747.45 151.88C749.885 155.701 751.134 156.341 755.379 157.972C757.972 157.225 758.819 157.4 761.462 157.511C766.073 157.233 768.845 155.406 772.393 152.692C784.516 157.817 790.678 166.882 792.373 179.872C788.933 179.962 785.479 180.217 782.038 180.435C777.657 180.924 770.03 180.517 765.355 180.398C756.075 180.637 746.883 180.947 737.603 180.757C734.644 180.608 731.19 179.949 728.92 181.545C727.929 183.48 728.102 184.76 728.051 186.933C727.29 182.843 728.116 176.38 729.114 172.11C730.773 164.996 738.006 158.078 744.204 154.363C745.899 153.347 746.107 153.506 747.45 151.88Z" fill="#8EA7BB"/>
<path d="M772.392 152.692C784.515 157.817 790.677 166.882 792.372 179.872C788.932 179.962 785.478 180.217 782.037 180.435C777.656 180.924 770.029 180.517 765.354 180.398C774.446 172.643 771.437 170.4 768.801 160.332C766.366 159.357 763.924 158.416 761.461 157.511C766.072 157.233 768.844 155.406 772.392 152.692Z" fill="#5A7287"/>
<path d="M768.802 160.331C777.111 165.02 780.559 171.293 782.038 180.434C777.657 180.923 770.03 180.516 765.354 180.398C774.447 172.642 771.438 170.399 768.802 160.331Z" fill="#7790A5"/>
<path d="M747.45 151.88C749.885 155.701 751.134 156.341 755.379 157.972L750.912 159.96C745.899 162.662 744.326 164.152 740.929 168.76C738.882 172.489 737.496 176.432 737.603 180.757C734.644 180.608 731.19 179.949 728.92 181.545C727.929 183.48 728.102 184.76 728.051 186.933C727.29 182.843 728.116 176.38 729.114 172.11C730.773 164.996 738.006 158.078 744.204 154.363C745.899 153.347 746.107 153.506 747.45 151.88Z" fill="#7790A5"/>
<path d="M750.911 159.96C754.925 162.568 758.409 166.674 754.279 171.774C749.525 177.647 744.605 173.864 740.928 168.759C744.325 164.151 745.898 162.662 750.911 159.96Z" fill="#AFC6D6"/>
<path d="M746.357 211.639C749.295 206.302 769.519 204.513 772.062 212.477C771.99 223.378 772.191 235.638 771.739 246.425C764.772 242.428 764.025 242.495 756.168 242.726C752.9 242.618 749.51 241.896 747.42 244.815C747.966 238.046 747.672 229.721 747.6 222.818C747.686 219.401 748.289 214.221 746.357 211.639Z" fill="#4F677C"/>
<path d="M746.357 211.639C749.295 206.302 769.519 204.513 772.062 212.477C770.992 216.17 771.214 218.799 771.193 222.629L759.723 222.549L747.6 222.818C747.686 219.401 748.289 214.221 746.357 211.639Z" fill="#43596E"/>
<path d="M747.599 222.818L759.723 222.549C759.945 227.182 760.994 238.34 758.933 241.869L756.168 242.726C752.9 242.618 749.51 241.896 747.42 244.815C747.966 238.046 747.671 229.721 747.599 222.818Z" fill="#7790A5"/>
<path d="M761.907 49.3633C764.126 60.3927 777.664 118.922 777.154 124.226L770.288 133.892C770.36 137.403 770.338 143.049 770.69 146.35C766.546 145.485 764.155 145.633 759.996 145.666C756.499 146.137 753.001 146.582 749.503 147.002C750.107 142.609 749.884 138.743 749.805 134.322C747.313 130.414 744.871 127.98 742.544 123.678C748.555 100.594 754.042 74.1778 758.933 50.7666L760.542 52.6842L761.907 49.3633Z" fill="#6A8399"/>
<path d="M758.933 50.7676L760.542 52.6852C759.975 76.3017 759.687 99.924 759.673 123.547C754.437 123.376 747.557 122.983 742.544 123.678C748.555 100.595 754.042 74.1787 758.933 50.7676Z" fill="#829CB1"/>
<path d="M759.371 123.869C765.303 123.847 771.243 123.724 777.154 124.227L770.288 133.892C770.36 137.404 770.338 143.05 770.69 146.351C766.546 145.486 764.154 145.634 759.996 145.667C759.903 138.398 759.694 131.131 759.371 123.869Z" fill="#4F677C"/>
<path d="M828.928 1143.52C835.586 1145.06 840.347 1150.41 842.603 1156.69C842.409 1163.41 842.538 1164.23 838.473 1169.85L794.059 1169.92C787.179 1169.92 776.938 1170.21 770.287 1169.76C773.663 1169.33 775.228 1170.02 778.482 1168.56C779.566 1165.69 777.289 1164.69 776.686 1161.62C776.205 1159.21 776.37 1156.59 776.442 1154.16C778.194 1149.37 780.371 1145.65 785.506 1144.2C793.456 1144.05 806.535 1143.44 813.903 1144.07C817.746 1143.41 824.547 1143.75 828.928 1143.52Z" fill="#4F677C"/>
<path d="M785.506 1144.2C793.457 1144.05 806.535 1143.44 813.904 1144.07C832.146 1161.56 788.4 1155.54 781.865 1156.24C778.518 1156.44 778.159 1156.76 776.442 1154.16C778.195 1149.37 780.371 1145.65 785.506 1144.2Z" fill="#829CB1"/>
<path d="M828.928 1143.52C835.585 1145.06 840.347 1150.41 842.602 1156.69C831.391 1156.99 819.57 1156.85 808.308 1157.01C801.665 1157.1 788.034 1157.4 781.864 1156.24C788.4 1155.54 832.145 1161.56 813.903 1144.07C817.745 1143.41 824.547 1143.75 828.928 1143.52Z" fill="#7790A5"/>
<path d="M759.995 145.666C764.154 145.633 766.545 145.485 770.689 146.35C772.592 149.085 772.793 149.161 772.391 152.692C768.843 155.406 766.071 157.233 761.46 157.511C758.817 157.4 757.97 157.225 755.377 157.972C751.133 156.341 749.883 155.701 747.448 151.88C747.973 148.211 747.247 149.75 749.502 147.003C753 146.582 756.498 146.137 759.995 145.666Z" fill="#4F677C"/>
<path d="M758.933 50.7672C759.342 48.1609 759.392 46.7151 760.642 44.3623C761.877 45.7506 761.612 47.1001 761.906 49.3638L760.541 52.6848L758.933 50.7672Z" fill="#7790A5"/>
</g>
<defs>
<clipPath id="clip0_242_2569">
<rect width="1254" height="1254" fill="white"/>
</clipPath>
</defs>
</svg>
