<svg width="1254" height="1254" viewBox="0 0 1254 1254" fill="none" xmlns="http://www.w3.org/2000/svg">
<path d="M602.966 73.5594C607.723 60.7419 618.719 53.9939 632.191 59.0348C637.516 61.0577 641.778 65.1555 644.017 70.3867C644.715 71.9841 645.235 73.6734 645.741 75.3414C646.24 78.5297 645.67 77.9046 647.488 80.0273L648.963 80.0579C650.631 78.0072 650.04 79.1612 650.531 76.3457C654.174 63.633 663.191 57.8672 676.356 60.0619C683.242 61.2459 689.364 65.1584 693.335 70.9149C697.383 76.8112 698.745 83.2441 698.431 90.3571C698.203 95.604 694.062 101.631 693.171 106.307C690.804 118.71 688.695 131.49 686.513 143.925C709.886 163.57 716.8 176.113 725.275 204.706C740.857 205.36 756.617 207.022 772.042 209.306C796.747 212.963 877.378 229.731 891.292 249.429C894.4 253.821 896.225 258.948 897.066 264.233C898.684 274.369 897.843 285.602 897.828 295.894L897.6 353.808C897.33 498.108 885.832 642.133 826.656 775.639C815.194 801.706 802.1 827.032 787.459 851.452C780.688 862.835 769.404 879.23 763.395 890.435C761.357 894.241 758.805 916.26 757.622 922.625C775.128 941.371 781.308 955.748 784.123 980.803C813.633 982.336 844.319 970.852 840.862 1015.43C839.515 1032.82 845.431 1041.84 826.585 1052.06C826.613 1052.66 826.635 1053.26 826.656 1053.85C826.948 1063.46 825.33 1066.05 819.072 1072.65C818.366 1082.91 817.995 1113.77 818.765 1123.81C832.757 1132.13 837.155 1139.86 836.863 1156.16C867.891 1157.71 862.424 1180.38 863.18 1203.29C863.55 1214.55 861.184 1232.51 846.529 1233.93C828.31 1235.7 808.43 1234.9 789.961 1234.9L679.877 1234.87L493.503 1234.89L431.876 1234.94C421.477 1234.94 410.253 1235.42 399.994 1234.81C376.479 1233.4 377.947 1211.13 378.146 1194.31C378.42 1171.16 377.164 1158.99 403.752 1155.94C402.882 1141.12 408.306 1130.76 421.426 1123.73C422.058 1107.74 421.74 1088.59 421.489 1072.58C420.853 1071.94 420.232 1071.28 419.623 1070.62C413.73 1064.09 413.938 1060.31 414.274 1052.13C401.884 1045.87 398.826 1039.95 398.964 1025.91C398.616 1013.42 396.672 985.529 413.705 982.05C425.217 979.705 448.086 980.931 460.329 980.953C462.28 954.665 470.816 940.53 488.095 921.712C485.194 894.006 480.493 865.152 476.501 837.467C475.103 831.416 471.697 825.585 469.39 819.847C463.529 805.27 463.456 788.976 466.229 773.708C467.189 768.426 469.777 760.578 469.737 755.403C469.658 744.904 467.882 732.743 466.742 722.308C460.19 718.922 454.137 715.052 450.49 708.409C439.629 688.614 455.214 602.221 461.795 577.635C457.147 576.639 451.858 575.636 447.395 574.186C429.437 568.426 414.571 555.648 406.178 538.759C398.134 522.635 397.036 501.677 402.008 484.334C403.485 479.18 408.288 470.592 409.242 465.975C412.633 449.563 415.851 435.425 421.172 419.489C420.608 417.421 420.092 415.34 419.624 413.248C417.294 402.356 418.364 394.446 424.595 385.453C425.38 384.322 428.38 369.629 429.317 366.524C431.453 359.516 434.399 352.782 438.094 346.456C453.298 320.212 472.782 308.66 500.982 301.171C506.784 290.617 510.415 287.606 521.146 282.753C521.24 273.489 521.216 265.486 520.705 256.297C520.23 247.754 517.86 233.299 519.136 225.234C524.73 189.895 534.121 166.36 561.924 143.7C559.736 132.724 558.292 121.5 556.065 110.539C554.656 103.607 551.032 96.5449 550.381 89.3478C549.993 84.5664 550.499 78.8198 552.698 74.4746C558.915 62.1839 575.912 55.9762 588.255 62.7762C594.274 66.0921 596.631 71.0332 598.495 77.2417L598.989 77.8704L600.261 77.9146C602.178 76.3193 602.099 75.8909 602.966 73.5594Z" fill="#96ACBC"/>
<path d="M503.884 317.442L512.585 315.54C516.471 315.69 522.058 315.697 524.856 318.758L525.184 318.559C528.455 320.422 530.159 321.434 533.135 323.709L534.43 325.517C530.733 330.061 530.132 330.717 529.221 336.393L526.964 334.9C524.186 332.354 522.468 331.735 519.007 330.329C513.901 330.132 512.355 330.244 507.322 330.943C508.713 330.044 508.814 330.018 509.937 328.822C510.435 325.452 511.56 320.72 510.593 317.673C508.048 317.452 506.443 317.419 503.884 317.442Z" fill="#506779"/>
<path d="M525.184 318.56C528.454 320.423 530.159 321.435 533.134 323.71L534.43 325.518C530.732 330.062 530.131 330.718 529.221 336.394L526.964 334.901C524.186 332.355 522.467 331.736 519.007 330.33C522.006 326.432 523.48 323.445 524.856 318.759L525.184 318.56Z" fill="#7991A2"/>
<path d="M579.316 151.698C605.609 138.28 622.847 133.272 652.228 143.257C658.28 145.314 663.733 148.165 669.071 151.701C669.114 151.716 669.157 151.731 669.2 151.746C686.179 160.1 700.52 179.863 706.294 197.628C708.888 205.606 709.893 213.459 712.153 220.418C761.97 223.039 807.639 229.216 854.583 247.232C884.371 258.666 881.606 257.961 881.698 290.044L881.741 325.479C882.112 376.414 880.743 427.347 877.621 478.188C868.882 609.196 840.192 734.498 771.422 847.148C764.066 859.195 755.861 870.321 748.755 882.353C746.431 886.644 741.662 922.484 741.149 928.763C756.902 943.924 767.459 959.813 767.872 982.43C767.908 985.031 767.922 987.626 767.908 990.228L753.987 990.448C731.113 990.498 703.435 991.325 680.932 990.327C674.881 989.579 665.13 989.957 658.757 990.028C647.609 990.306 635.549 990.085 624.322 990.092C626.468 986.236 628.456 980.804 630.139 976.599C625.021 976.699 621.656 976.87 616.581 976.114L614.186 976.186C616.047 981.539 617.472 985.124 620.359 990.085C610.166 990.114 596.299 990.555 586.405 989.964C587.704 984.76 587.206 981.125 586.717 975.907C562.633 975.622 531.963 977.005 508.596 975.858C504.775 975.907 500.954 975.929 497.133 975.915C494.743 976.064 494.606 976.178 492.199 975.594L491.331 973.926C490.156 979.806 489.594 984.432 489.759 990.391L476.139 990.819C476.119 988.966 476.12 987.12 476.144 985.266C476.526 959.52 486.805 945.272 504.419 928.1C501.761 896.744 496.035 864.063 492.005 832.764C490.954 826.67 487.254 821.424 484.705 815.871C478.807 803.026 478.505 787.252 482.421 773.802C483.473 770.188 486.069 762.326 485.97 758.833C485.513 742.588 482.812 724.818 481.478 708.667C478.998 708.431 476.412 708.125 474.015 707.441C469.808 706.229 466.194 703.648 464.306 699.628C458.476 687.226 470.389 601.583 476.077 585.605C478.805 574.819 481.445 569.642 486.317 559.811C440.408 568.451 404.675 535.72 417.702 488.06C419.11 482.906 423.887 476.509 424.754 471.252C427.858 452.426 432.418 435.476 439.038 417.605C429.236 405.644 435.041 401.145 439.888 389.431C441.423 384.6 442.315 379.283 443.548 374.394C450.174 348.106 476.137 320.846 503.883 317.444C506.442 317.421 508.048 317.454 510.593 317.674C511.56 320.722 510.435 325.454 509.937 328.824C508.814 330.02 508.713 330.046 507.321 330.944C512.355 330.245 513.901 330.134 519.007 330.331C522.467 331.736 524.186 332.356 526.964 334.902L529.221 336.395C530.131 330.719 530.732 330.063 534.43 325.519L533.134 323.711C536.293 320.737 536.455 319.158 541.205 315.363L537.435 310.684C536.592 304.908 536.645 301.832 536.679 295.929C538.061 282.976 536.51 261.634 536.495 248.066C536.323 243.013 533.635 235.468 534.272 230.552C537.749 203.725 549.423 169.021 574.502 155.078C575.256 153.992 578.008 152.517 579.316 151.698Z" fill="#374B5B"/>
<path d="M668.745 435.597C673.42 438.064 676.272 439.763 679.85 443.861C676.763 451.169 675.359 454.484 669.593 460.245C664.96 464.182 662.757 465.742 656.762 467.834C654.082 463.43 652.193 460.453 647.853 457.637C653.134 456.236 655.351 455.107 659.557 451.65C661.645 449.611 662.942 447.678 664.646 445.351C666.706 441.444 667.347 439.65 668.745 435.597Z" fill="#4B6273"/>
<path d="M476.077 585.603C477.786 583.415 478.132 583.026 478.485 580.282C482.225 578.061 486.255 581.448 488.917 583.951C489.249 586.263 489.089 586.036 488.778 588.418C484.864 606.59 478.424 632.253 479.004 650.971C483.616 653.787 485.169 653.943 490.611 653.751L491.052 653.908C509.27 653.53 530.854 644.82 541.481 629.188C543.304 626.508 548.417 618.297 548.445 615.424C545.558 615.517 544.503 615.524 541.716 614.847C552.359 614.227 565.589 608.873 576.774 605.895C577.682 603.102 577.361 594.015 577.313 590.815L586.109 589.334C588.936 594.051 590.795 596.886 591.106 602.562C596.754 601.827 611.742 598.767 616.219 602.449C617.074 603.152 617.53 606.303 617.673 607.59C618.079 605.761 618.264 604.404 618.521 602.561C621.629 601.135 638.729 600.912 642.606 601.695C646.491 601.87 649.748 601.721 653.355 603.102C653.975 604.36 654.068 604.348 654.396 605.687L652.785 770.485C652.621 807.544 652.229 844.595 651.623 881.646C651.445 894.12 651.652 906.743 651.374 919.21C651.181 927.55 646.505 937.108 643.283 944.913L630.139 976.597C625.022 976.697 621.657 976.868 616.582 976.112L614.187 976.184C616.047 981.537 617.473 985.122 620.36 990.083C610.167 990.112 596.3 990.554 586.406 989.962C587.705 984.759 587.206 981.123 586.717 975.906C562.633 975.621 531.964 977.003 508.597 975.856C504.776 975.906 500.955 975.927 497.133 975.913C494.744 976.063 494.606 976.177 492.199 975.592L491.332 973.924C490.157 979.805 489.595 984.431 489.759 990.39L476.14 990.817C476.119 988.964 476.121 987.118 476.145 985.265C476.527 959.519 486.806 945.27 504.42 928.098C501.761 896.743 496.036 864.061 492.006 832.762C490.955 826.668 487.255 821.422 484.706 815.869C478.808 803.024 478.506 787.25 482.421 773.8C483.474 770.186 486.069 762.324 485.971 758.831C485.513 742.587 482.813 724.817 481.479 708.665C478.998 708.429 476.413 708.123 474.016 707.439C469.809 706.227 466.194 703.647 464.306 699.626C458.476 687.224 470.389 601.582 476.077 585.603Z" fill="#2E4151"/>
<path d="M617.672 607.591C618.078 605.761 618.263 604.404 618.52 602.561C621.628 601.136 638.728 600.912 642.605 601.695C646.49 601.87 649.747 601.722 653.354 603.102C653.974 604.36 654.067 604.348 654.395 605.687L652.784 770.486C652.62 807.544 652.228 844.595 651.622 881.646C651.444 894.12 651.651 906.743 651.373 919.21C651.18 927.55 646.504 937.108 643.282 944.914L630.138 976.597C625.021 976.697 621.656 976.868 616.581 976.113C619.097 976.041 619.603 976.105 622.084 975.314C622.818 971.009 622.732 928.569 621.884 923.309C616.581 910.079 618.541 852.029 618.449 834.994L617.885 688.628C617.771 666.817 618.413 639.025 617.351 617.62C617.223 613.778 617.03 611.44 617.672 607.591Z" fill="#7991A2"/>
<path d="M617.673 607.591C618.079 605.761 618.264 604.404 618.521 602.561C621.629 601.136 638.729 600.912 642.606 601.695C635.913 602.037 634.245 602.009 629.17 606.992C627.431 631.861 628.008 655.783 627.716 680.681L626.996 831.315C626.896 857.81 628.13 884.747 626.255 911.248C625.998 914.912 624.715 920.757 621.885 923.309C616.582 910.079 618.542 852.029 618.45 834.994L617.887 688.628C617.773 666.817 618.414 639.025 617.352 617.62C617.224 613.778 617.031 611.44 617.673 607.591Z" fill="#647C8E"/>
<path d="M591.104 602.563C596.752 601.828 611.74 598.768 616.217 602.45C617.072 603.153 617.528 606.304 617.671 607.591C617.029 611.441 617.222 613.779 617.35 617.62C618.412 639.026 617.771 666.818 617.885 688.629L618.448 834.994C618.54 852.03 616.58 910.08 621.883 923.31C622.732 928.57 622.817 971.01 622.083 975.315C619.603 976.106 619.096 976.042 616.58 976.113L614.185 976.185C609.759 964.445 594.348 933.467 593.582 923.26C592.09 903.387 593.332 872.452 592.923 851.888C591.913 776.837 591.29 701.794 591.053 626.737C590.66 619.096 590.956 610.279 591.104 602.563Z" fill="#9AB0BF"/>
<path d="M591.104 602.563C596.752 601.828 611.74 598.768 616.217 602.45C617.072 603.153 617.528 606.304 617.671 607.591C617.029 611.441 617.222 613.779 617.35 617.62C606.272 613.059 602.854 610.721 591.701 616.509C591.564 619.281 591.471 624.157 591.053 626.737C590.66 619.096 590.956 610.279 591.104 602.563Z" fill="#88A0B1"/>
<path d="M541.716 614.848C552.359 614.227 565.589 608.874 576.773 605.896C576.546 612.552 577.381 620.4 576.757 626.637C572.818 666.055 525.813 691.844 490.307 693.119C486.879 684.288 488.808 663.054 491.051 653.909C509.27 653.531 530.854 644.821 541.481 629.189C543.303 626.509 548.416 618.297 548.444 615.425C545.557 615.518 544.502 615.525 541.716 614.848Z" fill="#506779"/>
<path d="M536.668 930.272C553.149 927.165 572.246 940.786 580.116 954.607C584.516 962.17 585.868 967.359 586.717 975.906C562.634 975.62 531.964 977.003 508.597 975.856C504.776 975.906 500.955 975.927 497.133 975.913C494.744 976.062 494.607 976.176 492.199 975.592L491.332 973.924C496.724 952.262 513.871 933.266 536.668 930.272Z" fill="#7991A2"/>
<path d="M538.366 941.991C555.597 943.681 560.653 948.528 571.939 960.659C575.01 958.806 577.75 957.288 580.115 954.608C584.515 962.17 585.867 967.36 586.717 975.906C562.633 975.621 531.963 977.004 508.596 975.856C513.637 974.473 527.778 974.872 533.583 974.901C533.209 963.004 536.968 953.695 538.366 941.991Z" fill="#647C8E"/>
<path d="M491.332 973.924C496.724 952.262 513.871 933.266 536.668 930.272C540.125 930.472 540.228 929.852 542.058 931.662C542.582 934.342 540.016 938.676 538.787 941.798C531.705 943.366 525.324 945.17 519.37 949.732C515.376 952.79 511.069 957.444 507.334 960.944C507.406 960.88 503.842 961.764 503.321 961.906C504.267 962.227 504.927 962.419 505.88 962.683C504.843 965.42 502.365 973.354 500.883 974.844L497.133 975.913C494.744 976.062 494.607 976.176 492.199 975.592L491.332 973.924Z" fill="#88A0B1"/>
<path d="M479.003 650.972C483.615 653.787 485.168 653.944 490.61 653.752L491.051 653.908C488.807 663.054 486.879 684.288 490.306 693.119C485.835 693.668 478.919 694.858 477.307 689.826C474.279 680.374 478.027 660.758 479.003 650.972Z" fill="#6D8697"/>
<path d="M537.548 742.559C553.038 744.768 567.702 755.695 578.096 766.893L578.18 776.473C578.111 789.09 578.123 801.706 578.217 814.33C570.572 825.207 549.904 838.173 536.155 837.581C529.938 836.07 522.387 832.984 517.421 828.921C508.796 823.632 500.77 816.183 496.995 806.617C494.667 801.4 494.386 796.517 493.969 790.922C494.895 767.884 514.919 745.745 537.548 742.559Z" fill="#506779"/>
<path d="M493.969 790.922C494.895 767.884 514.919 745.745 537.548 742.559C537.658 748.047 537.634 751.076 536.756 756.43C535.87 767.927 535.796 780.636 535.428 792.276C535.694 801.136 536.218 809.975 536.999 818.799C537.382 823.126 540.045 835.671 536.155 837.581C529.938 836.07 522.387 832.984 517.421 828.921C508.796 823.632 500.77 816.183 496.995 806.617C494.667 801.4 494.386 796.517 493.969 790.922Z" fill="#7991A2"/>
<path d="M504.398 791.235C514.301 795.206 525.281 795.569 535.428 792.276C535.694 801.136 536.218 809.975 537 818.799C537.382 823.126 540.045 835.671 536.155 837.581C529.938 836.07 522.387 832.984 517.421 828.921C518.448 825.221 505.624 803.103 504.398 791.235Z" fill="#647C8E"/>
<path d="M493.969 790.922C494.895 767.884 514.919 745.745 537.548 742.559C537.658 748.047 537.634 751.076 536.756 756.43C523.241 760.721 507.865 772.496 504.448 786.845C501.963 789.068 498.227 793.003 495.406 793.923C494.399 792.575 494.476 792.547 493.969 790.922Z" fill="#A7BBCA"/>
<path d="M493.969 790.922C494.476 792.547 494.399 792.576 495.406 793.923C498.227 793.003 501.963 789.069 504.448 786.845C505.004 793.288 498.718 798.15 497.667 804.928C497.563 805.613 497.326 805.955 496.995 806.618C494.667 801.4 494.386 796.517 493.969 790.922Z" fill="#88A0B1"/>
<path d="M537.548 742.559C553.038 744.768 567.702 755.695 578.096 766.893L578.18 776.473L577.563 777.172C576.855 777.436 573.6 778.605 572.98 778.07C562.427 768.953 551.052 758.703 536.756 756.43C537.633 751.076 537.658 748.047 537.548 742.559Z" fill="#7991A2"/>
<path d="M577.993 834.738C579.049 855.566 578.78 875.71 578.796 896.523C578.805 908.149 578.419 921.051 579.667 932.441C567.131 922.505 557.116 915.462 540.345 915.263C531.764 915.847 525.713 917.971 518.358 922.127C513.487 895.219 510.487 864.683 506.567 837.44C516.503 845.131 521.709 848.31 533.728 851.924C551.506 852.515 563.797 845.181 577.993 834.738Z" fill="#4B6273"/>
<path d="M506.567 837.438C516.503 845.13 521.709 848.309 533.728 851.922C535.204 852.5 538.343 853.156 538.424 854.802C538.867 863.876 543.705 910.108 540.345 915.261C531.764 915.846 525.713 917.97 518.358 922.126C513.487 895.218 510.487 864.681 506.567 837.438Z" fill="#506779"/>
<path d="M534.096 697.539C546.662 691.836 552.74 688.258 563.651 679.84C569.977 682.969 572.349 683.988 577.293 689.284C578.006 708.715 578.223 728.153 577.945 747.591C565.113 738.082 553.36 728.402 536.675 728.424C537.353 724.04 536.819 700.19 534.096 697.539Z" fill="#506779"/>
<path d="M534.096 697.539C536.819 700.191 537.353 724.041 536.675 728.424C521.958 729.287 509.233 739.587 499.397 749.637C497.149 735.11 495.4 722.494 495.196 707.818C509.901 705.494 520.163 703.042 534.096 697.539Z" fill="#546C7E"/>
<path d="M536.678 295.928C538.06 282.975 536.509 261.634 536.494 248.065C536.323 243.012 533.634 235.467 534.271 230.551C537.748 203.724 549.422 169.02 574.501 155.077C573.31 156.924 572.7 157.619 571.164 159.09C570.521 162.543 575.08 168.084 578.931 168.574C563.279 181.59 556.611 195.168 551.973 214.62C550.939 218.956 548.549 222.71 546.779 226.817C548.182 232.668 549.58 231.919 555.187 233.631C556.216 227.786 562.075 226.091 562.177 221.208C582.36 227.636 602.633 233.778 622.989 239.63C633.068 238.321 674.125 223.924 685.187 219.8C687.29 223.289 691.082 229.008 691.98 232.652L691.695 233.053C692.65 237.053 692.329 240.777 691.823 244.852L690.868 245.638C684.916 249.183 682.578 249.215 681.53 256.395C681.167 267.919 679.584 309.192 681.274 318.333C681.509 322.574 681.837 325.811 681.146 330.051C683.662 330.24 685.672 329.723 687.14 331.934C675.016 341.616 635.762 363.195 621.028 361.075C593.62 357.132 559.321 335.69 541.204 315.363L537.434 310.683C536.591 304.907 536.644 301.831 536.678 295.928Z" fill="#394D5D"/>
<path d="M691.695 233.053C692.651 237.052 692.33 240.777 691.824 244.852L690.869 245.638C684.917 249.183 682.579 249.214 681.531 256.395C681.168 267.918 679.585 309.191 681.274 318.332C681.51 322.573 681.838 325.811 681.146 330.051C680.761 328.356 680.975 328.502 680.134 327.091L679.464 327.11C678.552 327.759 677.147 329.952 676.114 330.957C671.823 334.739 670.561 327.093 665.279 327.286C658.714 327.928 655.778 337.464 650.125 339.258C646.469 340.417 640.923 339.951 636.832 340.516C632.377 341.13 627.095 342.935 623.937 339.623C623.06 336.429 622.975 321.26 624.607 318.219C626.182 315.268 629.875 313.982 630.595 308.497C631.45 302.021 626.738 299.564 629.162 293.457C631.108 288.507 637.502 284.972 637.402 279.187C637.266 270.733 626.211 269.392 626.183 260.586C627.487 259.928 628.77 259.247 630.046 258.544C631.429 256.694 631.193 255.57 631.265 253.223L631.286 252.315C647.281 247.831 665.571 241.904 681.289 236.59L691.695 233.053Z" fill="#2E4151"/>
<path d="M691.695 233.053C692.65 237.052 692.329 240.777 691.823 244.852L690.868 245.638C684.916 249.183 682.578 249.214 681.53 256.395C681.595 249.792 681.516 243.189 681.288 236.59L691.695 233.053Z" fill="#506779"/>
<path d="M685.188 219.799C687.29 223.289 691.082 229.007 691.981 232.651L691.696 233.053L681.289 236.589C665.572 241.904 647.281 247.831 631.286 252.314C629.426 252.873 625.028 254.257 623.417 253.976C605.435 250.836 582.542 242.84 565.171 237.195L556.297 234.129L555.188 233.631C556.217 227.786 562.076 226.091 562.178 221.207C582.361 227.635 602.634 233.777 622.989 239.629C633.068 238.32 674.125 223.923 685.188 219.799Z" fill="#A7BBCA"/>
<path d="M550.157 243.728L556.332 247.269L564.76 251.87C565.748 270.822 565.906 300.462 565.36 319.287C558.782 314.316 556.024 311.792 551.012 305.267C550.931 284.752 550.646 264.237 550.157 243.728Z" fill="#93AABB"/>
<path d="M556.297 234.13L565.17 237.196C564.973 242.085 564.835 246.978 564.758 251.871L556.331 247.27C555.699 243.393 554.239 237.416 556.297 234.13Z" fill="#506779"/>
<path d="M550.157 243.728C547.355 239.224 546.563 232.043 546.78 226.817C548.184 232.668 549.581 231.92 555.188 233.632L556.298 234.13C554.24 237.416 555.7 243.393 556.332 247.27L550.157 243.728Z" fill="#6D8697"/>
<path d="M719.716 320.379C721.762 322.783 722.838 328.967 723.7 332.34L724.178 332.458C728.212 329.883 730.885 328.501 735.597 327.647C768.742 333.403 786.982 347.338 796.641 380.532L797.439 379.588C798.359 382.14 797.738 383.536 798.986 385.864C801.78 391.084 809.286 396.161 805.536 403.048C799.791 413.593 795.593 408.847 799.677 421.759L798.644 421.921L797.895 422.47C793.996 425.28 790.746 425.569 789.064 428.116C788.558 433.403 793.711 451.21 795.072 457.83C782.755 450.813 773.767 448.134 759.754 447.131C756.574 447.108 752.611 446.735 749.81 447.894C749.489 452.234 751.713 455.59 751.214 458.908C748.998 459.612 741.613 457.531 738.683 457.117C740.758 462.114 741.363 463.976 742.597 469.24L741.47 469.618C731.199 467.566 690.577 448.258 680.248 442.917L679.849 443.861C676.271 439.763 673.42 438.064 668.744 435.597L669.157 434.435C669.549 431.389 669.499 428.154 669.549 425.068L668.951 423.187C670.761 417.223 675.373 415.853 680.975 415.042C672.386 404.117 662.92 397.317 650.204 391.915C660.255 387.084 669.393 381.567 678.666 375.422C682.18 373.096 687.312 368.027 689.607 366.729L690.42 367.689C690.919 366.808 697.006 345.021 698.083 341.821C705.973 333.178 710.984 327.885 719.716 320.379Z" fill="#2E4151"/>
<path d="M735.596 327.646C768.741 333.402 786.982 347.337 796.64 380.532C797.374 390.69 805.793 393.293 804.837 400.273L803.789 400.448C782.128 400.54 770.901 401.913 750.009 408.643C740.586 411.014 728.319 417.564 718.732 417.915C703.514 418.472 702.309 391.274 702.879 381.326C703.948 362.732 709.9 344.957 723.7 332.339L724.177 332.457C728.212 329.882 730.885 328.5 735.596 327.646Z" fill="#849CAD"/>
<path d="M735.597 327.646C768.742 333.402 786.982 347.337 796.64 380.532C797.375 390.69 805.793 393.293 804.838 400.273L803.79 400.448C799.363 399.557 796.291 400.69 793.119 396.36C790.974 393.436 788.515 391.025 785.956 388.466C773.56 331.008 728.405 343.753 724.178 332.457C728.212 329.882 730.885 328.5 735.597 327.646Z" fill="#A7BBCA"/>
<path d="M785.008 415.636C788.907 415.282 792.407 414.908 796.341 414.977C796.919 417.1 797.532 420.185 798.644 421.92L797.895 422.469C793.996 425.28 790.746 425.568 789.064 428.115C788.558 433.403 793.711 451.209 795.073 457.83C782.755 450.813 773.767 448.133 759.754 447.131C758.093 444.146 756.517 439.479 755.27 436.181C753.809 431.649 752.426 427.944 753.281 423.142C763.731 419.323 774.031 417.15 785.008 415.636Z" fill="#88A0B1"/>
<path d="M753.281 423.141C763.731 419.322 774.031 417.149 785.008 415.635C785.799 420.067 786.462 422.497 787.731 426.773C776.255 427.578 764.572 428.697 755.27 436.18C753.809 431.648 752.426 427.943 753.281 423.141Z" fill="#7991A2"/>
<path d="M650.204 391.914C660.255 387.084 669.393 381.567 678.666 375.421C682.18 373.095 687.312 368.027 689.607 366.729L690.42 367.688C687.997 383.136 687.811 392.252 691.247 407.654C689.329 412.98 686.45 413.081 682.387 416.667L680.975 415.041C672.386 404.116 662.92 397.317 650.204 391.914Z" fill="#647C8E"/>
<path d="M682.259 431.547C702.531 441.55 718.163 448.156 738.684 457.116C740.758 462.113 741.364 463.975 742.597 469.239L741.471 469.617C731.2 467.565 690.577 448.257 680.249 442.916C681.261 439.805 681.66 435.047 682.259 431.547Z" fill="#A7BBCA"/>
<path d="M730.244 430.864C738.071 428.068 745.291 425.482 753.282 423.142C752.426 427.944 753.809 431.648 755.27 436.18C756.518 439.479 758.093 444.146 759.754 447.13C756.575 447.107 752.612 446.734 749.81 447.893C748.021 447.339 735.761 440.804 732.19 439.2L730.244 430.864Z" fill="#6D8697"/>
<path d="M669.549 425.067C672.393 426.479 679.955 431.321 682.258 431.547C681.659 435.047 681.26 439.806 680.248 442.916L679.848 443.861C676.27 439.763 673.419 438.064 668.743 435.597L669.157 434.435C669.549 431.388 669.499 428.154 669.549 425.067Z" fill="#506779"/>
<path d="M691.247 407.655C693.007 414.572 694.034 417.047 698.047 423.213C696.179 422.404 683.121 417.142 682.387 416.668C686.45 413.082 689.329 412.981 691.247 407.655Z" fill="#4B6273"/>
<path d="M652.783 770.486C656.483 769.01 663.554 765.81 667.26 766.787L667.167 767.898C665.592 772.247 666.547 806.974 666.504 814.337C674.844 823.069 696.264 840.261 709.208 837.553C715.352 836.056 719.394 834.801 724.583 831.088C732.017 827.353 737.877 821.201 743.779 815.535C742.93 821.836 743.244 833.24 739.637 838.479C736.95 838.237 723.414 847.682 719.429 849.442C716.001 851.887 707.654 853.256 707.44 855.686C705.865 873.321 702.657 896.137 703.349 913.587C705.152 914.92 706.742 914.969 708.966 915.383C716.122 916.666 720.805 917.899 727.113 922.104C728.411 926.296 727.605 933.31 729.758 936.966C731.362 939.682 733.692 939.518 735.646 943.681C745.653 956.718 749.231 957.381 752.845 975.115C754.813 981.266 754.449 984.16 753.986 990.447C731.112 990.497 703.434 991.324 680.931 990.326C674.88 989.578 665.129 989.955 658.756 990.027C647.608 990.305 635.548 990.084 624.321 990.091C626.467 986.235 628.455 980.803 630.138 976.598L643.282 944.914C646.503 937.109 651.179 927.55 651.372 919.211C651.65 906.744 651.443 894.12 651.621 881.646C652.227 844.595 652.619 807.544 652.783 770.486Z" fill="#2E4151"/>
<path d="M709.601 930.267C721.811 933.061 725.653 936.347 735.647 943.681C745.654 956.718 749.233 957.381 752.846 975.116C754.814 981.267 754.45 984.161 753.987 990.448C731.113 990.498 703.436 991.325 680.933 990.327C674.881 989.578 665.13 989.956 658.758 990.027C658.636 985.287 658.579 980.547 658.587 975.8C659.178 966.826 661.652 959.42 666.363 951.829C668.929 956.604 669.428 957.524 673.128 961.494C681.809 948.764 688.346 945.413 702.944 941.8C703.799 941.457 704.925 941.514 705.938 941.45C704.897 938.492 702.915 934.337 703.778 931.635C706.009 929.753 705.859 930.402 709.601 930.267Z" fill="#4B6273"/>
<path d="M709.601 930.267C721.811 933.061 725.653 936.347 735.646 943.681C745.654 956.718 749.232 957.381 752.846 975.116L751.948 975.301C749.04 976.477 745.305 976.057 742.04 975.992L737.286 975.893C731.305 974.674 716.401 975.073 709.815 975.116C709.366 965.7 707.655 954.102 705.673 944.793C705.174 942.441 704.939 942.869 702.943 941.8C703.799 941.457 704.925 941.514 705.937 941.45C704.896 938.492 702.915 934.337 703.777 931.635C706.008 929.753 705.859 930.402 709.601 930.267Z" fill="#6D8697"/>
<path d="M709.602 930.267C721.812 933.061 725.654 936.347 735.647 943.681C745.655 956.718 749.233 957.381 752.847 975.116L751.949 975.301C749.041 976.477 745.306 976.057 742.041 975.992C741.065 974.745 739.055 966.505 738.092 963.725C725.248 948.122 724.057 947.873 705.938 941.45C704.897 938.492 702.916 934.337 703.778 931.635C706.009 929.753 705.86 930.402 709.602 930.267Z" fill="#88A0B1"/>
<path d="M738.092 963.725C748.299 968.115 742.49 976.313 751.948 975.3C749.04 976.476 745.305 976.056 742.041 975.992C741.064 974.744 739.054 966.505 738.092 963.725Z" fill="#7991A2"/>
<path d="M702.943 941.799C704.939 942.868 705.174 942.44 705.673 944.793C707.655 954.102 709.365 965.699 709.814 975.115C716.401 975.072 731.305 974.673 737.286 975.892C728.96 976.341 716.921 975.913 708.139 975.892L658.586 975.799C659.178 966.825 661.651 959.419 666.363 951.828C668.929 956.604 669.428 957.523 673.127 961.493C681.809 948.763 688.345 945.413 702.943 941.799Z" fill="#647C8E"/>
<path d="M664.866 932.682C666.499 924.492 666.128 905.867 666.199 896.544L666.698 833.761C671.025 837.41 675.679 840.661 680.59 843.476C695.074 851.737 703.55 853.755 719.431 849.442C716.002 851.887 707.655 853.256 707.441 855.686C705.866 873.321 702.659 896.137 703.35 913.587C705.153 914.92 706.743 914.969 708.967 915.383C689.365 914.984 679.685 919.916 664.866 932.682Z" fill="#4B6273"/>
<path d="M666.363 951.828C670.476 945.834 675.737 940.723 681.845 936.781C690.064 931.528 699.815 928.157 709.601 930.266C705.859 930.402 706.009 929.753 703.778 931.635C702.915 934.337 704.897 938.492 705.938 941.45C704.925 941.514 703.799 941.457 702.944 941.799C688.346 945.413 681.81 948.763 673.128 961.494C669.428 957.524 668.929 956.604 666.363 951.828Z" fill="#7991A2"/>
<path d="M759.754 447.131C773.767 448.134 782.756 450.813 795.073 457.83C799.599 461.087 803.869 463.976 807.868 467.902L809.486 473.342C811.211 480.165 811.104 482.381 809.764 489.381L810.797 491.306C815.259 504.823 814.596 516.279 806.813 528.434C788.971 552.813 758.834 549.355 736.467 533.625C735.818 533.173 735.262 532.71 734.678 532.189C730.565 531.26 726.124 527.588 722.567 525.05C732.525 516.594 736.004 511.423 740.181 499.183C743.759 488.428 744.058 480.191 742.597 469.24C741.364 463.976 740.758 462.114 738.684 457.117C741.613 457.53 748.998 459.612 751.215 458.908C751.714 455.59 749.49 452.234 749.81 447.894C752.612 446.734 756.575 447.108 759.754 447.131Z" fill="#7991A2"/>
<path d="M759.754 447.131C773.767 448.134 782.756 450.813 795.073 457.83C799.599 461.087 803.869 463.976 807.868 467.902L809.486 473.342C811.211 480.165 811.104 482.381 809.764 489.381C797.86 468.469 774.587 461.764 752.141 459.788C754.208 464.739 754.964 466.55 756.133 471.759C757.516 495.07 753.267 516.295 734.678 532.189C730.565 531.26 726.124 527.588 722.567 525.05C732.525 516.594 736.004 511.423 740.181 499.183C743.759 488.428 744.058 480.191 742.597 469.24C741.364 463.976 740.758 462.114 738.684 457.117C741.613 457.53 748.998 459.612 751.215 458.908C751.714 455.59 749.49 452.234 749.81 447.894C752.612 446.734 756.575 447.108 759.754 447.131Z" fill="#4B6273"/>
<path d="M752.142 459.787C774.588 461.763 797.86 468.468 809.764 489.38L810.798 491.305C815.26 504.822 814.597 516.278 806.813 528.433L801.702 521.027C802.942 510.209 804.204 500.502 797.24 490.944C787.225 477.215 771.658 474.413 756.133 471.758C754.964 466.549 754.209 464.738 752.142 459.787Z" fill="#93AABB"/>
<path d="M507.321 330.943C512.355 330.243 513.901 330.132 519.006 330.329C522.467 331.735 524.186 332.354 526.963 334.9L529.221 336.393C533.428 341.99 534.418 343.826 537.806 349.786C545.232 367.497 551.077 406.959 531.207 419.774C528.516 421.509 514.373 417.136 511.005 415.966C490.563 408.87 472.772 403.52 450.829 403.42C449.029 403.715 449.16 403.731 447.452 403.092L446.87 401.484C447.797 396.704 451.531 393.218 454.786 389.674C458.962 357.538 476.726 339.371 507.321 330.943Z" fill="#89A2B3"/>
<path d="M507.321 330.943C512.355 330.243 513.901 330.132 519.006 330.329C522.467 331.735 524.186 332.354 526.963 334.9C512.735 345.672 496.248 339.858 480.054 357.273C468.727 369.455 463.736 400.496 450.829 403.42C449.029 403.715 449.16 403.731 447.452 403.092L446.87 401.484C447.797 396.704 451.531 393.218 454.786 389.674C458.962 357.538 476.726 339.371 507.321 330.943Z" fill="#A7BBCA"/>
<path d="M710.186 310.766C715.347 312.811 719.26 313.49 720.229 319.548L719.716 320.378C710.984 327.884 705.973 333.177 698.083 341.821C697.006 345.02 690.919 366.807 690.42 367.688L689.608 366.729C687.312 368.027 682.18 373.095 678.666 375.421C669.393 381.567 660.255 387.084 650.204 391.914C642.392 389.041 636.647 387.318 628.671 385.104C624.815 385.511 621.871 385.776 617.943 385.871C608.256 387.943 604.935 388.442 596.212 392.62C593.968 390.443 582.116 385.226 578.358 382.722C570.613 377.563 563.805 372.045 556.549 366.283C554.347 357.851 553.486 352.878 550.413 344.487L549.489 343.046C546.131 344.615 540.85 347.616 537.807 349.787C534.419 343.826 533.429 341.991 529.222 336.393C530.132 330.717 530.733 330.062 534.43 325.518L533.135 323.71C536.293 320.736 536.455 319.157 541.205 315.362C559.322 335.69 593.621 357.131 621.03 361.075C635.763 363.194 675.017 341.615 687.141 331.934C694.811 327.451 704.355 317.41 710.186 310.766Z" fill="#93AABB"/>
<path d="M687.119 351.019C689.379 349.469 695.68 343.851 698.082 341.82C697.006 345.02 690.918 366.807 690.419 367.688L689.607 366.728C687.312 368.026 682.179 373.095 678.665 375.421C669.392 381.566 660.254 387.083 650.203 391.914C642.391 389.041 636.646 387.317 628.67 385.104C651.387 379.178 670.033 366.676 687.119 351.019Z" fill="#4B6273"/>
<path d="M550.413 344.487C569.095 359.502 590.054 377.947 613.446 384.174L617.943 385.871C608.256 387.943 604.935 388.443 596.212 392.62C593.968 390.443 582.116 385.226 578.358 382.722C570.613 377.563 563.805 372.045 556.549 366.283C554.347 357.851 553.486 352.878 550.413 344.487Z" fill="#506779"/>
<path d="M621.984 374.583C638.855 371.071 654.138 366.145 669.477 358.2C675.6 355.027 680.276 352.216 687.119 351.021C670.033 366.678 651.386 379.179 628.67 385.106C624.813 385.513 621.87 385.777 617.942 385.872L613.444 384.175C615.989 384.182 619.061 384.466 621.257 383.443C622.639 381.463 622.069 377.251 621.984 374.583Z" fill="#7991A2"/>
<path d="M534.43 325.517C540.679 331.981 543.924 336.246 549.489 343.045C546.131 344.614 540.85 347.615 537.807 349.786C534.419 343.825 533.429 341.99 529.222 336.392C530.132 330.716 530.733 330.061 534.43 325.517Z" fill="#4B6273"/>
<path d="M669.271 764.883C678.801 754.077 693.677 744.518 708.189 742.572C706.678 748.752 706.614 750.684 707.84 757.199L706.956 756.9C710.05 760.62 708.902 784.984 709.265 791.541C716.671 796.324 730.756 794.057 739.345 793.836C740.728 793.801 739.859 800.736 739.78 801.371L741.106 799.432C743.202 804.407 741.961 809.183 745.889 811.949L743.779 815.534C737.877 821.201 732.018 827.352 724.583 831.087C719.394 834.801 715.353 836.055 709.209 837.552C696.264 840.261 674.845 823.068 666.505 814.336C666.548 806.973 665.593 772.246 667.168 767.898L667.261 766.786L669.271 764.883Z" fill="#506779"/>
<path d="M709.267 791.541C716.673 796.324 730.758 794.057 739.347 793.836C740.73 793.801 739.86 800.736 739.782 801.37L741.107 799.432C743.203 804.407 741.963 809.183 745.89 811.948L743.78 815.534C737.878 821.2 732.019 827.352 724.585 831.087C719.396 834.801 715.354 836.055 709.21 837.552C707.079 836.718 707.107 836.112 707.185 833.796C707.364 828.478 707.969 823.125 708.39 817.807C709.146 809.076 709.438 800.308 709.267 791.541Z" fill="#647C8E"/>
<path d="M741.107 799.433C743.202 804.408 741.962 809.184 745.889 811.949L743.78 815.535C737.878 821.201 732.018 827.353 724.584 831.088C724.926 828.828 728.191 823.753 729.616 821.494C733.857 814.801 736.837 808.749 739.781 801.371L741.107 799.433Z" fill="#7991A2"/>
<path d="M669.271 764.883C678.801 754.077 693.677 744.518 708.189 742.572C706.678 748.752 706.614 750.684 707.84 757.199L706.956 756.9C692.529 759.38 684.731 768.703 673.212 776.28C671.537 777.378 669.991 777.193 668.144 776.694C666.712 774.52 667.432 770.728 667.168 767.898L667.261 766.786L669.271 764.883Z" fill="#7991A2"/>
<path d="M679.849 443.86L680.248 442.916C690.577 448.257 731.199 467.565 741.47 469.617L742.596 469.239C744.058 480.19 743.758 488.427 740.18 499.183C736.003 511.422 732.525 516.593 722.567 525.049C701.183 512.716 679.315 494.6 660.24 479.029C659.214 473.811 658.943 472.698 656.762 467.833C662.756 465.742 664.959 464.182 669.592 460.245C675.359 454.483 676.763 451.169 679.849 443.86Z" fill="#6D8697"/>
<path d="M679.849 443.86L680.248 442.916C690.576 448.257 731.199 467.565 741.47 469.617L742.596 469.239C744.057 480.19 743.758 488.427 740.18 499.183C718.76 490.824 688.68 473.629 669.592 460.245C675.358 454.483 676.762 451.169 679.849 443.86Z" fill="#88A0B1"/>
<path d="M545.747 579.725C555.968 578.113 564.227 575.764 576.44 573.952C616.068 568.075 660.076 567.746 698.481 580.556C699.764 580.983 708.788 589.673 711.312 591.513L712.003 592.006C706.101 601.642 698.938 601.114 689.03 597.388C678.43 593.403 668.729 590.934 657.581 589.202C654.338 596.411 654.131 597.778 654.395 605.688C654.067 604.35 653.975 604.362 653.354 603.104C649.748 601.723 646.49 601.871 642.605 601.697C638.728 600.913 621.628 601.137 618.52 602.563C618.264 604.406 618.078 605.762 617.672 607.592C617.529 606.305 617.073 603.154 616.218 602.451C611.741 598.769 596.753 601.828 591.105 602.563C590.795 596.888 588.936 594.053 586.109 589.336L577.313 590.817C573.119 591.906 569.014 593.135 564.902 594.484C552.767 598.461 542.803 606.19 533.379 593.146C541.354 586.836 539.756 587.124 545.747 579.725Z" fill="#93AABB"/>
<path d="M586.108 589.335C612.283 585.649 631.421 585.727 657.581 589.201C654.338 596.41 654.131 597.777 654.395 605.687C654.067 604.348 653.974 604.361 653.354 603.102C649.747 601.722 646.49 601.87 642.605 601.695C638.728 600.912 621.628 601.136 618.52 602.561C618.263 604.405 618.078 605.761 617.672 607.591C617.529 606.304 617.073 603.152 616.218 602.449C611.741 598.768 596.753 601.827 591.105 602.562C590.794 596.887 588.935 594.051 586.108 589.335Z" fill="#4B6273"/>
<path d="M504.971 564.228C506.304 566.336 506.448 566.886 508.713 568.013C513.003 568.204 518.47 568.252 522.535 569.117C521.914 570.251 520.686 572.672 520.013 573.629C513.867 593.471 522.249 608.369 541.716 614.848C544.502 615.525 545.557 615.518 548.444 615.425C548.416 618.298 543.303 626.509 541.481 629.19C530.854 644.821 509.269 653.531 491.051 653.909L490.61 653.752C485.168 653.945 483.615 653.788 479.003 650.973C478.423 632.255 484.863 606.591 488.777 588.419C489.999 585.601 491.236 582.79 492.49 579.985C496.029 571.753 497.798 569.084 504.971 564.228Z" fill="#7991A2"/>
<path d="M492.49 579.985C497.089 578.883 501.825 577.811 506.396 576.647C497.262 596.543 495.317 615.147 492.419 636.595C491.782 641.306 491.348 649.675 490.61 653.752C485.168 653.944 483.615 653.788 479.003 650.972C478.423 632.254 484.863 606.591 488.777 588.419C489.999 585.601 491.236 582.79 492.49 579.985Z" fill="#93AABB"/>
<path d="M508.713 568.014C513.003 568.204 518.47 568.252 522.535 569.117C521.914 570.252 520.686 572.672 520.013 573.63C516.763 573.943 510.46 575.782 508.572 575.237C507.369 572.769 508.299 570.71 508.713 568.014Z" fill="#647C8E"/>
<path d="M624.321 412.248C647.694 416.272 651.707 421.471 669.156 434.434L668.742 435.596C667.345 439.649 666.704 441.443 664.644 445.35C662.94 447.677 661.643 449.61 659.555 451.648C655.349 455.106 653.132 456.235 647.85 457.636C640.58 456.762 632.005 448.207 625.141 448.472C610.949 449.018 611.847 457.181 595.761 457.051C593.506 459.533 590.125 464.376 589.403 467.639C586.581 466.567 583.512 464.611 580.857 463.067C574.875 457.275 572.477 453.328 569.328 445.787C568.651 442.331 568.476 439.889 568.207 436.424C570.348 435.775 577.443 432.076 579.858 430.87L580.244 434.24C581.489 432.941 581.457 433.109 582.663 432.252C599.497 420.292 602.778 414.457 624.321 412.248Z" fill="#93AABB"/>
<path d="M619.105 436.404C635.165 437.071 646.712 441.474 659.556 451.65C655.351 455.107 653.134 456.236 647.852 457.638C640.582 456.764 632.007 448.209 625.143 448.473C610.951 449.02 611.849 457.182 595.763 457.053L595.934 456.569C597.004 455.57 596.54 456.113 597.383 454.856C603.775 445.312 608.549 440.817 619.105 436.404Z" fill="#6D8697"/>
<path d="M568.207 436.425C570.348 435.776 577.443 432.077 579.858 430.871L580.244 434.241C580.381 444.346 586.048 453.437 595.932 456.568L595.761 457.052C593.506 459.534 590.125 464.377 589.403 467.64C586.581 466.569 583.512 464.613 580.857 463.068C574.875 457.277 572.477 453.329 569.328 445.788C568.651 442.332 568.476 439.89 568.207 436.425Z" fill="#4B6273"/>
<path d="M625.35 432.735C635.785 433.238 656.748 440.19 664.646 445.35C662.942 447.678 661.645 449.611 659.557 451.649C646.712 441.473 635.165 437.07 619.105 436.403C621.037 435.167 623.29 433.601 625.35 432.735Z" fill="#7991A2"/>
<path d="M626.589 166.55C646.847 169.46 660.362 174.709 673.776 191.481C681.902 201.649 681.303 209.878 685.188 219.801C674.126 223.925 633.069 238.322 622.99 239.631C621.557 232.166 622.783 178.402 624.28 168.294C624.458 167.118 625.157 167.207 626.589 166.55Z" fill="#88A0B1"/>
<path d="M562.179 221.208C562.066 218.985 563.181 215.848 563.676 213.627C568.938 190.032 587.596 172.979 611.03 167.972C615.442 167.029 622.106 166.021 626.59 166.549C625.157 167.206 624.459 167.117 624.28 168.293C622.784 178.401 621.558 232.165 622.99 239.63C602.635 233.777 582.362 227.636 562.179 221.208Z" fill="#93AABB"/>
<path d="M616.931 541.717C627.331 541.648 629.961 541.371 639.627 544.217C642.25 549.983 641.858 551.887 641.765 558.13C661.488 561.637 681.803 563.726 701.127 569.41C704.676 570.454 708.704 573.125 710.892 576.153C713.173 579.277 714.107 583.191 713.472 587.011C713.173 588.827 712.667 590.31 712.004 592.004L711.312 591.511C708.789 589.671 699.765 580.981 698.482 580.554C660.077 567.744 616.069 568.073 576.441 573.951C564.227 575.762 555.969 578.111 545.748 579.724C539.757 587.122 541.354 586.834 533.38 593.144C529.906 583.839 531.756 573.607 542.218 570.127C561.843 563.598 583.362 561.8 603.641 557.968C604.875 552.603 601.956 551.821 605.156 543.874C608.563 543.695 613.474 542.455 616.931 541.717Z" fill="#A7BBCA"/>
<path d="M616.93 541.717C627.33 541.648 629.96 541.371 639.626 544.217C642.249 549.983 641.857 551.887 641.764 558.13C624.821 557.241 621.285 556.763 603.64 557.968C604.874 552.603 601.955 551.821 605.155 543.874C608.562 543.695 613.473 542.455 616.93 541.717Z" fill="#4B6273"/>
<path d="M578.932 168.574C628.242 134.647 686.471 159.311 696.585 217.926C697.255 221.799 700.035 224.507 700.498 229.862L691.981 232.652C691.082 229.008 687.29 223.29 685.188 219.8C681.303 209.877 681.902 201.648 673.776 191.48C660.361 174.708 646.846 169.459 626.589 166.549C622.105 166.022 615.441 167.03 611.028 167.973C587.595 172.979 568.937 190.033 563.675 213.627C563.18 215.848 562.064 218.986 562.178 221.208C562.076 226.092 556.217 227.787 555.187 233.632C549.581 231.919 548.183 232.668 546.779 226.817C548.549 222.71 550.939 218.957 551.973 214.62C556.612 195.168 563.279 181.59 578.932 168.574Z" fill="#A7BBCA"/>
<path d="M568.209 436.424C568.478 439.889 568.653 442.331 569.329 445.787C572.479 453.328 574.877 457.275 580.859 463.067C554.183 479.237 534.276 488.52 505.573 499.852C502.414 489.382 502.895 480.569 504.085 469.805C505.627 464.909 506.372 462.064 508.894 457.586C513.314 455.482 526.11 451.465 531.049 449.753C543.463 445.387 555.85 440.944 568.209 436.424Z" fill="#88A0B1"/>
<path d="M568.209 436.424C568.477 439.889 568.653 442.331 569.329 445.787C566.814 450.425 512.138 468.482 504.085 469.805C505.627 464.909 506.372 462.064 508.893 457.586C513.314 455.482 526.11 451.465 531.049 449.753C543.463 445.387 555.85 440.944 568.209 436.424Z" fill="#A7BBCA"/>
<path d="M492.291 502.785C495.824 515.836 500.317 523.455 510.049 532.693C509.201 533.23 508.35 533.76 507.495 534.284C485.428 547.786 451.762 554.529 435.947 528.066C433.462 523.541 432.413 521.902 430.854 516.953C435.66 514.253 438.728 512.171 439.787 506.78C439.95 508.65 440.002 510.759 440.505 512.513C462.932 512.546 471.136 509.109 492.291 502.785Z" fill="#7991A2"/>
<path d="M439.787 506.78C439.95 508.65 440.002 510.759 440.505 512.513C440.965 517.014 438.359 524.53 435.947 528.066C433.462 523.541 432.413 521.902 430.854 516.953C435.66 514.252 438.728 512.17 439.787 506.78Z" fill="#93AABB"/>
<path d="M667.34 747.328C667.604 724.14 666.983 701.238 668.993 678.058C669.229 675.335 668.659 669.049 669.293 667.053C677.576 679.498 697.512 690.546 710.942 696.798C709.195 700.518 707.214 725.68 709.16 728.424C693.735 728.203 678.802 737.676 667.34 747.328Z" fill="#506779"/>
<path d="M580.858 463.067C583.513 464.612 586.582 466.568 589.404 467.639C586.765 473.395 586.068 476.998 585.351 483.311C568.097 497.658 542.195 514.773 522.795 525.845C512.784 517.806 509.811 511.664 505.572 499.853C534.276 488.521 554.182 479.238 580.858 463.067Z" fill="#6D8697"/>
<path d="M512.517 549.166C530.496 540.322 551.238 526.143 568.805 515.716C573.851 512.721 582.76 504.479 586.786 502.61C589.332 503.681 590.889 506.861 592.651 509.36C590.667 520.956 590.523 534.266 590.088 546.154C578.983 547.375 548.56 553.244 537.511 556.61C536.459 556.104 536.256 556.026 535.082 555.85C527.301 554.678 519.905 551.847 512.517 549.166Z" fill="#4B6273"/>
<path d="M719.431 849.443C723.415 847.682 736.951 838.238 739.638 838.48C736.63 866.201 729.609 896.209 727.115 922.105C720.806 917.9 716.123 916.667 708.967 915.384C706.743 914.97 705.154 914.92 703.35 913.587C702.659 896.138 705.866 873.322 707.442 855.687C707.655 853.256 716.002 851.888 719.431 849.443Z" fill="#506779"/>
<path d="M708.189 742.572C724.377 745.245 736.63 756.75 746.096 769.395C751.313 777.948 752.554 784.592 751.962 794.599C747.771 795.077 742.496 792.511 740.821 788.498C740.579 793.045 740.707 794.956 741.106 799.432L739.78 801.371C739.859 800.736 740.728 793.801 739.345 793.836C730.756 794.057 716.671 796.324 709.266 791.541C708.902 784.984 710.05 760.62 706.956 756.9L707.84 757.199C706.614 750.684 706.678 748.752 708.189 742.572Z" fill="#7991A2"/>
<path d="M708.189 742.572C724.377 745.245 736.63 756.75 746.096 769.395C751.313 777.948 752.554 784.592 751.962 794.599C747.771 795.077 742.496 792.511 740.821 788.498C738.134 775.753 721.426 756.222 707.84 757.199C706.614 750.684 706.678 748.752 708.189 742.572Z" fill="#A7BBCA"/>
<path d="M439.787 506.779C442.038 479.469 468.983 474.436 490.772 471.163C489.46 483.528 489.08 490.635 492.291 502.783C471.136 509.107 462.932 512.544 440.505 512.512C440.002 510.757 439.95 508.648 439.787 506.779Z" fill="#88A0B1"/>
<path d="M667.34 747.327C678.801 737.676 693.734 728.203 709.159 728.424C720.314 729.293 727.243 733.841 736.26 740.049C738.412 741.953 745.89 749.316 747.558 749.765C747.337 755.246 747.322 764.356 746.096 769.395C736.63 756.75 724.377 745.246 708.19 742.573C693.677 744.519 678.801 754.077 669.271 764.883C664.788 759.494 667.261 753.742 667.34 747.327Z" fill="#2E4151"/>
<path d="M556.549 366.283C563.805 372.045 570.613 377.563 578.358 382.722C582.116 385.226 593.969 390.443 596.213 392.62C584.333 398.412 577.818 403.815 571.092 415.312C569.272 418.423 568.365 421.164 565.131 422.883C561.279 422.032 555.619 415.36 554.776 411.549C559.83 396.402 559.182 381.764 556.549 366.283Z" fill="#7991A2"/>
<path d="M495.999 459.589L508.893 457.587C506.371 462.065 505.626 464.91 504.085 469.806C502.894 480.57 502.414 489.383 505.572 499.853C509.811 511.665 512.784 517.807 522.795 525.846C518.832 528.361 514.538 531.447 510.049 532.693C500.317 523.455 495.823 515.836 492.291 502.785C489.08 490.636 489.46 483.529 490.772 471.164C492.085 466.331 492.768 464.531 494.827 459.953L495.999 459.589Z" fill="#475D6F"/>
<path d="M710.941 696.797C717.121 699.812 751.941 708.779 751.82 708.665L751.471 709.841L750.629 708.929C746.716 710.319 743.808 712.143 740.123 713.904C739.239 720.526 737.756 734.39 736.26 740.049C727.243 733.841 720.314 729.293 709.159 728.424C707.213 725.679 709.195 700.518 710.941 696.797Z" fill="#506779"/>
<path d="M451.179 470.364C465.381 462.456 478.494 459.557 494.827 459.953C492.767 464.531 492.084 466.331 490.771 471.164C468.983 474.437 442.038 479.47 439.787 506.78C438.728 512.17 435.66 514.252 430.854 516.952C427.167 502.082 430.117 491.728 439.465 479.92C443.746 475.727 446.262 473.906 451.179 470.364Z" fill="#A7BBCA"/>
<path d="M606.128 514.519C610.28 515.6 614.25 517.285 618.356 517.871C627.473 518.116 630.466 518.156 638.378 514.404C639.861 519.764 641.436 539.741 639.626 544.218C629.96 541.372 627.33 541.649 616.93 541.718C613.473 542.456 608.562 543.697 605.155 543.875C603.397 537.986 604.599 520.599 606.128 514.519Z" fill="#93AABB"/>
<path d="M618.356 517.871C627.473 518.116 630.467 518.156 638.379 514.404C639.861 519.764 641.437 539.741 639.626 544.218C629.961 541.372 627.33 541.649 616.931 541.718C620.359 541.121 620.259 541.687 622.498 539.757C624.044 535.842 621.992 533.691 622.476 529.642C622.897 526.098 624.757 522.606 623.774 518.967L618.356 517.871Z" fill="#88A0B1"/>
<path d="M632.156 476.231C636.511 476.708 640.76 477.261 645.143 477.303C648.287 487.81 645.77 494.701 637.302 501.663L637.124 501.812C637.68 504.839 638.749 511.349 638.379 514.404C630.467 518.156 627.473 518.115 618.356 517.87C614.251 517.284 610.28 515.6 606.128 514.518C606.016 512.042 607.233 505.097 607.665 502.256L611.528 503.958C617.473 495.602 620.602 495.311 630.189 492.901C636.754 486.301 636.419 483.962 632.156 476.231Z" fill="#7991A2"/>
<path d="M611.528 503.959C620.644 506.82 628.663 506.453 637.124 501.812C637.68 504.84 638.749 511.349 638.379 514.404C630.467 518.156 627.473 518.116 618.356 517.87C614.251 517.284 610.28 515.6 606.128 514.519C606.016 512.043 607.233 505.098 607.665 502.257L611.528 503.959Z" fill="#4B6273"/>
<path d="M599.417 478.199C606.181 477.354 608.727 476.938 615.449 474.563C622.078 472.221 626.076 472.763 632.157 476.232C636.419 483.963 636.754 486.302 630.189 492.901C620.602 495.311 617.473 495.603 611.528 503.959L607.666 502.257C598.749 495.281 597.948 488.623 599.417 478.199Z" fill="#93AABB"/>
<path d="M681.532 256.395C682.579 249.215 684.917 249.183 690.869 245.639C690.534 259.851 686.892 297.437 693.114 307.993C689.144 312.048 686.001 315.092 681.275 318.333C679.586 309.192 681.168 267.919 681.532 256.395Z" fill="#88A0B1"/>
<path d="M485.658 446.293C488.756 446.348 493.422 446.255 496.313 446.877C497.2 453.377 493.898 456.573 495.443 459.266L495.999 459.59L494.827 459.954C478.494 459.558 465.382 462.457 451.179 470.365C449.09 466.569 453.399 460.319 454.761 454.885L454.951 454.094C461.55 448.952 477.674 446.985 485.658 446.293Z" fill="#4B6273"/>
<path d="M621.593 400.024C634.958 400.484 663.305 410.329 668.951 423.185L669.549 425.066C669.5 428.153 669.549 431.387 669.157 434.434C651.708 421.471 647.695 416.273 624.323 412.248C622.591 408.807 620.809 403.878 621.593 400.024Z" fill="#A7BBCA"/>
<path d="M579.859 430.87C586.129 409.957 601.506 402.973 621.593 400.024C620.809 403.878 622.591 408.807 624.323 412.248C602.78 414.457 599.499 420.292 582.665 432.252C581.459 433.109 581.49 432.941 580.246 434.24L579.859 430.87Z" fill="#A7BBCA"/>
<path d="M460.729 427.913C465.902 430.752 482.579 429.629 487.178 436.462C487.792 437.375 486.883 442.348 486.818 443.741L485.658 446.292C477.673 446.984 461.549 448.951 454.95 454.093L453.972 454.147C454.245 450.415 459.427 433.165 460.729 427.913Z" fill="#88A0B1"/>
<path d="M798.644 421.921C801.766 437.729 806.264 451.268 807.868 467.902C803.869 463.976 799.599 461.088 795.073 457.83C793.712 451.21 788.558 433.403 789.064 428.116C790.746 425.569 793.997 425.28 797.896 422.47L798.644 421.921Z" fill="#A7BBCA"/>
<path d="M453.656 417.686C467.424 418.443 481.005 421.225 493.961 425.941C491.766 432.164 489.397 437.691 486.818 443.742C486.883 442.348 487.793 437.375 487.178 436.463C482.579 429.629 465.902 430.752 460.729 427.913C456.755 426.886 454.311 426.526 450.32 425.978L453.656 417.686Z" fill="#7991A2"/>
<path d="M512.517 549.164C519.905 551.846 527.302 554.676 535.082 555.848C536.256 556.025 536.46 556.102 537.512 556.608C531.584 559.368 529.662 560.86 525.315 565.738C524.897 566.206 522.849 568.905 522.536 569.115C518.471 568.251 513.003 568.202 508.713 568.012C506.449 566.884 506.305 566.335 504.971 564.226C500.362 555.976 505.449 551.907 512.517 549.164Z" fill="#506779"/>
<path d="M740.123 713.905C743.808 712.144 746.716 710.32 750.63 708.93L751.471 709.842C751.171 723.699 748.556 736.458 747.558 749.766C745.89 749.317 738.412 741.953 736.26 740.05C737.757 734.391 739.239 720.527 740.123 713.905Z" fill="#506779"/>
<path d="M623.352 461.698C630.787 464.609 635.391 466.999 642.192 471.064C643.239 472.88 644.259 475.338 645.143 477.303C640.759 477.261 636.511 476.708 632.155 476.231C626.075 472.763 622.076 472.22 615.448 474.563C608.726 476.937 606.18 477.353 599.416 478.199C600.624 474.773 601.472 473.481 603.366 470.339C610.7 467.895 616.395 465.015 623.352 461.698Z" fill="#6D8697"/>
<path d="M493.962 425.94C500.942 428.399 508.155 431.013 515.237 433.099L513.489 440.736C508.608 442.687 500.831 447.437 496.313 446.876C493.422 446.254 488.755 446.346 485.658 446.291L486.819 443.741C489.398 437.69 491.766 432.163 493.962 425.94Z" fill="#647C8E"/>
<path d="M450.321 425.979C454.311 426.527 456.755 426.887 460.73 427.914C459.427 433.166 454.245 450.415 453.972 454.148C451.008 455.871 441.389 462.613 439.604 462.705C443.347 450.105 445.016 440.951 449.626 427.178L450.321 425.979Z" fill="#93AABB"/>
<path d="M691.824 244.851L697.547 242.55C696.664 247.065 696.614 250.505 696.457 255.125C695.887 271.407 696.471 287.899 695.516 304.127C695.445 305.387 693.955 307.081 693.114 307.992C686.891 297.436 690.534 259.85 690.869 245.638L691.824 244.851Z" fill="#A7BBCA"/>
<path d="M453.972 454.148L454.95 454.093L454.76 454.884C453.399 460.318 449.089 466.568 451.179 470.364C446.262 473.906 443.746 475.727 439.465 479.92C437.685 475.622 434.794 466.015 439.604 462.704C441.389 462.613 451.008 455.87 453.972 454.148Z" fill="#506779"/>
<path d="M730.493 315.366C731.427 319.878 733.387 323.611 735.597 327.647C730.885 328.501 728.212 329.883 724.178 332.458L723.7 332.339C722.838 328.966 721.762 322.783 719.716 320.379L720.229 319.548C723.95 317.872 726.623 316.748 730.493 315.366Z" fill="#7991A2"/>
<path d="M710.186 310.766C719.566 303.648 725.71 304.095 730.493 315.366C726.623 316.747 723.95 317.871 720.229 319.548C719.259 313.49 715.346 312.811 710.186 310.766Z" fill="#A7BBCA"/>
<path d="M740.821 788.498C742.496 792.511 747.771 795.077 751.962 794.6C750.486 802.455 749.738 804.978 745.889 811.949C741.961 809.183 743.202 804.408 741.106 799.432C740.707 794.956 740.578 793.046 740.821 788.498Z" fill="#88A0B1"/>
<path d="M543.357 430.154C550.414 423.641 551.743 420.296 554.775 411.549C555.617 415.359 561.278 422.032 565.13 422.882C562.949 422.929 546.96 429.018 543.357 430.154Z" fill="#506779"/>
<path d="M700.498 229.862C700.064 234.52 699.45 238.169 697.547 242.551L691.824 244.852C692.33 240.777 692.65 237.053 691.695 233.053L691.98 232.652L700.498 229.862Z" fill="#7991A2"/>
<path d="M449.625 427.179C445.776 424.93 442.813 423.105 445.311 418.476C447.838 416.938 450.843 417.042 453.656 417.687L450.32 425.979L449.625 427.179Z" fill="#506779"/>
<path d="M809.485 473.342C818.631 479.643 812.657 483.772 810.797 491.305L809.763 489.38C811.103 482.381 811.21 480.165 809.485 473.342Z" fill="#506779"/>
<path d="M713.593 238.504C757.936 239.264 801.865 247.255 843.635 262.161C849.879 264.336 862.282 266.093 862.581 273.829C863.123 287.913 862.866 302.105 862.859 316.211C863.009 347.205 862.667 378.2 861.826 409.182C857.941 536.985 844.933 647.778 792.613 765.917C784.901 783.53 776.169 800.687 766.468 817.288C763.759 821.993 759.133 830.389 755.99 834.452H755.341C756.624 824.73 759.839 822.071 760.31 819.327C761.037 816.305 762.591 812.733 763.503 809.505C766.725 798.128 767.295 786.168 765.171 774.535C764.365 769.93 760.987 763.429 761.365 759.331C762.89 742.516 765.962 726.264 766.71 709.314C777.695 706.962 786.106 703.134 786.277 689.983C786.597 665.37 783.775 640.13 780.196 615.803C778.6 604.925 775.464 594.098 773.753 583.214C772.684 576.462 766.525 569.296 766.953 563.375C771.992 561.763 784.423 562.017 787.025 560.987C801.345 555.199 814.952 545.83 822.387 531.987C828.51 520.846 830.848 505.716 827.562 493.3C824.554 481.935 823.891 471.745 822.152 460.219C819.992 445.58 816.806 431.112 812.622 416.92C826.443 403.528 819.015 399.31 813.94 385.54C809.165 372.568 808.138 363.396 800.19 351.13C785.699 328.772 770.296 319.777 744.906 313.82C744.528 312.353 744.072 310.907 743.545 309.485C739.753 299.13 732.026 291.288 720.343 291.576C717.071 291.657 713.664 292.879 711.255 291.761C709.673 285.32 709.01 254.212 711.162 248.842C712.346 245.16 712.866 242.264 713.593 238.504Z" fill="#4B6273"/>
<path d="M744.906 313.819C744.528 312.353 744.072 310.906 743.545 309.485C739.753 299.129 732.026 291.287 720.343 291.576C717.071 291.657 713.664 292.878 711.255 291.761C709.673 285.32 709.01 254.212 711.162 248.842C717.948 253.198 729.773 252.246 739.033 254.266C738.206 286.364 742.789 282.03 768.756 298.539C776.134 303.302 783.147 308.611 789.727 314.422C842.473 361.666 840.342 427.09 840.848 491.522C840.977 508.466 837.049 537.969 834.647 554.783C827.056 607.961 815.401 663.716 797.304 714.353C791.979 729.329 786.127 744.105 779.762 758.668C772.185 776.031 763.396 786.139 770.588 805.448L770.039 805.413L767.723 800.915L767.06 800.858C764.765 808.691 765.313 812.07 760.31 819.326C761.037 816.304 762.591 812.733 763.503 809.504C766.725 798.128 767.295 786.167 765.171 774.534C764.365 769.93 760.987 763.429 761.365 759.33C762.89 742.516 765.962 726.264 766.71 709.314C777.695 706.961 786.106 703.134 786.277 689.983C786.597 665.37 783.775 640.13 780.196 615.802C778.6 604.924 775.464 594.097 773.753 583.214C772.684 576.461 766.525 569.296 766.953 563.375C771.992 561.763 784.423 562.017 787.025 560.986C801.345 555.199 814.952 545.829 822.387 531.987C828.51 520.846 830.848 505.716 827.562 493.3C824.554 481.935 823.891 471.744 822.152 460.218C819.992 445.58 816.806 431.111 812.622 416.92C826.443 403.528 819.015 399.31 813.94 385.539C809.165 372.568 808.138 363.395 800.19 351.129C785.699 328.772 770.296 319.777 744.906 313.819Z" fill="#506779"/>
<path d="M745.591 565.146C751.065 570.348 753.289 575.089 756.147 581.953C763.368 597.918 768.079 631.733 769.434 649.902C770.146 656.26 773.432 685.136 770.189 690.859C768.564 693.718 762.648 693.71 759.276 693.782C753.218 692.627 747.259 692.142 740.858 690.845C707.577 684.102 674.853 663.695 668.894 627.862C668.003 622.495 668.837 611.547 668.979 605.737C678.217 608.218 687.355 611.098 696.344 614.369C700.449 614.776 702.552 614.925 706.544 613.706C714.27 611.304 720.643 605.788 724.135 598.486C728.184 590.163 728.12 581.919 725.148 573.344C724.542 572.573 723.465 570.153 722.974 569.144C726.188 568.705 734.1 568.591 737.885 568.353C741.314 567.526 742.996 567.384 745.591 565.146Z" fill="#506779"/>
<path d="M745.59 565.146C751.064 570.348 753.288 575.089 756.146 581.953C763.367 597.918 768.078 631.733 769.433 649.902C764.614 653.922 763.795 654.279 757.515 654.364C751 652.86 745.29 652.946 737.186 650.601C721.041 645.925 710.927 640.215 702.038 625.453C699.892 621.889 698.759 618.539 696.692 614.961L696.343 614.369C700.448 614.776 702.551 614.925 706.543 613.706C714.27 611.304 720.642 605.788 724.135 598.486C728.183 590.163 728.119 581.919 725.147 573.344C724.541 572.573 723.465 570.153 722.973 569.144C726.187 568.705 734.1 568.591 737.884 568.353C741.313 567.526 742.995 567.384 745.59 565.146Z" fill="#7991A2"/>
<path d="M741.904 576.649C747.428 578.082 750.871 579.672 756.146 581.953C763.367 597.918 768.078 631.734 769.432 649.903C764.614 653.923 763.794 654.279 757.515 654.365C756.381 650.195 755.034 635.297 754.392 629.859C751.926 608.974 748.811 596.341 741.904 576.649Z" fill="#A7BBCA"/>
<path d="M722.973 569.144C726.187 568.705 734.099 568.591 737.884 568.353C739.075 571.177 740.329 573.977 741.634 576.75C736.559 575.156 730.507 573.345 725.147 573.344C724.541 572.573 723.464 570.153 722.973 569.144Z" fill="#647C8E"/>
<path d="M769.434 649.902C770.146 656.26 773.432 685.136 770.189 690.86C768.564 693.718 762.648 693.711 759.276 693.782C759.069 693.589 758.15 692.299 758.157 692.264C758.827 688.179 759.212 683.361 759.184 679.319C759.112 670.987 758.3 662.619 757.516 654.364C763.795 654.279 764.615 653.923 769.434 649.902Z" fill="#7991A2"/>
<path d="M655.428 545.865C653.924 534.999 650.068 506.042 659.52 498.874C662.043 500.925 665.094 502.218 667.496 504.255C682.785 517.226 699.215 528.38 716.13 539.082C721.561 542.516 728.561 547.504 734.399 550.071C737.535 551.504 740.664 552.956 743.786 554.425C743.487 556.96 743.195 560.253 742.76 562.701L745.59 565.148C742.995 567.385 741.313 567.527 737.884 568.354C734.099 568.592 726.187 568.706 722.973 569.145C718.026 562.46 716.187 560.708 709.073 557.363C707.134 557.083 700.285 554.687 697.547 554.029C683.548 550.659 669.748 547.57 655.428 545.865Z" fill="#4B6273"/>
<path d="M734.399 550.07C737.535 551.504 740.664 552.956 743.786 554.425C743.487 556.96 743.195 560.253 742.76 562.7L745.59 565.147C742.995 567.385 741.313 567.527 737.884 568.353C734.099 568.592 726.187 568.706 722.973 569.145C718.026 562.459 716.187 560.708 709.073 557.363C710.877 556.25 715.324 555.725 717.627 555.322C723.721 554.155 728.682 552.373 734.399 550.07Z" fill="#506779"/>
<path d="M734.4 550.07C737.536 551.504 740.666 552.956 743.788 554.425C743.488 556.96 743.196 560.253 742.761 562.7C733.83 557.307 728.206 555.28 717.628 555.322C723.722 554.155 728.683 552.373 734.4 550.07Z" fill="#4B6273"/>
<path d="M602.966 73.5594C607.723 60.7419 618.719 53.9939 632.191 59.0348C637.516 61.0577 641.778 65.1555 644.016 70.3867C644.715 71.9841 645.235 73.6734 645.741 75.3414C646.24 78.5297 645.67 77.9046 647.488 80.0273L648.963 80.0579C650.631 78.0072 650.04 79.1612 650.531 76.3457C652.142 83.3731 653.19 85.7054 659.349 89.8425C660.91 84.9256 661.801 79.0614 667.004 76.6486C669.656 75.4198 673.669 75.5866 676.278 76.8261C679.243 78.2346 681.716 80.9511 682.671 84.1123C683.413 86.5686 683.406 89.3713 682.137 91.6458C681.524 92.7443 680.79 93.7628 680.055 94.78C676.99 99.0233 670.026 143.502 669.199 151.744C669.157 151.729 669.114 151.714 669.071 151.7C663.732 148.164 658.279 145.313 652.228 143.256C622.846 133.27 605.609 138.279 579.316 151.697C578.068 142.764 572.027 100.993 568.487 95.7387C567.354 94.0579 565.888 92.127 565.507 90.0991C564.933 87.0505 566.139 83.0381 567.872 80.5248C569.604 78.0151 572.196 76.3977 575.235 76.0478C578.412 75.6821 581.558 76.8005 583.981 78.8405C588.07 82.284 588.118 86.2343 588.402 91.169C594.928 87.0098 595.827 84.0617 598.495 77.2417L598.989 77.8704L600.261 77.9146C602.178 76.3193 602.099 75.8909 602.966 73.5594Z" fill="#647C8E"/>
<path d="M602.966 73.5596C603.663 82.4246 605.291 84.3413 612.084 89.8712C625.776 103.89 600.816 125.335 589.23 110.467C584.548 104.459 583.063 97.2357 588.402 91.1692C594.928 87.01 595.828 84.0619 598.496 77.2419L598.989 77.8706L600.261 77.9147C602.179 76.3195 602.099 75.8911 602.966 73.5596Z" fill="#101C28"/>
<path d="M645.742 75.3408C646.241 78.5292 645.67 77.904 647.488 80.0267L648.964 80.0574C650.631 78.0067 650.04 79.1607 650.532 76.3451C652.143 83.3726 653.19 85.7049 659.349 89.8419C661.102 91.048 663.134 94.2798 664.453 96.1231C662.728 104.725 658.971 114.3 648.835 115.279C644.993 115.671 641.173 114.367 638.371 111.708C633.118 106.785 632.997 101.277 632.762 94.7844C634.594 92.2048 635.905 90.6973 638.022 88.3372C642.869 83.7931 644.537 81.689 645.742 75.3408Z" fill="#101C28"/>
<path d="M602.967 73.5594C607.724 60.7419 618.72 53.9939 632.192 59.0348C637.517 61.0577 641.779 65.1555 644.017 70.3867C644.716 71.9841 645.236 73.6734 645.742 75.3414C644.538 81.6895 642.87 83.7937 638.023 88.3378C636.184 82.577 635.984 77.3315 629.69 74.7255C617.694 69.7552 611.685 79.5939 612.084 89.871C605.292 84.3411 603.664 82.4244 602.967 73.5594Z" fill="#A7BBCA"/>
<path d="M489.76 990.39C489.595 984.431 490.157 979.805 491.332 973.925L492.199 975.593C494.607 976.177 494.744 976.063 497.133 975.914C500.955 975.928 504.776 975.906 508.597 975.856C531.964 977.004 562.634 975.621 586.717 975.906C587.206 981.124 587.705 984.759 586.406 989.963L581.671 990.326C574.077 991.018 557.45 990.576 549.297 990.576C529.452 990.64 509.605 990.576 489.76 990.39Z" fill="#4B6273"/>
<path d="M512.585 315.54C517.557 302.421 521.903 296.337 536.68 295.928C536.645 301.83 536.593 304.907 537.435 310.683L541.205 315.362C536.455 319.157 536.293 320.736 533.135 323.71C530.159 321.434 528.455 320.422 525.184 318.559L524.856 318.759C522.058 315.697 516.471 315.691 512.585 315.54Z" fill="#4B6273"/>
<path d="M525.185 318.558C525.892 312.021 530.89 308.35 537.435 310.682L541.205 315.362C536.455 319.156 536.293 320.735 533.135 323.709C530.159 321.434 528.455 320.422 525.185 318.558Z" fill="#A7BBCA"/>
<path d="M630.139 976.598C628.457 980.804 626.469 986.235 624.323 990.091C635.55 990.084 647.61 990.305 658.758 990.027C665.131 989.956 674.882 989.578 680.933 990.326C671.332 991.303 645.158 990.904 634.644 990.776C619.59 990.576 595.786 991.609 581.671 990.326L586.406 989.963C596.3 990.555 610.167 990.113 620.36 990.084C617.473 985.123 616.048 981.538 614.187 976.185L616.582 976.113C621.657 976.869 625.022 976.698 630.139 976.598Z" fill="#4B6273"/>
<path d="M414.903 1001.71C426.2 1003.28 460.396 1002.29 473.047 1002.29L598.703 1002.32L753.466 1002.35L796.077 1002.39C805.5 1002.46 815.536 1003.14 824.795 1002.19C824.874 1010.15 825.052 1018.73 825.016 1026.63C824.938 1043.29 815.394 1034.37 809.071 1038.37L809 1040.73L808.971 1041.92C808.807 1053.24 815.985 1057.46 810.44 1063.62C808.308 1065.99 804.395 1066.51 804.267 1069.35C803.982 1075.78 804.003 1082.5 803.996 1088.9C803.946 1102.92 804.017 1116.94 804.203 1130.96C810.81 1134.4 814.567 1136.54 819.243 1142.78C822.08 1147.01 823.498 1153.43 819.663 1157.53C817.425 1158.13 817.083 1157.96 814.802 1157.79C805.721 1158.67 793.062 1158.38 783.738 1158.39L732.888 1158.45C720.528 1158.69 706.3 1158.2 693.727 1158.2L604.296 1158.32C577.772 1158.21 550.296 1157.68 523.806 1158.32L507.736 1158.47L455.213 1158.25C447.855 1158.26 427.325 1158.73 420.907 1157.41C417.017 1154.05 419.018 1146.39 421.739 1142.69C425.608 1136.91 430.526 1133.88 436.634 1131.12C437.553 1111.39 437.012 1089.85 436.517 1070.1C436.362 1063.92 418.602 1065.77 432.133 1049.42C432.052 1044.96 431.83 1041.81 431.38 1037.38C428.085 1037.26 417.745 1037.66 416.741 1035.74C413.373 1029.34 414.989 1009.24 414.903 1001.71Z" fill="#2E4151"/>
<path d="M414.903 1001.71C426.2 1003.28 460.396 1002.29 473.047 1002.29L598.703 1002.32L753.466 1002.35L796.077 1002.39C805.5 1002.46 815.536 1003.14 824.795 1002.19C824.874 1010.15 825.052 1018.73 825.016 1026.63C824.938 1043.29 815.394 1034.37 809.071 1038.37L808.978 1038.1C807.004 1036.66 739.125 1037.24 731.17 1037.24L431.38 1037.38C428.085 1037.26 417.745 1037.66 416.741 1035.74C413.373 1029.34 414.989 1009.24 414.903 1001.71Z" fill="#506779"/>
<path d="M809 1040.73L808.972 1041.92C808.808 1053.24 815.986 1057.46 810.44 1063.62C808.309 1065.99 804.396 1066.51 804.267 1069.35C803.982 1075.78 804.004 1082.5 803.997 1088.9C803.947 1102.92 804.018 1116.94 804.203 1130.96C810.811 1134.4 814.567 1136.54 819.243 1142.78C822.08 1147 823.499 1153.43 819.664 1157.53C817.426 1158.13 817.084 1157.96 814.803 1157.79C811.324 1157.22 800.639 1157.42 796.712 1157.42L760.366 1157.56C757.565 1152.04 758.549 1148.17 760.017 1142.67C764.116 1135.44 767.452 1133.58 775.007 1131.14C775.178 1109.87 775.121 1088.6 774.836 1067.34C773.354 1067.02 769.811 1065.75 769.027 1064.6C757.565 1048.04 780.817 1048.91 790.382 1049.21C796.797 1049.41 802.685 1049.32 808.523 1049.39C808.487 1046.06 808.651 1044.06 809 1040.73Z" fill="#6D8697"/>
<path d="M774.836 1067.34C780.645 1066.94 797.196 1066.5 802.093 1068.44C804.666 1083.02 802.293 1113.99 803.669 1130.7C796.384 1130.85 781.187 1130.35 775.007 1131.14C775.178 1109.87 775.121 1088.6 774.836 1067.34Z" fill="#506779"/>
<path d="M760.017 1142.67L819.243 1142.78C822.08 1147.01 823.499 1153.44 819.664 1157.53C817.426 1158.13 817.084 1157.96 814.803 1157.79C811.324 1157.22 800.639 1157.42 796.712 1157.42L760.366 1157.56C757.565 1152.04 758.549 1148.17 760.017 1142.67Z" fill="#4B6273"/>
<path d="M540.9 1131.17C553.274 1130.46 562.906 1130.45 575.365 1131.48C582.546 1133.06 585.57 1135.61 589.501 1141.82C591.095 1144.58 591.397 1146.74 592.122 1149.81C591.329 1152.22 590.419 1155.32 589.365 1157.56L652.456 1157.61C650.368 1151.66 649.469 1147.88 652.321 1141.99C656.098 1135.47 659.171 1133.23 666.27 1131.27C678.259 1130.26 689.065 1130.91 701.012 1131.41C708.553 1133.11 711.504 1135.62 715.567 1142.12C718.176 1148.44 717.805 1151.33 715.275 1157.71C729.509 1157.74 746.338 1158.2 760.366 1157.56L796.712 1157.42C800.639 1157.42 811.324 1157.22 814.802 1157.79C805.721 1158.67 793.062 1158.38 783.739 1158.39L732.888 1158.45C720.528 1158.7 706.301 1158.2 693.727 1158.2L604.296 1158.32C577.772 1158.21 550.296 1157.68 523.807 1158.33L524.043 1157.81L525.523 1156.94C525.09 1154.12 524.638 1152.67 523.816 1149.91C524.569 1146.36 524.765 1145.24 526.278 1141.97C530.568 1134.61 532.958 1133.56 540.9 1131.17Z" fill="#506779"/>
<path d="M540.901 1131.17C553.274 1130.46 562.906 1130.45 575.366 1131.48C582.546 1133.06 585.571 1135.61 589.501 1141.82C586.271 1143.15 530.969 1143.11 526.278 1141.97C530.569 1134.61 532.958 1133.56 540.901 1131.17Z" fill="#6D8697"/>
<path d="M666.271 1131.27C678.26 1130.25 689.066 1130.91 701.012 1131.41C708.554 1133.11 711.505 1135.62 715.568 1142.12C713.18 1143.31 657.275 1142.83 652.321 1141.99C656.099 1135.47 659.171 1133.23 666.271 1131.27Z" fill="#6D8697"/>
<path d="M432.133 1049.42C442.604 1049.08 453.02 1049.12 463.461 1049.19C479.142 1049.3 479.217 1065.45 465.536 1067.32C465.459 1088.24 465.909 1110.83 465.35 1131.55C472.514 1133.42 475.882 1135.69 479.619 1142.12C475.262 1143.66 429.55 1142.71 421.739 1142.69C425.608 1136.91 430.526 1133.88 436.634 1131.12C437.553 1111.39 437.012 1089.85 436.517 1070.1C436.362 1063.92 418.602 1065.77 432.133 1049.42Z" fill="#6D8697"/>
<path d="M442.464 1067.61C450.245 1067.18 457.745 1066.94 465.536 1067.32C465.459 1088.24 465.909 1110.83 465.35 1131.54C458.987 1130.58 452.496 1130.71 446.068 1130.7C446.212 1129.16 446.339 1127.62 446.447 1126.07C447.403 1112.23 447.476 1087.71 446.133 1073.46C445.964 1071.65 443.685 1069.02 442.464 1067.61Z" fill="#506779"/>
<path d="M666.1 1067.54C653.284 1063.2 656.826 1051.58 661.388 1050.55C667.554 1049.16 707.413 1045.67 710.193 1055.06C712.282 1062.13 706.743 1065.72 700.998 1067.56C700.97 1088.73 700.756 1110.26 701.012 1131.41C689.066 1130.91 678.26 1130.25 666.271 1131.27C666.342 1110.03 666.285 1088.78 666.1 1067.54Z" fill="#647C8E"/>
<path d="M540.755 1067.54C528.83 1064.8 528.886 1054.64 535.825 1050.3C538.906 1048.37 575.763 1048.65 579.416 1050.61C590.019 1056.32 584.932 1064.23 575.404 1067.69L575.366 1131.48C562.907 1130.45 553.275 1130.46 540.901 1131.17L540.755 1067.54Z" fill="#647C8E"/>
<path d="M479.62 1142.12C482.092 1148.17 481.77 1151.58 479.329 1157.71C487.415 1157.69 517.336 1157.08 524.043 1157.81L523.807 1158.32L507.737 1158.47L455.213 1158.25C447.856 1158.26 427.326 1158.73 420.907 1157.41C417.018 1154.05 419.018 1146.39 421.74 1142.69C429.551 1142.71 475.262 1143.66 479.62 1142.12Z" fill="#4B6273"/>
<path d="M523.807 1158.33C550.297 1157.68 577.773 1158.21 604.297 1158.32L693.727 1158.2C706.301 1158.2 720.528 1158.7 732.888 1158.45C738.306 1164.38 741.299 1165.15 745.006 1172.68C748.691 1172.67 753.502 1172.52 757.088 1172.77C769.319 1172.72 840.121 1170.93 845.824 1175.11C849.231 1182.18 846.216 1202.11 847.249 1210.47C847.734 1214.34 845.595 1216.82 842.21 1218.44C837.933 1219.35 804.638 1218.87 797.624 1218.89L661.466 1218.73L480.746 1218.91L427.764 1219.01C420.598 1219.02 404.919 1219.4 398.482 1218.41C389.865 1214.69 394.332 1201.63 393.599 1193.85C393.206 1189.69 392.611 1179.16 394.485 1175.95C400.683 1170.71 429.934 1172.72 439.603 1172.8C457.168 1172.25 476.445 1172.62 494.152 1172.67C495.735 1166.09 502.59 1162.15 507.736 1158.47L523.807 1158.33Z" fill="#647C8E"/>
<path d="M757.088 1172.77C769.32 1172.72 840.122 1170.93 845.824 1175.11C849.231 1182.18 846.216 1202.11 847.25 1210.47C847.734 1214.34 845.596 1216.82 842.21 1218.43C838.632 1217.99 834.462 1218.12 830.82 1218.09C802.828 1217.81 774.666 1218.84 746.703 1218.05C747.594 1208.83 748.021 1181.96 745.591 1173.42C749.761 1173.37 752.947 1173.14 757.088 1172.77Z" fill="#506779"/>
<path d="M398.482 1218.41C389.865 1214.68 394.332 1201.63 393.599 1193.85C393.206 1189.69 392.611 1179.16 394.485 1175.95C400.683 1170.71 429.934 1172.72 439.603 1172.79C455.264 1173.98 476.992 1173.24 493.227 1173.37C491.152 1183.47 492 1206.85 492.614 1218.08C472.594 1218.26 452.571 1218.31 432.549 1218.2C422.101 1218.18 408.715 1217.8 398.482 1218.41Z" fill="#4B6273"/>
<path d="M523.807 1158.33C550.297 1157.68 577.773 1158.21 604.297 1158.32L693.728 1158.2C706.301 1158.2 720.529 1158.7 732.889 1158.45C738.306 1164.38 741.3 1165.15 745.006 1172.68C710.022 1173.31 673.42 1172.79 638.279 1172.8L494.152 1172.67C495.735 1166.09 502.59 1162.15 507.737 1158.47L523.807 1158.33Z" fill="#93AABB"/>
</svg>
