<svg width="1254" height="1254" viewBox="0 0 1254 1254" fill="none" xmlns="http://www.w3.org/2000/svg">
<path d="M622.63 172.653C633.676 171.769 640.329 175.192 645.981 184.604C665.664 187.045 684.667 194.877 698.469 209.331C722.185 234.157 725.66 257.703 725.559 289.918C728.523 293.317 733.19 297.145 736.587 300.288C745.895 308.899 755.585 317.025 765.314 325.142C768.143 327.503 770.888 332.065 773.773 334.111C776.551 336.084 781.427 337.671 784.385 339.742C800.857 351.287 817.785 367.611 829.809 383.562C853.075 414.413 854.577 454.598 859.031 491.895C861.258 511.33 863.969 530.709 867.152 550.011C868.316 557.278 870.155 572.194 872.478 578.573C880.722 601.249 896.649 611.371 900.805 637.274C902.532 648.443 901.953 659.854 899.096 670.792C893.905 690.313 891.127 699.345 905.355 716.245C915.051 727.757 916.485 738.504 914.308 753.042C936.573 760.218 930.634 776.724 931.427 794.996C932.293 815.045 931.489 828.74 908.071 831.282C913.172 844.931 909.714 853.558 898.466 861.915L898.314 941.027C916.862 952.921 921.586 961.053 921.141 983.397C930.724 983.622 937.164 984.145 945.02 991.135C950.329 996.017 953.535 1003.45 953.361 1010.8C952.961 1026.97 954.744 1044.06 952.517 1060.02C951.229 1069.27 941.022 1079.14 931.782 1080.09C920.247 1081.28 907.723 1080.83 896.104 1080.79L834.786 1080.62L628.963 1080.29L422.7 1079.68L362.632 1079.5C331.747 1079.63 301.194 1085.82 303.819 1041.45C304.502 1029.91 302.702 1014.86 304.721 1003.56C307.727 986.743 321.995 982.193 336.871 982.295C335.65 963.168 342.86 949.952 359.933 940.937L359.959 861.206C348.49 852.557 346.626 844.931 351.092 831.439C347.563 830.916 344.129 829.971 340.952 828.318C336.336 825.916 333.179 822.362 331.649 817.385C328.96 808.629 328.663 769.672 333.248 761.978C336.467 756.574 342.266 754.054 348.074 752.519C344.5 712.134 369.678 723.713 376.91 691.483C380.491 675.499 374.24 660.011 371.06 644.574C366.896 624.361 367.706 603.242 376.212 584.221C381.214 573.034 388.21 563.739 392.382 551.949C400.67 528.523 404.313 504.118 408.023 479.583C400.226 466.534 395.688 458.431 396.341 442.728C397.088 420.38 410.68 401.637 424 384.794C453.275 347.777 492.212 322.072 526.337 290.04C526.445 272.762 527.213 257.317 533.528 240.918C546.329 207.676 572.022 189.566 606.456 184.679C611.195 176.826 613.846 174.949 622.63 172.653Z" fill="#8399A8"/>
<path d="M616.523 213.127C617.535 206.064 615.213 197.408 619.481 191.473C622.788 186.877 628.991 187.842 632.557 191.555C635.374 194.485 635.076 196.616 635.026 200.42C655.547 201.006 674.264 206.92 688.436 222.352C710.105 245.944 708.896 268.057 709.947 296.953C716.376 305.067 724.823 311.745 732.707 318.767C742.791 327.756 753.926 336 763.11 346.063C764.994 348.122 772.654 350.884 775.027 353.088C791.061 365.009 805.121 378.412 817.117 394.409C834.438 417.511 836.564 444.257 839.927 471.941C842.801 496.411 846.057 520.834 849.696 545.201C851.293 555.697 853.334 569.86 855.82 579.92C863.204 609.833 889.693 622.472 884.946 657.273C882.635 674.223 877.022 680.269 878.687 698.097C880.987 722.746 907.121 729.467 896.487 754.083C890.019 754.083 881.212 754.353 874.936 754.038C852.418 754.685 826.986 754.139 804.232 754.15C804.525 711.324 769.145 668.796 723.968 681.045C691.175 690.589 675.552 721.931 674.686 754.167L647.241 754.111L604.156 754.128C594.122 754.257 583.859 754.15 573.805 754.162C573.702 732.347 568.059 715.548 552.946 699.464C544.51 690.915 535.692 685.904 524.381 682.282C486.914 672.621 455.376 698.654 446.348 734.349C444.57 741.379 444.178 746.867 443.944 754.111C432.32 754.134 413.047 754.769 401.875 754.015C390.081 754.33 377.735 754.117 365.899 754.077C357.132 735.378 371.292 730.721 381.175 719.726C386.166 714.176 390.875 702.197 392.605 694.942C397.183 675.753 391.163 660.647 386.872 642.285C384.359 631.532 384.293 620.352 385.52 609.302C387.658 590.04 400.533 576.339 406.726 559.551C415.74 535.116 421.985 500.588 424.479 474.553C415.958 462.914 410.499 453.567 412.856 438.438C417.378 409.411 463.206 363.617 485.841 347.062C497.08 337.188 536.491 306.905 542.142 295.184C543.068 269.753 542.862 247.668 560.312 226.678C576.11 207.676 593.127 202.298 616.484 199.908C616.416 204.314 616.428 208.721 616.523 213.127Z" fill="#394E5C"/>
<path d="M579.072 561.953C581.051 562.676 587.721 565.503 589.275 564.776C594.325 568.255 595.384 570.247 596.688 576.264C596.767 578.917 596.896 579.751 596.331 582.286C596.241 578.623 595.837 574.929 590.453 576.577C587.574 577.459 587.528 578.483 586.593 581.024C586.733 578.514 586.95 577.23 586.421 574.81C585.216 568.927 582.813 566.35 579.072 561.953Z" fill="#566E7F"/>
<path d="M382.506 753.767C398.58 745.674 407.806 739.651 417.511 723.325C428.897 704.176 432.503 679.526 425.348 658.256C420.499 643.837 415.619 633.612 417.011 617.731C418.319 602.805 424.819 596.287 430.783 584.164C441.219 562.95 447.907 529.418 445.013 505.656C443.982 501.556 443.335 494.098 441.605 490.281C436.822 481.67 437.766 468.577 443.749 460.257C461.389 435.725 505.84 435.517 530.898 447.387C533.801 448.763 537.688 449.841 540.042 451.372C539.407 454.875 537.28 454.2 535.053 459.721L534.852 460.226C534.536 460.383 534.22 460.54 533.904 460.697C529.599 458.405 523.342 455.84 519.03 454.587C500.273 449.139 476.565 450.477 459.198 459.49C455.676 461.319 450.978 465.764 450.475 469.665C449.941 473.806 448.859 478.058 451.086 481.578C451.444 483.187 451.662 485.014 452.758 485.761C471.974 467.31 498.922 467.265 523.443 474.284C527.339 475.399 533.838 480.083 536.685 480.33C537.64 478.84 537.717 476.591 537.949 474.75C538.41 477.612 539.033 481.255 536.243 483.178C527.063 489.502 536.577 496.564 534.485 505.253C534.88 514.84 540.243 538.937 539.844 546.23C540.346 549.672 540.167 550.61 542.182 553.522C553.976 552.432 567.95 557.544 579.073 561.952C582.814 566.349 585.217 568.926 586.422 574.809C586.951 577.229 586.733 578.513 586.593 581.023C582.294 592.053 571.252 608.202 560.772 613.614C560.154 617.399 558.798 622.23 557.202 625.711C554.445 635.609 551.483 645.518 550.12 655.72C549.641 659.297 549.767 662.795 549.438 666.276C552.793 665.084 557.196 662.283 560.796 660.573C567.379 657.745 579.589 650.152 586.214 646.407C612.958 631.295 638.333 613.648 664.298 597.388C667.644 597.226 676.339 590.329 679.612 588.086C683.914 585.137 690.033 581.879 693.902 578.596C696.439 572.531 697.918 548.099 699.549 545.129C701.9 544.596 706.449 543.704 708.676 544.639C708.862 545.698 705.454 563.072 705.679 566.231C705.707 566.635 702.254 581.823 701.995 582.403C699.397 584.946 693.301 587.604 690.174 589.798C684.336 593.896 674.916 599.577 669.77 604.215L669.759 605.217C672.481 603.875 675.355 600.911 678.971 599.151C682.109 596.568 683.914 595.25 687.328 593.047C692.311 589.662 697.401 585.85 703.126 584.002C703.435 581.125 704.352 578.134 705.094 575.311C707.237 563.951 714.666 500.13 717.467 495.015C719.896 490.586 725.559 488.109 730.171 486.671C745.766 481.809 766.608 481.829 781.236 489.835C786.163 492.53 788.654 495.677 790.246 500.995C795.391 500.145 800.166 496.247 805.222 495.149L805.633 495.598C804.84 502.1 802.905 515.059 803.394 521.665C805.588 551.266 814.49 583.546 829.292 609.317C836.856 622.23 847.103 633.59 849.004 649.011C849.966 656.828 849.96 667.063 847.508 674.38C840.743 694.559 832.419 714.434 847.666 733.352C852.828 739.752 859.824 745.163 867.046 749.268C868.969 750.381 874.289 752.44 874.936 754.037C852.418 754.684 826.987 754.138 804.232 754.15C804.525 711.324 769.145 668.796 723.968 681.044C691.175 690.588 675.552 721.93 674.686 754.166L647.241 754.11L604.156 754.127C594.122 754.256 583.859 754.15 573.805 754.161C573.702 732.346 568.059 715.547 552.946 699.463C544.51 690.914 535.692 685.903 524.381 682.282C486.914 672.62 455.376 698.653 446.348 734.348C444.57 741.378 444.178 746.867 443.944 754.11C432.32 754.133 413.047 754.768 401.875 754.015C396.836 753.21 387.805 753.604 382.506 753.767Z" fill="#20303C"/>
<path d="M705.093 575.311C707.236 563.951 714.665 500.131 717.466 495.015C719.895 490.586 725.559 488.109 730.17 486.672C745.765 481.809 766.608 481.83 781.235 489.836C786.162 492.53 788.653 495.677 790.245 500.995C786.865 528.867 772.333 587.792 760.691 613.315C759.713 615.572 756.642 621.797 756.08 623.501C747.065 604.784 724.755 584.785 703.125 584.003C703.434 581.125 704.351 578.134 705.093 575.311Z" fill="#8299A8"/>
<path d="M705.093 575.311C729.884 575.125 748.516 593.379 760.691 613.314C759.713 615.571 756.642 621.797 756.08 623.501C747.065 604.784 724.755 584.784 703.125 584.003C703.434 581.125 704.351 578.134 705.093 575.311Z" fill="#394E5C"/>
<path d="M542.181 553.523C553.975 552.432 567.949 557.545 579.072 561.953C582.813 566.35 585.216 568.927 586.421 574.81C586.95 577.23 586.732 578.513 586.592 581.024C582.293 592.053 571.251 608.202 560.771 613.614C560.153 617.399 558.797 622.23 557.201 625.711C554.444 635.609 551.482 645.519 550.119 655.72C549.64 659.297 549.766 662.795 549.437 666.277C542.035 670.09 517.313 669.437 508.538 667.373C492.312 662.632 483.638 656.502 478.08 640.232C475.562 627.353 478.616 622.433 484.805 611.883C492.305 599.998 502.243 589.841 513.962 582.086C514.907 581.151 518.48 578.945 519.783 578.092C521.633 566.142 530.519 556.54 542.181 553.523Z" fill="#647D8E"/>
<path d="M542.181 553.523C553.975 552.432 567.949 557.545 579.072 561.953C582.813 566.35 585.216 568.927 586.421 574.81C586.95 577.23 586.733 578.513 586.593 581.024C582.293 592.053 571.252 608.202 560.771 613.614C560.154 617.399 558.798 622.23 557.202 625.711C543.811 627.697 538.758 624.474 527.517 617.079C520.511 610.668 517.586 606.381 515.098 597.2C516.199 594.032 518.555 592.039 521.044 589.947C519.761 584.394 519.509 583.561 519.784 578.092C521.633 566.142 530.52 556.54 542.181 553.523Z" fill="#8299A8"/>
<path d="M542.181 553.523C553.975 552.432 567.949 557.545 579.072 561.953C582.813 566.35 585.216 568.927 586.421 574.81L585.47 575.547C579.859 573.289 575.462 570.603 569.533 568.879C561.832 566.64 553.863 563.411 545.851 562.477C527.393 570.286 530.091 583.11 532.76 599.552L528.326 605.87C524.094 600.471 522.973 596.402 521.044 589.947C519.761 584.394 519.509 583.561 519.784 578.092C521.633 566.142 530.52 556.54 542.181 553.523Z" fill="#A1B5C0"/>
<path d="M515.098 597.199C516.199 594.032 518.555 592.038 521.044 589.946C522.973 596.402 524.094 600.47 528.326 605.87C538.308 616.139 546.914 620.02 560.771 613.614C560.154 617.399 558.798 622.23 557.202 625.711C543.811 627.696 538.758 624.474 527.517 617.078C520.511 610.668 517.586 606.381 515.098 597.199Z" fill="#566E7F"/>
<path d="M519.783 578.092C519.508 583.56 519.761 584.393 521.044 589.946C518.555 592.039 516.199 594.032 515.097 597.2L514.782 597.239C509.225 601.263 499.568 612.966 494.993 618.625C491.287 623.214 490.021 625.795 487.524 631.166C485.187 634.063 482.389 638.252 479.745 640.479C478.5 640.569 479.046 640.693 478.08 640.232C475.562 627.353 478.616 622.432 484.805 611.883C492.305 599.998 502.243 589.841 513.962 582.085C514.907 581.151 518.48 578.944 519.783 578.092Z" fill="#A1B5C0"/>
<path d="M519.783 578.092C519.508 583.56 519.761 584.393 521.044 589.946C518.555 592.039 516.199 594.032 515.097 597.2L514.782 597.239C514.124 592.232 515.185 587.028 513.962 582.085C514.907 581.151 518.48 578.944 519.783 578.092Z" fill="#8299A8"/>
<path d="M514.782 597.239L515.097 597.199C517.586 606.381 520.511 610.667 527.517 617.078C526.742 620.211 526.323 620.756 523.453 622.41C518.457 625.283 512.671 627.392 506.939 627.977C501.241 625.362 499.06 623.439 494.993 618.625C499.568 612.965 509.226 601.263 514.782 597.239Z" fill="#8299A8"/>
<path d="M478.081 640.232C479.047 640.693 478.501 640.569 479.746 640.479C482.39 638.252 485.187 634.062 487.525 631.166C488.648 642.425 490.63 648.319 499.676 655.568C502.523 657.846 510.687 663.2 508.539 667.373C492.313 662.632 483.639 656.502 478.081 640.232Z" fill="#8DA2B0"/>
<path d="M481.939 602.324C480.299 594.723 476.836 584.064 474.683 576.298C471.167 563.47 467.997 550.549 465.176 537.549C463.709 530.767 458.647 507.472 459.311 501.26C459.554 499.175 460.307 497.182 461.503 495.457C472.31 479.741 514.257 480.776 528.601 490.908C533.768 494.558 533.656 499.637 534.485 505.253C534.88 514.84 540.243 538.938 539.843 546.231C540.346 549.673 540.167 550.61 542.182 553.523C530.52 556.54 521.634 566.142 519.784 578.092C518.481 578.944 514.908 581.151 513.963 582.085C502.244 589.841 492.306 599.998 484.806 611.883L481.939 602.324Z" fill="#8299A8"/>
<path d="M539.843 546.23C540.345 549.672 540.167 550.61 542.181 553.522C530.519 556.54 521.633 566.141 519.783 578.092C518.48 578.944 514.907 581.151 513.962 582.085C502.243 589.841 492.305 599.998 484.806 611.883L481.938 602.324C488.971 592.074 496.706 582.275 505.808 573.776C516.694 563.611 524.475 549.676 539.843 546.23Z" fill="#394E5C"/>
<path d="M703.125 584.003C724.755 584.785 747.065 604.784 756.08 623.501C758.003 629.187 758.419 632.679 756.996 638.776C750.411 664.843 726.436 672.216 700.718 668.003C700.409 667.913 700.099 667.823 699.79 667.728C694.172 667.711 685.967 667.638 680.478 667.025C678.672 661.423 651.784 647.577 645.261 624.283C648.388 622.062 652.122 618.49 655.356 616.798C659.501 612.754 665.085 608.766 669.758 605.217C672.48 603.876 675.354 600.911 678.97 599.151C682.109 596.569 683.914 595.25 687.328 593.048C692.31 589.663 697.4 585.851 703.125 584.003Z" fill="#8299A8"/>
<path d="M703.126 584.003C724.755 584.785 747.065 604.784 756.08 623.501C758.004 629.187 758.42 632.679 756.997 638.776C755.45 638.18 749.827 634.299 748.106 633.158C740.525 618.125 720.459 600.613 704.093 595.811C698.379 594.877 692.3 596.273 687.328 593.048C692.311 589.663 697.401 585.851 703.126 584.003Z" fill="#A1B5C0"/>
<path d="M645.261 624.282C648.388 622.061 652.122 618.49 655.356 616.797C654.557 622.786 654.563 626.785 659.006 631.751C669.241 643.201 687.187 659.162 699.79 667.727C694.172 667.71 685.967 667.637 680.478 667.024C678.672 661.423 651.784 647.576 645.261 624.282Z" fill="#364A59"/>
<path d="M687.327 593.048C692.299 596.273 698.378 594.877 704.092 595.811C697.49 596.097 683.031 606.93 676.158 610.737C678.818 606.211 679.364 603.518 681.439 599.558L681.298 598.491C680.134 599.058 680.258 599.126 678.97 599.151C682.108 596.569 683.914 595.25 687.327 593.048Z" fill="#A1B5C0"/>
<path d="M647.24 754.111C647.488 751.068 647.836 748.037 648.281 745.017C651.818 721.486 667.886 679.628 697.27 680.752C704.936 681.045 717.078 679.959 723.967 681.045C691.174 690.589 675.551 721.931 674.685 754.167L647.24 754.111Z" fill="#394E5C"/>
<path d="M605.81 649.113C606.986 648.635 615.206 643.433 616.742 642.471C626.28 636.459 635.784 630.396 645.26 624.283C651.784 647.577 678.672 661.423 680.477 667.025C654.742 667.042 625.116 664.736 599.271 663.094C600.703 657.729 603.369 654.236 605.81 649.113Z" fill="#394E5C"/>
<path d="M552.945 699.463C555.927 697.579 557.169 697.124 560.801 698.131C571.637 701.122 580.729 709.238 591.921 711.769C599.512 725.974 602.976 738.105 604.155 754.128C594.121 754.257 583.858 754.15 573.804 754.161C573.701 732.346 568.058 715.548 552.945 699.463Z" fill="#394E5C"/>
<path d="M524.381 682.282C529.933 679.65 539.589 681.489 545.981 680.842C568.806 678.536 581.952 693.479 591.922 711.768C580.729 709.237 571.637 701.122 560.802 698.13C557.17 697.123 555.927 697.579 552.946 699.463C544.51 690.914 535.692 685.903 524.381 682.282Z" fill="#364A59"/>
<path d="M605.811 649.112C603.369 654.236 600.704 657.728 599.272 663.093C594.367 662.936 589.152 662.497 584.229 662.177C588.98 658.729 600.456 652.324 605.811 649.112Z" fill="#364A59"/>
<path d="M616.523 213.127C617.535 206.064 615.213 197.408 619.481 191.473C622.788 186.877 628.991 187.842 632.557 191.555C635.374 194.485 635.076 196.616 635.026 200.42C655.547 201.006 674.264 206.92 688.436 222.352C710.105 245.944 708.896 268.057 709.947 296.953C709.289 305.778 711.246 312.843 715.357 320.542C726.11 333.368 721.786 336.423 707.641 341.994L697.361 345.872C684.763 350.997 636.364 366.885 624.79 366.311C618.474 365.998 611.633 363.506 605.578 361.804C588.207 356.898 571.008 351.4 554.012 345.32L544.029 341.518L538.156 339.277C525.601 333.682 529.127 328.247 536.589 320.014C541.044 312.539 542.402 303.781 542.142 295.184C543.068 269.753 542.862 247.668 560.312 226.678C576.11 207.676 593.127 202.298 616.484 199.908C616.416 204.314 616.427 208.721 616.523 213.127Z" fill="#566E7F"/>
<path d="M542.141 295.183C543.068 269.752 542.862 247.668 560.312 226.678C576.11 207.675 593.127 202.297 616.483 199.907C616.416 204.314 616.427 208.72 616.523 213.126L616.483 301.582C616.5 316.296 616.821 332.185 616.416 346.795C592.729 339.853 569.327 332.954 546.464 323.582C543.314 322.292 539.863 320.902 536.589 320.013C541.044 312.538 542.401 303.78 542.141 295.183Z" fill="#647D8E"/>
<path d="M596.081 218.739C597.68 218.629 599.696 218.432 601.255 218.872C602.587 219.249 603.741 220.052 604.386 221.309C606.189 224.819 605.325 290.887 603.59 295.148C601.564 300.122 597.298 304.009 592.348 305.96C585.483 308.667 577.713 308.062 571.082 305.055C553.471 295.03 557.166 261.538 564.763 246.17C571.119 233.21 582.396 223.332 596.081 218.739Z" fill="#8299A8"/>
<path d="M616.523 213.127C617.535 206.064 615.213 197.408 619.481 191.473C622.788 186.877 628.991 187.842 632.557 191.555C635.374 194.485 635.076 196.616 635.026 200.42L634.969 346.956C645.008 345.172 655.429 341.39 665.243 338.63C679.792 334.538 693.897 329.298 707.861 323.564C710.082 322.654 713.142 321.204 715.357 320.542C726.11 333.368 721.786 336.423 707.641 341.994L697.361 345.872C684.763 350.997 636.364 366.885 624.79 366.311C618.474 365.998 611.633 363.506 605.578 361.804C588.207 356.898 571.008 351.4 554.012 345.32L544.029 341.518L538.156 339.277C525.601 333.682 529.127 328.247 536.589 320.014C539.863 320.902 543.315 322.293 546.465 323.583C569.327 332.954 592.729 339.854 616.416 346.796C616.821 332.186 616.5 316.296 616.484 301.582L616.523 213.127Z" fill="#A1B5C0"/>
<path d="M554.012 345.319C571.008 351.399 588.206 356.897 605.578 361.804C611.633 363.505 618.474 365.998 624.79 366.311C636.364 366.885 684.763 350.997 697.36 345.872C697.259 349.389 696.826 353.105 696.764 356.341C691.5 396.315 662.779 429.995 625.751 444.688C604.759 435.976 585.82 421.893 572.559 403.302C562.209 388.793 557.767 373.46 554.802 356.18C554.39 352.426 554.2 349.091 554.012 345.319Z" fill="#394E5C"/>
<path d="M596.689 576.263C602.017 575.627 613.524 572.551 619.054 571.364C637.394 567.427 655.727 562.422 674.163 558.908C681.457 557.518 689.533 555.638 696.883 555.031C695.921 562.857 694.695 570.649 693.205 578.392C687.424 581.202 669.118 593.417 664.298 597.389C638.333 613.648 612.958 631.296 586.214 646.407C579.589 650.153 567.379 657.745 560.796 660.574C557.196 662.284 552.793 665.084 549.438 666.277C549.767 662.795 549.641 659.297 550.12 655.72C551.483 645.519 554.445 635.609 557.202 625.711C558.798 622.23 560.154 617.399 560.772 613.614C571.252 608.202 582.294 592.053 586.593 581.024C587.529 578.483 587.575 577.458 590.454 576.576C595.837 574.928 596.242 578.622 596.332 582.286C596.897 579.75 596.768 578.917 596.689 576.263Z" fill="#758D9D"/>
<path d="M586.593 581.023C587.529 578.482 587.575 577.458 590.454 576.576C595.837 574.927 596.242 578.622 596.332 582.285C591.241 597.457 582.802 608.547 570.695 618.861C567.364 632.594 562.881 646.519 560.796 660.573C557.196 662.283 552.793 665.084 549.438 666.276C549.767 662.795 549.641 659.297 550.12 655.72C551.483 645.518 554.445 635.609 557.202 625.711C558.798 622.229 560.154 617.399 560.772 613.614C571.252 608.202 582.294 592.053 586.593 581.023Z" fill="#364A59"/>
<path d="M544.029 341.518L554.012 345.319C554.2 349.091 554.39 352.426 554.802 356.18C557.767 373.46 562.209 388.793 572.559 403.302C585.821 421.893 604.759 435.976 625.752 444.688C662.779 429.995 691.501 396.315 696.765 356.34C696.827 353.105 697.26 349.389 697.361 345.872L707.641 341.994C707.602 343.681 707.608 351.308 707.158 352.329C704.784 377.188 697.366 394.881 683.014 414.864C671.277 428.673 644.609 453.365 626.522 455.398C612.704 456.95 578.189 427.07 569.882 417.327C568.392 414.735 563.536 409.223 561.399 405.752C551.049 388.937 546.056 371.848 544.265 352.333C543.81 350.66 544.017 343.696 544.029 341.518Z" fill="#647D8E"/>
<path d="M544.029 341.518L554.012 345.319C554.2 349.091 554.39 352.426 554.802 356.18C552 354.644 548.04 352.308 545.033 351.599L544.265 352.333C543.81 350.66 544.017 343.696 544.029 341.518Z" fill="#394E5C"/>
<path d="M707.641 341.993C707.602 343.68 707.608 351.307 707.158 352.328L706.432 351.53C703.412 352.343 699.391 354.628 696.765 356.34C696.827 353.104 697.26 349.389 697.361 345.871L707.641 341.993Z" fill="#394E5C"/>
<path d="M683.014 414.864L683.413 415.652C682.817 416.998 682.958 417.068 682.789 418.397C682.289 422.419 680.275 426.274 678.88 430.056C672.031 448.404 661.036 462.743 645.666 474.858C639.013 480.103 633.265 482.802 625.285 485.537C599.527 474.074 581.767 455.865 571.923 429.367C570.476 425.472 569.313 422.442 569.11 418.211L569.881 417.328C578.188 427.07 612.703 456.951 626.522 455.398C644.608 453.366 671.277 428.673 683.014 414.864Z" fill="#20303C"/>
<path d="M451.086 481.578C448.495 462.104 463.117 456.981 479.371 453.792C495.669 450.594 517.832 452.611 532.275 461.33C536.699 464 537.278 470.083 537.948 474.751C537.717 476.592 537.64 478.841 536.685 480.331C533.838 480.084 527.338 475.4 523.442 474.285C498.922 467.266 471.974 467.311 452.758 485.762C451.662 485.015 451.444 483.187 451.086 481.578Z" fill="#8198A7"/>
<path d="M589.275 564.776C618.491 557.734 647.257 551.007 676.968 546.339C679.527 547.531 682.958 548.47 685.837 549.564C688.79 550.685 694.431 553.713 696.928 554.431L696.883 555.032C689.532 555.639 681.456 557.519 674.162 558.909C655.727 562.423 637.393 567.427 619.053 571.365C613.523 572.551 602.017 575.627 596.688 576.264C595.384 570.247 594.325 568.255 589.275 564.776Z" fill="#A1B5C0"/>
<path d="M542.142 295.184C542.402 303.78 541.044 312.538 536.589 320.013C529.127 328.247 525.601 333.681 538.156 339.276C532.042 342.769 491.841 348.908 485.841 347.062C497.08 337.187 536.49 306.904 542.142 295.184Z" fill="#364A59"/>
<path d="M676.969 546.339C684.555 545.203 690.545 544.16 698.25 544.269C697.901 547.683 697.642 551.077 696.928 554.43C694.431 553.713 688.79 550.685 685.838 549.564C682.958 548.47 679.528 547.531 676.969 546.339Z" fill="#8299A8"/>
<path d="M445.618 455.589C432.771 419.366 448.066 376.65 485.652 362.684C497.104 358.429 507.705 358.09 519.777 358.818C532.21 366.232 538.857 383.894 543.013 396.945C546.402 410.605 549.564 436.268 541.958 448.87C541.553 449.534 541.128 450.186 540.684 450.825C530.195 445.176 523.656 443.123 512.216 440.252C506.427 439.27 500.564 438.771 494.692 438.762C477.155 438.77 458.411 442.838 445.618 455.589Z" fill="#8299A8"/>
<path d="M543.013 396.944C546.403 410.604 549.565 436.267 541.958 448.869C541.553 449.533 541.129 450.185 540.684 450.824C530.196 445.175 523.656 443.122 512.217 440.251C514.783 438.942 520.002 437.829 521.955 436.511C526.677 433.323 527.866 428.051 532.804 424.273C539.433 419.2 542.878 405.25 543.013 396.944Z" fill="#647D8E"/>
<path d="M707.923 397.875C710.841 385.272 718.124 369.288 729.141 361.535C736.126 356.622 749.899 358.582 757.88 360.52C774.954 364.665 789.615 375.987 798.726 390.971C808.815 407.868 811.83 428.063 807.123 447.171C806.425 450.04 805.312 453.214 804.299 456.011C790.538 442.892 770.612 438.473 752.065 438.908C747.155 439.003 742.262 439.506 737.437 440.412C731.194 441.338 711.342 449.462 709.868 449.148C700.51 443.533 704.25 406.974 707.923 397.875Z" fill="#8299A8"/>
<path d="M707.923 397.875L708.687 397.864L709.182 397.207C709.801 398.253 710.498 407.508 710.763 409.612C712.607 424.072 719.93 435.378 734.186 440.193C735.3 440.568 736.289 440.472 737.437 440.411C731.194 441.338 711.342 449.462 709.868 449.148C700.51 443.533 704.25 406.974 707.923 397.875Z" fill="#647D8E"/>
<path d="M746.165 452.855C761.58 450.69 801.06 455.165 798.164 477.772C797.798 480.642 798.467 482.189 797.056 485.104C794.396 485.974 793.895 483.612 792.056 481.575C787.698 476.769 775.606 473.371 769.656 471.689C749.539 468.314 730.913 469.772 713.468 480.942C713.316 480.091 713.181 479.236 713.068 478.379C710.358 457.247 729.878 454.668 746.165 452.855Z" fill="#8299A8"/>
<path d="M369.838 815.366C358.398 815.057 343.639 819.246 346.225 804.017C347.166 798.477 344.298 773.659 348.768 770.285C353.161 769.548 361.12 769.801 365.867 769.801L395.661 769.807L502.012 769.846H809.794L881.572 769.818C885.925 769.812 908.87 769.458 912.008 770.217C913.634 772.011 914.623 775.341 914.477 777.562C914.072 783.737 916.069 810.439 912.351 814.191C907.475 816.283 894.878 815.169 888.725 815.439L888.022 819.117C888.214 823.127 888.236 826.529 888.174 830.545C900.097 839.166 895.452 851.764 882.168 855.622C882.179 857.326 882.348 861.617 881.977 863.034L881.904 949.108C874.638 948.242 848.171 948.725 839.719 948.934C831.62 951.059 825.226 953.944 820.794 961.711C820.378 962.448 819.984 963.196 819.608 963.949C816.694 972.458 817.054 977.295 821.075 985.247L767.497 985.225C776.084 990.865 777.22 991.625 781.854 1000.79L782.445 1000.97L881.977 1000.95L910.079 1000.92C915.838 1000.87 921.603 1000.71 927.356 1000.97C932.873 1001.22 934.481 1003.19 936.939 1007.79L937.035 1037.61C937.057 1043.72 938.261 1057.64 933.835 1061.92C932.294 1063.41 930.337 1064.4 928.222 1064.75C924.342 1065.42 907.942 1065.08 903.004 1065.07L850.719 1064.95C842.885 1065.34 832.633 1065.07 824.635 1065.07L766.49 1064.79L595.438 1064.52L497.988 1064.2L472.693 1064.09C469.486 1064.07 461.435 1064.21 458.558 1063.62C459.162 1051.18 458.242 1036.93 458.543 1024.31C458.745 1015.84 458.013 1010.08 459.658 1001.37L460.557 1000.84C464.314 992.311 467.826 990.882 474.7 985.225L354.441 985.236C351.723 976.367 351.043 971.604 356.335 963.499C362.234 956.2 367.543 952.314 376.275 948.815C376.338 920.628 375.778 890.766 376.535 862.764L376.366 855.897C362.476 850.931 358.666 839.959 370.727 830.157C370.632 825.309 370.708 820.112 369.838 815.366Z" fill="#20303C"/>
<path d="M483.266 963.601C495.741 964.129 509.218 963.904 521.758 963.915C538.277 964.039 554.796 963.966 571.312 963.696C574.746 972.543 574.049 976.277 570.496 984.797C581.136 984.853 595.552 984.431 605.812 985.129L677.514 985.14C694.74 985.281 711.966 985.326 729.192 985.264C740.147 985.269 752.554 985.545 763.318 985.151L767.497 985.224C776.084 990.865 777.22 991.624 781.854 1000.79L782.445 1000.97L881.977 1000.95L910.079 1000.92C915.838 1000.87 921.603 1000.71 927.356 1000.97C932.873 1001.22 934.481 1003.19 936.939 1007.79L937.035 1037.61C937.057 1043.72 938.261 1057.64 933.835 1061.92C932.294 1063.41 930.337 1064.4 928.222 1064.75C924.342 1065.42 907.942 1065.08 903.004 1065.07L850.719 1064.95C842.885 1065.34 832.633 1065.07 824.635 1065.07L766.49 1064.79L595.438 1064.52L497.988 1064.2L472.693 1064.09C469.486 1064.07 461.435 1064.21 458.558 1063.62C459.162 1051.18 458.242 1036.92 458.543 1024.3C458.745 1015.84 458.013 1010.08 459.658 1001.37L460.557 1000.84C464.314 992.311 467.826 990.882 474.7 985.224L483.446 985.123L483.478 984.19C479.995 976.305 480.118 971.519 483.266 963.601Z" fill="#566E7F"/>
<path d="M782.445 1000.97L881.977 1000.95L910.08 1000.92C915.839 1000.87 921.603 1000.71 927.356 1000.97C932.873 1001.22 934.482 1003.19 936.94 1007.79L937.035 1037.61C937.058 1043.72 938.261 1057.64 933.835 1061.92C932.294 1063.41 930.337 1064.4 928.222 1064.75C924.342 1065.42 907.943 1065.08 903.005 1065.07L850.72 1064.95C847.351 1064.07 834.832 1064.53 830.395 1064.45C814.895 1064.18 798.608 1064.88 783.171 1064.25C784.745 1050.93 784.177 1013.86 782.445 1000.97Z" fill="#394E5C"/>
<path d="M483.265 963.601C495.74 964.129 509.217 963.904 521.758 963.915C538.276 964.039 554.795 963.966 571.312 963.696C574.745 972.543 574.049 976.277 570.496 984.797C581.135 984.853 595.551 984.431 605.811 985.129L677.513 985.14C694.739 985.281 711.965 985.326 729.191 985.264C740.147 985.269 752.553 985.545 763.317 985.151L767.496 985.224C776.083 990.865 777.219 991.624 781.854 1000.79C773.699 1001.59 753.678 1000.98 744.387 1000.98L665.844 1000.95L532.053 1000.95C508.592 1000.96 483.89 1001.34 460.557 1000.84C464.313 992.311 467.826 990.882 474.7 985.224L483.445 985.123L483.477 984.19C479.995 976.305 480.118 971.519 483.265 963.601Z" fill="#8299A8"/>
<path d="M483.265 963.601C495.74 964.129 509.217 963.904 521.758 963.915C538.276 964.039 554.795 963.966 571.312 963.696C574.745 972.543 574.049 976.277 570.496 984.797C581.135 984.853 595.551 984.431 605.811 985.129C603.181 985.331 600.249 985.376 597.605 985.343C559.569 984.91 521.474 985.579 483.445 985.123L483.477 984.19C479.995 976.305 480.118 971.519 483.265 963.601Z" fill="#566E7F"/>
<path d="M369.838 815.366C358.398 815.057 343.639 819.246 346.225 804.017C347.166 798.477 344.298 773.659 348.768 770.285C353.161 769.548 361.12 769.801 365.867 769.801L395.661 769.807L502.012 769.846H809.794L881.572 769.818C885.925 769.812 908.87 769.458 912.008 770.217C913.634 772.011 914.623 775.341 914.477 777.562C914.072 783.737 916.069 810.439 912.351 814.191C907.475 816.283 894.878 815.169 888.725 815.439C883.754 814.961 873.479 815.253 868.153 815.265L833.555 815.169L704.565 815.315L440.37 815.051C431.12 815.057 374.717 813.892 369.838 815.366Z" fill="#394E5C"/>
<path d="M697.068 855.565C695.19 855.2 693.356 854.952 691.596 854.159C688.301 852.652 685.759 849.885 684.533 846.477C683.323 843.187 683.616 839.374 685.112 836.225C686.49 833.323 689.004 830.977 692.108 830.049C697.389 828.48 746.851 828.593 750.529 830.893C753.313 832.642 755.568 835.583 756.333 838.789C757.132 842.152 756.541 846.657 754.618 849.57C752.104 853.366 747.683 854.677 743.46 855.453L743.449 948.86C753.279 951.037 758.74 954.31 763.74 963.285C767.53 971.822 766.501 976.693 763.318 985.151C752.554 985.545 740.147 985.269 729.192 985.264C711.966 985.325 694.74 985.28 677.514 985.14C677.491 984.735 676.952 983.38 676.788 982.93C673.926 975.039 673.673 971.378 676.625 963.595C677.064 962.774 677.525 961.958 677.998 961.16C682.62 953.517 688.902 950.665 697.091 948.68C696.343 918.727 697.153 885.878 697.068 855.565Z" fill="#647D8E"/>
<path d="M763.74 963.286C767.53 971.823 766.501 976.694 763.318 985.152C752.554 985.546 740.147 985.27 729.192 985.264C711.966 985.326 694.74 985.281 677.514 985.141C677.491 984.736 676.952 983.38 676.788 982.93C673.926 975.04 673.673 971.379 676.625 963.595C684.679 964.051 760.973 964.467 763.74 963.286Z" fill="#566E7F"/>
<path d="M370.727 830.157C377.042 828.425 417.633 828.352 423.392 831.147C430.637 834.662 433.859 852.506 415.527 855.487L415.514 917.451C415.516 926.101 415.052 940.745 415.695 948.889C424.894 951.251 430.654 954.704 435.265 963.308C438.779 970.726 438.144 977.509 434.437 984.657C440.371 984.679 481.161 985.214 483.478 984.19L483.445 985.123L474.7 985.225L354.441 985.236C351.722 976.367 351.042 971.604 356.335 963.5C362.233 956.2 367.543 952.314 376.275 948.816C376.338 920.629 375.778 890.766 376.535 862.764L376.366 855.898C362.476 850.932 358.665 839.959 370.727 830.157Z" fill="#597181"/>
<path d="M435.265 963.309C438.779 970.727 438.144 977.509 434.437 984.657C440.371 984.679 481.161 985.214 483.478 984.19L483.445 985.124L474.7 985.225L354.441 985.236C351.722 976.367 351.042 971.604 356.335 963.5C365.706 963.579 431.075 964.771 435.265 963.309Z" fill="#394E5C"/>
<path d="M376.535 862.765C378.019 865.442 376.258 938.974 376.869 948.827C382.125 947.607 410.512 947.978 415.695 948.889C424.894 951.251 430.654 954.704 435.265 963.309C431.075 964.771 365.706 963.579 356.335 963.5C362.233 956.2 367.543 952.314 376.275 948.816C376.338 920.629 375.778 890.766 376.535 862.765Z" fill="#647D8E"/>
<path d="M504.062 855.504C485.731 852.146 487.084 832.322 500.665 829.622C511.113 827.553 532.894 830.719 543.727 829.308C566.465 826.349 570.706 850.825 550.47 855.605L550.466 948.9C560.285 950.559 566.488 954.974 571.312 963.696C554.796 963.966 538.277 964.039 521.758 963.916C509.218 963.904 495.741 964.129 483.266 963.601C487.192 956.301 491.714 952.252 499.871 949.738C501.247 949.322 502.632 948.934 504.023 948.579L504.062 855.504Z" fill="#647D8E"/>
<path d="M839.786 855.38L881.797 855.312C881.802 857.32 881.679 861.212 881.977 863.034L881.904 949.108C874.638 948.242 848.171 948.726 839.719 948.934C840.759 919.751 839.826 884.889 839.786 855.38Z" fill="#394E5C"/>
<path d="M887.561 830.163C887.549 826.411 887.398 822.812 888.022 819.117C888.213 823.127 888.236 826.529 888.174 830.545C900.096 839.166 895.451 851.764 882.167 855.622C882.179 857.326 882.347 861.617 881.976 863.034C881.678 861.212 881.802 857.32 881.796 855.313L839.786 855.38C835.371 854.958 832.334 853.794 829.533 850.178C827.194 847.203 826.215 843.384 826.839 839.656C827.745 834.493 833.178 829.679 838.217 829.825C851.753 830.213 874.839 827.514 887.561 830.163Z" fill="#647D8E"/>
<path d="M321.125 1004.96C322.637 1003.01 324.37 1000.85 326.77 999.982C329.764 998.897 442.042 999.184 453.616 999.814C455.842 999.932 457.629 1000.47 459.657 1001.37C458.013 1010.08 458.745 1015.84 458.543 1024.31C458.241 1036.93 459.161 1051.18 458.557 1063.62C449.259 1062.97 434.786 1063.39 424.938 1063.37L362.401 1063.31C351.612 1063.31 340.612 1063.61 329.913 1062.84C324.281 1062.43 320.196 1058.73 320.381 1052.99C320.824 1039.34 318.318 1017.83 321.125 1004.96Z" fill="#394E5C"/>
<path d="M736.037 695.79C760.709 692.647 783.176 716.863 786.804 739.443C787.686 744.949 788.046 748.537 788.108 754.167L743.831 754.138L690.635 754.178C692.536 725.344 704.655 699.84 736.037 695.79Z" fill="#566E7F"/>
<path d="M503.242 696.848C504.324 696.707 505.412 696.612 506.502 696.561C531.362 695.554 551.036 714.867 555.982 738.229C557.201 743.982 557.43 748.177 557.611 754.105L516.485 754.088L460.125 754.139C459.909 726.542 475.181 702.236 503.242 696.848Z" fill="#647D8E"/>
<path d="M881.903 949.108C890.716 952.955 895.94 956.026 901.643 963.938C906.564 971.93 905.175 976.508 903.499 985.495L851.579 985.439C842.457 985.45 830.028 985.748 821.075 985.247C817.054 977.295 816.694 972.459 819.607 963.95C819.984 963.196 820.377 962.448 820.794 961.711C825.225 953.945 831.62 951.06 839.718 948.934C848.171 948.726 874.637 948.242 881.903 949.108Z" fill="#394E5C"/>
<path d="M881.903 949.108C890.716 952.955 895.941 956.026 901.643 963.938C875.666 963.207 845.916 963.95 819.607 963.95C819.984 963.196 820.378 962.448 820.794 961.711C825.226 953.945 831.62 951.06 839.719 948.934C848.171 948.726 874.637 948.242 881.903 949.108Z" fill="#647D8E"/>
</svg>
