<svg width="1254" height="1254" viewBox="0 0 1254 1254" fill="none" xmlns="http://www.w3.org/2000/svg">
<path d="M627.998 62.471C655.097 60.9484 696.344 66.7521 715.616 89.1295C721.532 95.9967 720.829 104.852 719.338 113.195C747.509 141.394 754.459 167.799 751.65 206.81C758.905 215.53 760.367 218.565 765.573 228.621C767.412 228.651 769.251 228.757 771.082 228.938C779.662 229.783 793.172 232.833 801.867 234.568C836.518 241.126 870.683 250.021 904.125 261.191C920.669 266.805 939.623 272.197 950.975 286.34C963.233 301.609 961.285 321.176 961.198 339.493C961.307 376.515 958.874 413.502 953.922 450.191C941.628 540.33 901.569 669.182 825.926 726.718C826.237 735.464 827.946 746.585 829.068 755.476L834.339 798.098L851.092 930.989C853.517 950.457 856.5 971.2 858.361 990.589C892.512 1007.94 886.908 1036.2 886.778 1069.02C916.23 1084.32 917.193 1104.15 916.252 1134.81C915.948 1144.9 917.012 1155.9 915.955 1166.01C915.564 1169.61 914.681 1173.14 913.342 1176.51C907.528 1191.02 893.707 1200.25 878.249 1200.38C847.552 1200.64 816.803 1200.54 786.098 1200.51L619.505 1200.48L482.647 1200.43C457.867 1200.46 432.723 1200.76 407.943 1200.22C403.213 1200.12 397.29 1197.42 392.923 1195.47C369.739 1180.53 373.735 1159.69 373.514 1135.88C373.437 1127.64 373.158 1117.75 374.019 1109.65C374.482 1105.02 375.549 1100.47 377.191 1096.11C382.314 1082.72 391.154 1074.81 404.045 1069.12C406.329 1037.06 396.849 1006.66 433.323 990.147C435.194 971.67 438.772 950.131 441.361 931.568L454.8 832.886L467.811 738.353C470.069 721.846 472.233 701.769 475.233 685.602C463.249 671.984 457.861 660.581 455.07 642.828C434.405 633.054 428.034 620.015 428.389 597.483C428.627 582.328 428.488 566.542 428.502 551.356L428.448 514.751C428.393 496.625 426.356 476.621 444.065 465.196C455.046 458.101 468.716 459.118 481.165 457.662C495.041 456.038 506.273 454.87 520.064 457.733C517.379 447.211 514.658 435.83 512.869 425.131C504.399 423.406 494.216 422.803 485.536 421.616C457.182 417.741 426.716 416.904 398.513 413.095C387.653 428.037 371.727 435.863 352.872 430.207C349.002 428.73 346.012 426.485 341.83 425.788C324.635 422.926 303.951 423.622 291.919 408.841C288.72 404.911 286.734 401.624 284.217 397.362C281.42 398.263 278.583 399.192 275.738 399.932C251.57 406.224 228.262 392.288 222.584 367.795C219.715 355.427 221.943 342.426 228.764 331.72C243.555 308.718 269.537 307.547 291.166 321.793C307.764 293.578 341.518 282.318 371.831 292.865C380.197 295.776 384.518 297.081 391.7 302.277C420.794 298.996 451.174 293.594 480.696 289.978C481.399 288.332 482.152 286.707 482.954 285.106C486.813 277.454 493.135 274.89 500.688 272.436C501.254 271.719 501.824 271.005 502.4 270.295C518.915 249.947 535.959 243.858 561.399 241.184C561.164 236.936 561.129 219.171 560.459 217.555C553.844 201.58 554.17 196.536 561.368 180.437C562.001 179.022 564.197 167.336 564.916 164.23C568.251 149.834 574.176 139.351 583.288 127.82C577.222 113.801 562.37 97.3535 572.143 81.6289C581.485 66.5978 611.953 64.0305 627.998 62.471Z" fill="#A6BED0"/>
<path d="M632.632 79.1639C650.045 78.151 692.276 83.6824 703.78 101.449C706.379 105.458 701.985 114.41 700.146 118.728C731.821 139.008 738.728 175.838 735.086 210.604C743.347 224.728 751.644 227.358 750.543 243.894C757.863 244.352 765.342 244.531 772.589 245.66C778.461 246.574 784.209 248.303 790.038 249.491C819.99 255.606 913.068 275.237 934.1 292.761C940.949 298.473 944.062 306.124 944.895 314.855C945.59 322.076 945.097 329.693 945.032 336.947C945.025 351.844 944.612 366.737 943.78 381.61C938.038 486.766 911.547 605.632 842.166 688.47C833.485 698.845 821.597 712.897 807.617 714.005C808.905 736.876 813.843 761.138 815.914 784.118C822.451 856.648 837.496 931.235 843.122 1003.5C850.456 1004.42 856.146 1006.9 861.417 1012.32C865.457 1016.49 868.281 1021.69 869.57 1027.36C871.278 1034.85 870.532 1071.52 870.496 1081.75C887.047 1084.85 899.963 1095.42 899.912 1113.65C899.073 1130.63 901.527 1149.43 899.203 1166.14C896.756 1183.7 880.922 1183.68 868.114 1183.7L548.489 1183.68L452.314 1183.62C438.147 1183.61 423.08 1184.17 409.049 1183.35C395.967 1182.59 390.128 1170.02 390.272 1158.52C390.498 1147.27 389.302 1115.81 391.26 1106.98C392.409 1101.66 394.873 1096.71 398.426 1092.59C404.564 1085.5 411.69 1082.61 420.761 1081.84C420.659 1069.73 420.909 1056.59 420.491 1044.56C419.768 1023.76 424.861 1007.57 448.069 1003.25L474.642 808.278C480.519 765.344 485.971 721.187 492.422 678.442C475.361 664.592 471.269 650.387 470.3 628.949C440.467 625.438 444.692 603.367 444.684 580.718L444.698 535.723C444.704 528.329 444.166 500.791 445.005 494.132C445.472 490.36 446.872 486.765 449.079 483.671C456.122 473.887 471.293 475.298 482.296 474.33C499.689 472.798 511.451 468.966 526.493 480.43C526.722 479.453 526.969 478.481 527.234 477.514C529.565 469.09 531.838 466.314 539.269 462.13C533.125 444.32 529.815 427.789 526.971 409.303C520.918 408.769 514.996 408.062 508.969 407.346C468.859 402.586 428.115 398.279 387.791 395.754C383.74 416.643 362.782 420.466 346.742 408.162C334.296 410.149 335.575 408.01 324.293 405.573C319.274 404.49 316.152 407.309 309.126 402.169C301.436 396.544 297.524 388.653 295.722 379.608C290.77 379.436 286.809 378.942 281.899 378.336C270.92 385.765 259.271 388.058 248.195 378.962C242.3 374.134 238.64 367.101 238.067 359.502C236.086 333.876 264.616 318.105 284.584 338.567L300.71 338.822C309.235 319.307 325.963 306.605 347.688 305.673C360.302 305.131 377.155 310.864 386.301 319.572C420.934 316.364 458.444 308.744 493.561 305.075C495.106 292.342 497.935 289.787 509.945 287.2C529.156 262.597 549.618 253.751 580.752 259.937C578.796 244.384 575.027 227.942 578.696 212.996C575.584 209.969 570.913 205.405 571.049 200.639C571.158 196.845 575.86 190.733 576.892 186.898C578.37 181.405 579.139 175.512 580.504 170.006C584.817 152.607 591.269 142.615 603.936 130.588C584.03 96.6001 570.639 85.6169 620.701 80.1616C624.654 79.7308 628.65 79.4224 632.632 79.1639Z" fill="#395066"/>
<path d="M486.082 624.655C527.081 623.381 567.964 619.529 609.868 618.704C633.492 618.197 657.123 618.161 680.747 618.61C700.368 619.073 718.417 620.253 738.392 620.398C744.764 636.406 748.833 645.753 757.043 660.979C758.882 665.496 762.386 671.433 764.833 675.864C763.117 675.951 762.799 675.886 761.191 676.429C765.991 676.697 765.897 675.763 768.837 679.766C773.413 688.664 783.085 699.322 790.311 705.99C792.736 733.35 797.797 760.637 799.737 788.063C800.077 791.473 800.157 795.107 800.722 798.481C805.406 826.507 809.381 855.41 812.299 883.66C815.875 920.657 822.044 957.436 826.286 994.382C827.582 1005.71 819.662 1003.69 811.003 1003.81C777.995 1004.26 744.937 1003.63 711.952 1003.63C700.237 1004.55 677.373 1003.93 664.798 1003.94L570.576 1003.96C547.146 1004.16 523.714 1004.21 500.282 1004.11C492.398 1004.1 473.977 1004.5 466.801 1003.61C466.273 1003.04 465.889 1002.69 465.524 1001.95C463.491 997.835 474.163 926.21 476.13 916.762C476.363 909.558 477.924 900.146 478.934 892.841C482.771 864.206 486.772 835.594 490.935 807.01C491.447 802.927 492.457 790.59 493.601 787.404C495.418 766.77 500.313 734.472 503.729 713.773C504.025 706.945 507.056 687.253 508.506 680.404C507.139 674.134 503.884 672.237 501.604 666.068C487.352 648.576 486.924 648.511 486.082 624.655Z" fill="#4D677F"/>
<path d="M479.695 913.279C484.683 908.102 564.771 910.462 578.285 910.513C598.432 910.593 621.915 910.643 642.165 910.745L684.527 910.94C690.529 910.976 705.523 909.97 708.737 913.815C713.422 919.418 714.124 945.569 714.37 952.889C714.87 967.738 716.918 983.478 716.578 997.596C715.058 999.775 713.827 1001.73 711.952 1003.63C700.237 1004.55 677.373 1003.93 664.797 1003.94L570.576 1003.96C547.146 1004.16 523.714 1004.21 500.282 1004.11C492.398 1004.1 473.977 1004.5 466.801 1003.61C466.273 1003.04 465.889 1002.69 465.524 1001.95C463.491 997.835 474.163 926.209 476.13 916.761L479.695 913.279Z" fill="#567189"/>
<path d="M479.695 913.279C490.817 910.368 540.984 910.564 554.873 910.991C556.479 912.794 558.501 914.93 559.853 916.855C559.855 930.807 556.764 951.492 555.625 965.914C555.021 973.552 553.071 996.641 551.591 1002.98C532.478 1004.63 509.421 1002.82 489.893 1003.24C483.035 1003.38 473.508 1002.85 466.801 1003.61C466.273 1003.04 465.889 1002.69 465.524 1001.95C463.491 997.835 474.163 926.209 476.13 916.761L479.695 913.279Z" fill="#648098"/>
<path d="M503.732 713.772C511.43 699.944 552.083 690.582 566.99 689.105C589.917 687.143 614.327 687.302 637.027 691.089C651.775 693.543 677.883 695.419 678.187 715.039C678.469 733.523 678.15 752.238 679.15 770.794C679.504 777.238 676.985 780.771 672.525 784.934C660.239 786.223 632.69 785.47 619.26 785.506C592.954 785.832 566.652 786.389 540.355 787.171C531.256 787.418 522.162 787.845 513.079 788.446C503.876 789.025 502.39 790.379 493.604 787.403C495.42 766.769 500.315 734.471 503.732 713.772Z" fill="#648098"/>
<path d="M486.084 624.655C527.082 623.381 567.965 619.529 609.87 618.704C633.493 618.197 657.125 618.161 680.749 618.61C700.369 619.073 718.419 620.253 738.394 620.398C744.765 636.406 748.834 645.753 757.044 660.979C753.156 662.267 725.709 660.472 719.374 660.269C675.116 658.959 630.829 659.111 586.586 660.718C559.224 661.645 528.725 662.926 501.606 666.068C487.353 648.576 486.925 648.511 486.084 624.655Z" fill="#4E687F"/>
<path d="M490.939 807.011C492.07 806.084 494.489 804.158 495.777 804.013C513.096 802.029 537.359 801.407 554.55 801.327C559.861 801.544 565.173 801.725 570.486 801.863C567.865 801.993 565.196 802.167 562.578 802.153L567.318 806.909C566.693 817.313 560.732 887.918 557.291 894.738C555.782 895.918 556.281 895.752 554.568 896.36C531.673 895.23 507.078 898.351 484.147 896.968C481.969 896.838 479.961 894.666 478.938 892.841C482.774 864.207 486.775 835.594 490.939 807.011Z" fill="#6E89A1"/>
<path d="M554.549 801.326C570.729 799.625 587.648 800.849 603.929 800.4C614.31 800.117 624.306 799.205 624.219 813.157C624.089 834.413 624.067 855.685 624.132 876.956C624.132 881.249 623.958 885.34 623.061 889.553C618.622 894.535 615.277 896.091 608.166 896.229C590.447 896.569 572.274 895.997 554.566 896.359C556.279 895.751 555.781 895.917 557.289 894.737C560.73 887.917 566.692 817.312 567.317 806.909L562.577 802.152C565.195 802.166 567.863 801.993 570.485 801.862C565.171 801.725 559.859 801.544 554.549 801.326Z" fill="#648098"/>
<path d="M501.605 666.068C528.724 662.926 559.224 661.645 586.585 660.718C630.828 659.111 675.116 658.959 719.374 660.269C725.709 660.472 753.156 662.267 757.044 660.979C758.883 665.496 762.387 671.433 764.834 675.864C763.118 675.951 762.8 675.886 761.192 676.429C765.993 676.697 765.898 675.763 768.838 679.766C764.204 677.674 743.179 677.037 736.714 676.726C667.999 673.439 599.153 673.931 530.492 678.202C526.668 678.441 511.293 679.071 508.507 680.403C507.14 674.134 503.885 672.237 501.605 666.068Z" fill="#567189"/>
<path d="M645.652 799.972C663.419 799.473 682.308 800.146 700.06 800.602C712.513 800.928 729.766 800.276 741.727 801.732L745.13 806.032C746.73 823.307 748.583 840.553 750.697 857.77C751.747 866.363 758.241 893.181 748.076 896.178L677.739 895.997C668.747 895.968 654.405 897.575 646.108 895.222C643.523 894.491 641.025 892.21 639.736 889.879C638.564 887.743 638.433 885.296 638.274 882.914C637.651 873.64 637.774 811.419 639.136 806.901C640.287 803.078 642.198 801.732 645.652 799.972Z" fill="#567189"/>
<path d="M696.982 687.108C711.715 686.638 718.962 687.231 732.552 692.741C737.395 711.312 738.764 738.476 741.348 757.988C742.166 764.128 743.752 779.144 743.701 785.03C742.319 786.485 742.152 785.971 739.386 786.065C726.76 785.949 713.105 786.565 700.739 784.4C694.86 783.365 693.369 775.56 693.275 770.506C692.811 744.116 690.943 717.147 692.399 690.866C692.485 689.36 695.78 687.738 696.982 687.108Z" fill="#567189"/>
<path d="M709.515 405.218C708.016 388.739 707.545 370.25 706.792 353.607C705.779 331.424 705.562 308.178 706.742 286.046C707.118 279.079 710.224 268.001 715.799 264.08C726.674 256.432 755.598 261.257 768.21 262.628C783.537 264.507 798.77 267.044 813.872 270.232C832.559 274.147 917.166 294.928 926.122 306.331C928.366 309.19 929.155 313.17 929.517 316.697C930.43 325.608 929.742 335.197 929.568 344.182C929.09 369.444 927.606 394.676 925.116 419.818C923.342 435.956 921.155 452.044 918.556 468.069C905.321 547.43 873.291 638.108 813.612 695C801.173 706.859 776.268 662.818 771.439 653.696C733.161 581.445 713.75 486.096 709.515 405.218Z" fill="#88A2B8"/>
<path d="M709.515 405.218C708.016 388.739 707.545 370.25 706.792 353.607C705.779 331.424 705.562 308.178 706.742 286.046C707.118 279.079 710.224 268.001 715.799 264.08C726.674 256.432 755.598 261.257 768.21 262.628L766.103 264.146C766.168 265.219 765.951 265.845 766.754 266.176C774.842 269.514 778.635 269.388 786.896 273.584C786.867 274.318 786.845 275.053 786.824 275.788L789.532 276.91L789.437 277.881L787.859 278.33C796.822 280.198 807.349 281.228 815.885 283.356L816.044 373.992C796.554 370.097 747.655 361.181 729.751 366.266C729.15 378.862 731.394 391.112 730.967 402.724C721.881 403.321 714.329 407.951 709.515 405.218Z" fill="#648098"/>
<path d="M709.515 405.218C708.016 388.739 707.545 370.25 706.792 353.607C705.779 331.424 705.562 308.178 706.742 286.046C707.118 279.079 710.224 268.001 715.799 264.08C726.674 256.432 755.598 261.257 768.21 262.628L766.103 264.146C766.168 265.219 765.951 265.845 766.754 266.176C774.842 269.514 778.635 269.388 786.896 273.584C786.867 274.318 786.845 275.053 786.824 275.788L789.532 276.91L789.437 277.881L787.859 278.33C776.369 276.905 765.372 275.496 753.787 274.89C739.163 274.122 731.039 274.97 729.599 292.071C727.542 316.584 730.482 341.884 729.751 366.266C729.15 378.862 731.394 391.112 730.967 402.724C721.881 403.321 714.329 407.951 709.515 405.218Z" fill="#A6BED0"/>
<path d="M732.081 403.653C741.464 404.042 812.626 409.665 816.601 413.446C817.492 416.95 815.175 420.148 815.124 425.043C813.662 496.067 808.391 566.96 799.334 637.419L796.973 655.947C760.86 593.101 745.272 522.291 735.694 450.816C734.173 439.448 731.719 414.719 732.081 403.653Z" fill="#567189"/>
<path d="M852.687 417.937C871.149 420.772 897.119 427.052 914.857 432.865C903.7 503.671 891.125 565.546 853.455 628.421C843.869 644.356 838.902 651.502 827.637 666.141C830.909 650.597 833.545 628.993 835.731 612.848C840.719 576.118 844.738 539.261 847.786 502.317C848.98 486.62 849.987 470.91 850.805 455.188C851.109 448.704 851.022 422.359 852.687 417.937Z" fill="#567189"/>
<path d="M852.693 291.893C863.228 294.348 914.089 309.088 918.281 315.174C923.631 322.936 919.121 383.322 918.657 395.898C918.303 396.268 917.941 396.638 917.586 397.008C895.547 392.024 876.976 384.417 852.874 380.9C853.113 351.231 853.055 321.56 852.693 291.893Z" fill="#648098"/>
<path d="M541.838 481.354C543.769 478.786 545.267 476.667 548.67 476.165C556.196 475.056 607.678 473.625 611.282 476.606C613.959 478.82 614.037 482.296 614.026 485.475C613.972 494.239 612.848 526.829 615.323 532.455C616.949 534.049 616.841 534.266 619.02 534.584C629.076 533.624 653.345 535.24 660.766 533.574C662.388 528.945 662.069 487.46 661.505 481.151C663.126 478.531 664.603 476.028 667.883 475.533C678.07 474.001 691.42 475.149 701.817 475.25C702.179 478.885 702.44 482.637 703.229 486.19C706.009 505.055 711.446 532.793 716.42 551.597C721.445 571.139 726.368 586.309 732.464 605.374C725.601 605.341 711.258 605.637 705.024 604.549C685.136 604.85 663.532 603.722 643.231 603.748C608.817 603.958 574.416 605.104 540.067 607.185C516.299 608.584 491.341 610.646 467.531 612.029C464.877 612.181 461.694 606.98 460.571 604.793C460.041 581.031 460.752 556.878 460.475 533.118C460.369 523.971 461.051 508.613 460.109 500.16C460.862 490.653 469.377 490.827 477.197 490.187C485.365 489.519 493.911 488.662 502.075 488.597C506.661 488.539 512.374 487.644 515.541 490.661C519.481 498.329 514.848 526.783 517.575 536.392C517.789 537.145 518.761 537.201 519.751 537.52L540.102 536.129C543.451 529.747 540.694 493.075 541.838 481.354Z" fill="#6E89A1"/>
<path d="M460.57 604.792C488.23 601.188 515.108 599.688 542.889 598.06C601.566 594.639 660.36 593.806 719.113 595.562C717.477 599.201 716.666 600.832 714.538 604.187C711.475 604.261 708.029 604.244 705.024 604.548C685.136 604.85 663.531 603.721 643.23 603.747C608.816 603.957 574.416 605.103 540.067 607.185C516.298 608.583 491.34 610.645 467.531 612.028C464.877 612.18 461.694 606.98 460.57 604.792Z" fill="#648098"/>
<path d="M541.84 481.353C543.77 478.785 545.269 476.666 548.672 476.164C556.198 475.054 607.679 473.624 611.283 476.605C613.961 478.819 614.038 482.295 614.027 485.474C602.367 486.394 555.4 486.111 549.763 489.246C544.297 487.213 542.328 487.373 541.84 481.353Z" fill="#A6BED0"/>
<path d="M502.076 488.597C506.661 488.54 512.374 487.645 515.542 490.662C519.481 498.329 514.849 526.783 517.576 536.393C517.789 537.145 518.762 537.202 519.752 537.521C515.564 537.913 509.255 538.266 505.074 537.889C503.198 531.824 503.898 500.139 503.879 491.903L502.076 488.597Z" fill="#567189"/>
<path d="M660.767 533.574C663.859 536.266 667.023 538.666 669.238 542.081C664.706 545.507 614.547 545.596 611.664 542.44C612.8 539.866 616.415 535.892 619.021 534.584C629.078 533.624 653.346 535.241 660.767 533.574Z" fill="#8CA6BA"/>
<path d="M660.766 533.573C662.387 528.945 662.069 487.459 661.504 481.15C663.452 484.746 667.245 486.611 671.198 487.812C671.3 497.203 672.668 535.53 669.236 542.08C667.021 538.665 663.857 536.265 660.766 533.573Z" fill="#7D97AF"/>
<path d="M661.506 481.151C663.128 478.531 664.605 476.028 667.884 475.533C678.071 474.001 691.422 475.149 701.818 475.25C702.18 478.885 702.441 482.637 703.23 486.19C696.251 486.288 675.602 485.442 671.2 487.812C667.247 486.611 663.453 484.746 661.506 481.151Z" fill="#8CA6BA"/>
<path d="M541.84 481.353C542.328 487.373 544.298 487.213 549.763 489.246C549.051 500.707 552.172 536.165 546.738 543.737C544.513 541.044 542.573 538.619 540.104 536.128C543.453 529.746 540.696 493.074 541.84 481.353Z" fill="#8CA6BA"/>
<path d="M519.753 537.52L540.104 536.129C542.573 538.62 544.513 541.046 546.738 543.738C541.144 547.704 522.567 546.822 515.122 547.881C510.991 548.468 499.674 549.662 499.248 543.954C500.56 541.226 502.699 539.864 505.075 537.889C509.257 538.265 515.565 537.912 519.753 537.52Z" fill="#A6BED0"/>
<path d="M716.423 551.597C721.448 571.138 726.371 586.308 732.467 605.373C725.603 605.34 711.261 605.636 705.027 604.549C708.032 604.244 711.478 604.261 714.541 604.188C716.669 600.832 717.48 599.201 719.116 595.562C719.29 583.259 711.674 565.038 716.423 551.597Z" fill="#567189"/>
<path d="M460.109 500.16C460.862 490.653 469.377 490.827 477.197 490.187C485.365 489.519 493.911 488.662 502.075 488.597L503.878 491.903C500.442 494.116 498.172 495.555 494.993 498.217C490.869 497.727 466.764 499.909 460.109 500.16Z" fill="#8CA6BA"/>
<path d="M467.762 1097.47L742.868 1097.55L827.417 1097.57C837.531 1097.55 847.797 1097.61 857.897 1097.49C870.77 1097.36 880.638 1097.41 884.193 1112.13C883.73 1121.98 885.728 1158.88 882.767 1164.7C876.301 1169 852.554 1167.67 843.308 1167.68L784.461 1167.69L502.903 1167.72C502.671 1154.33 501.769 1124.59 503.094 1112.56C485.238 1112.73 467.379 1112.59 449.525 1112.15C455.713 1104.94 459.458 1102.35 467.762 1097.47Z" fill="#567189"/>
<path d="M467.762 1097.47L742.868 1097.55L827.417 1097.57C837.531 1097.55 847.797 1097.61 857.897 1097.49C870.77 1097.36 880.638 1097.41 884.193 1112.13C883.73 1121.98 885.728 1158.88 882.767 1164.7C876.301 1169 852.554 1167.67 843.308 1167.68L784.461 1167.69C785.663 1154.89 785.779 1125.3 783.969 1112.7C754.567 1112.24 723.891 1112.7 694.374 1112.71L503.094 1112.56C485.238 1112.73 467.379 1112.59 449.525 1112.15C455.713 1104.94 459.458 1102.35 467.762 1097.47Z" fill="#7C96AC"/>
<path d="M783.971 1112.7C806.56 1113.22 829.489 1112.39 852.114 1112.6C862.655 1112.7 873.696 1112.65 884.194 1112.13C883.731 1121.98 885.729 1158.88 882.768 1164.7C876.303 1169 852.556 1167.67 843.31 1167.68L784.463 1167.69C785.665 1154.89 785.781 1125.3 783.971 1112.7Z" fill="#4D677F"/>
<path d="M436.505 1032.7C441.224 1014.8 458.01 1018.69 473.062 1018.66L514.207 1018.72L566.799 1018.86C577.081 1018.87 590.33 1018.51 600.407 1019.22C615.671 1018.53 633.798 1019.12 649.422 1019.11L742.696 1019.08L805.843 1019.15C817.362 1019.14 828.968 1018.96 840.472 1019.4C848.907 1019.71 852.505 1025.9 855.025 1032.99L854.974 1033.59C854.207 1043.69 856.357 1073.89 854.134 1080.12C846.887 1084.39 781.9 1082.36 768.977 1082.34H522.87C510.876 1082.38 444.768 1083.2 437.834 1080.91C435.737 1077.91 436.596 1039.29 436.505 1032.7Z" fill="#567189"/>
<path d="M436.505 1032.7C441.224 1014.8 458.01 1018.69 473.062 1018.66L514.207 1018.72L566.799 1018.86C577.081 1018.87 590.33 1018.51 600.407 1019.22C615.671 1018.53 633.798 1019.12 649.422 1019.11L742.696 1019.08L805.843 1019.15C817.362 1019.14 828.968 1018.96 840.472 1019.4C848.907 1019.71 852.505 1025.9 855.025 1032.99L846.764 1033.2C815.704 1031.42 773.886 1033.5 741.754 1033.51C718.912 1034.72 689.322 1033.91 666.024 1033.93L523.281 1033.99C523.716 1041.65 523.791 1046.85 523.603 1054.49C523.431 1061.46 521.557 1076.47 522.87 1082.34C510.876 1082.38 444.768 1083.2 437.834 1080.91C435.737 1077.91 436.596 1039.29 436.505 1032.7Z" fill="#7D98AE"/>
<path d="M436.505 1032.7C448.509 1033.62 464.148 1033.23 476.365 1033.07L657.01 1033.26L712.845 1033.22C720.085 1033.22 735.065 1032.82 741.754 1033.51C718.912 1034.72 689.322 1033.91 666.024 1033.93L523.281 1033.99C523.716 1041.65 523.791 1046.85 523.603 1054.49C523.431 1061.46 521.557 1076.47 522.87 1082.34C510.876 1082.38 444.768 1083.2 437.834 1080.92C435.737 1077.91 436.596 1039.29 436.505 1032.7Z" fill="#648098"/>
<path d="M436.504 1032.7C441.222 1014.8 458.009 1018.69 473.061 1018.66L514.205 1018.72L566.798 1018.86C577.08 1018.87 590.328 1018.51 600.406 1019.22C595.186 1019.8 590.129 1019.65 584.893 1019.69C552.749 1019.98 520.504 1019.07 488.373 1019.58C484.627 1024.17 479.319 1028.64 476.363 1033.07C464.147 1033.23 448.508 1033.62 436.504 1032.7Z" fill="#7D97AF"/>
<path d="M855.022 1032.99L854.972 1033.59C854.204 1043.69 856.355 1073.89 854.132 1080.12C846.885 1084.39 781.898 1082.36 768.975 1082.34C773.782 1072.24 771.487 1044.95 769.148 1034.01C785.446 1033.85 801.736 1033.78 818.033 1033.79C823.897 1033.8 841.686 1034.27 846.762 1033.2L855.022 1032.99Z" fill="#4D677F"/>
<path d="M604.593 101.562L603.468 99.34L604.015 98.3133C630.04 90.6867 664.155 93.9831 688.322 106.78L685.513 113.8L681.422 123.871C683.674 125.32 690.805 129.521 692.304 131.023C709.687 145.022 717.601 159.111 720.504 181.357C722.727 198.371 715.465 214.113 727.997 227.987C730.111 230.324 732.102 233.753 734.636 235.636C735.795 238.314 735.65 238.545 735.339 241.554C734.224 243.304 733.869 243.837 731.067 244.154C717.637 245.673 712.873 244.754 702.317 255.846C701.492 257.221 701.303 257.277 700.203 258.475C695.135 259.418 689.893 254.505 686.707 251.034C683.095 256.445 684.137 259.031 682.096 262.634C672.459 271.763 660.875 277.435 648.676 282.405C636.534 286.793 627.202 289.345 614.626 292.41C610.842 291.399 599.898 280.401 596.815 277.195C596.12 269.191 589.757 225.058 591.528 220.933C591.781 216.403 592.211 212.006 592.64 207.494C589.347 204.984 588.911 203.958 587.045 200.238C586.846 199.991 586.585 199.062 586.465 198.705C587.746 195.785 590.086 193.664 592.286 191.277C594.127 167.934 600.448 145.392 624.508 136.295C624.4 129.928 625.732 127.391 619.404 125.907C616.385 124.744 606.57 105.267 604.593 101.562Z" fill="#7B95AC"/>
<path d="M665.857 213.857C667.993 216.515 668.102 216.626 668.565 219.955C666.856 235.349 669.064 252.472 682.096 262.634C672.46 271.762 660.876 277.434 648.676 282.405C636.535 286.793 627.203 289.345 614.627 292.41C610.843 291.399 599.899 280.401 596.816 277.195C596.121 269.191 589.758 225.058 591.529 220.932C596.943 224.426 601.128 226.787 606.831 229.829C618.645 227.839 658.168 219.919 665.857 213.857Z" fill="#7D97AF"/>
<path d="M665.857 213.857C667.993 216.515 668.102 216.626 668.565 219.955C647.069 226.647 630.113 231.866 608.113 235.801C610.427 252.265 612.25 267.99 615.055 284.432C616.183 286.713 615.253 289.897 614.627 292.41C610.843 291.399 599.899 280.401 596.816 277.195C596.121 269.191 589.758 225.058 591.529 220.932C596.943 224.426 601.128 226.787 606.831 229.829C618.645 227.839 658.168 219.919 665.857 213.857Z" fill="#A6BED0"/>
<path d="M615.055 284.432C620.353 286.121 646.033 274.639 649.19 275.127C649.139 277.597 648.893 279.95 648.676 282.405C636.535 286.793 627.202 289.345 614.627 292.41C615.252 289.897 616.183 286.714 615.055 284.432Z" fill="#8CA6BA"/>
<path d="M624.508 136.295L631.444 137.44C615.078 154.453 610.672 174.233 610.248 197.263C621.12 196.706 631.966 195.788 642.775 194.513C651.651 193.474 662.171 191.614 670.939 192.078C674.942 184.601 677.237 182.423 685.81 183.249L689.546 185.956C697.777 194.1 692.188 205.258 680.104 205.683C676.419 203.566 675.377 202.382 672.879 199.005L671.597 199.914L672.734 201.592C671.12 207.604 667.072 210.297 665.856 213.857C658.167 219.919 618.644 227.839 606.83 229.829C601.127 226.787 596.942 224.426 591.528 220.932C591.781 216.402 592.211 212.006 592.64 207.493C589.347 204.983 588.911 203.958 587.045 200.237C586.846 199.991 586.585 199.062 586.465 198.705C587.746 195.785 590.086 193.664 592.286 191.276C594.127 167.934 600.448 145.392 624.508 136.295Z" fill="#A6BED0"/>
<path d="M592.639 207.494C594.9 208.39 601.095 210.29 603.314 210.167C619.512 209.264 657.472 204.617 671.597 199.914L672.734 201.592C671.119 207.604 667.072 210.298 665.856 213.858C658.167 219.92 618.643 227.84 606.83 229.829C601.127 226.788 596.941 224.426 591.527 220.933C591.781 216.402 592.211 212.006 592.639 207.494Z" fill="#395066"/>
<path d="M587.045 200.237C601.521 205.658 603.797 207.362 619.781 204.624C637.504 201.588 655.836 199.848 673.35 195.514L672.879 199.005L671.598 199.913C657.472 204.617 619.513 209.263 603.315 210.166C601.096 210.29 594.901 208.389 592.64 207.493C589.347 204.983 588.911 203.958 587.045 200.237Z" fill="#5B758F"/>
<path d="M689.545 185.956C697.777 194.1 692.188 205.258 680.104 205.683C676.419 203.567 675.377 202.382 672.879 199.005L673.35 195.514C674.559 195.411 674.884 195.317 676.065 195.06L677.701 192.67C682.059 186.281 688.684 186.273 690.342 193.968L690.87 193.992C691.421 191.372 690.298 188.615 689.545 185.956Z" fill="#7D97AF"/>
<path d="M604.596 101.562L603.471 99.34L604.018 98.3133C630.042 90.6867 664.157 93.9831 688.325 106.78L685.515 113.8L681.425 123.871C683.676 125.32 690.808 129.521 692.307 131.023C690.258 134.312 689.432 136.73 687.666 139.827C685.016 143.899 682.076 143.712 677.001 144.891C666.098 139.448 655.578 134.34 643.089 135.66C639.787 136.008 634.314 136.297 631.447 137.441L624.511 136.295C624.402 129.928 625.735 127.391 619.407 125.907C616.388 124.744 606.572 105.267 604.596 101.562Z" fill="#7D97AF"/>
<path d="M623.994 125.679C627.535 121.436 657.965 123.851 664.669 126.653C667.239 127.728 675.819 134.528 678.077 133.573C679.004 132.391 679.069 131.86 679.424 130.428L681.422 123.872C683.674 125.321 690.805 129.521 692.304 131.024C690.255 134.313 689.43 136.731 687.663 139.827C685.013 143.899 682.074 143.712 676.999 144.891C666.095 139.449 655.575 134.34 643.086 135.66C639.785 136.008 634.311 136.298 631.444 137.441L624.509 136.296C624.4 129.928 625.732 127.392 619.404 125.907L623.994 125.679Z" fill="#648098"/>
<path d="M681.422 123.87C683.674 125.319 690.805 129.52 692.304 131.022C690.255 134.311 689.43 136.729 687.663 139.826C685.44 135.301 683.196 133.549 679.424 130.427L681.422 123.87Z" fill="#567189"/>
<path d="M604.596 101.562L603.471 99.34L604.018 98.3133C630.042 90.6867 664.157 93.9831 688.325 106.78L685.515 113.8C682.771 112.024 678.63 109.366 675.821 108.025C662.289 101.573 628.667 97.8956 615.074 102.788L614.531 103.212C611.587 103.592 607.612 102.303 604.596 101.562Z" fill="#9CB3C6"/>
<path d="M604.594 101.562C607.61 102.303 611.585 103.592 614.529 103.212L615.072 102.788C618.268 107.469 623.821 120.471 623.995 125.678L619.405 125.906C616.386 124.743 606.57 105.266 604.594 101.562Z" fill="#8CA6BA"/>
<path d="M671.599 199.914L672.88 199.006C675.378 202.383 676.421 203.567 680.106 205.683L679.867 212.907C679.845 219.882 679.469 231.948 680.649 238.448C682.111 243.728 684.088 246.348 686.709 251.034C683.096 256.445 684.139 259.032 682.097 262.635C669.065 252.473 666.857 235.349 668.565 219.956C668.102 216.627 667.993 216.515 665.857 213.858C667.074 210.298 671.121 207.605 672.735 201.593L671.599 199.914Z" fill="#567189"/>
<path d="M679.865 212.906L680.785 212.534C691.855 224.536 678.721 235.515 700.876 247.776C710.78 241.995 722.987 236.342 734.636 235.635C735.794 238.313 735.649 238.545 735.338 241.554C734.223 243.304 733.868 243.836 731.067 244.154C717.636 245.673 712.872 244.754 702.316 255.845C701.491 257.22 701.303 257.276 700.202 258.474C695.134 259.417 689.892 254.505 686.707 251.033C684.086 246.347 682.109 243.726 680.647 238.447C679.467 231.947 679.843 219.881 679.865 212.906Z" fill="#87A0B6"/>
<path d="M680.648 238.446C690.256 245.237 687.621 248.873 702.318 255.844C701.493 257.22 701.304 257.275 700.204 258.474C695.136 259.416 689.894 254.504 686.708 251.032C684.087 246.347 682.111 243.726 680.648 238.446Z" fill="#648098"/>
<path d="M685.811 183.248C701.356 176.763 706.88 215.788 680.787 212.534L679.867 212.905L680.106 205.682C692.19 205.257 697.779 194.099 689.547 185.955L685.811 183.248Z" fill="#567189"/>
<path d="M381.552 348.938C386.805 349.016 391.616 349.053 396.848 349.521C460.15 350.516 523.44 352.126 586.71 354.352C598.605 354.673 610.503 354.919 622.401 355.089C636.128 355.341 645.996 354.159 658.094 362.407C664.9 367.051 673.059 371.119 679.916 376.03L680.068 376.874C676.158 379.5 647.473 395.273 643.954 395.51C629.677 396.474 605.312 394.289 590.396 393.426C548.65 391.423 506.927 388.962 465.234 386.043L415.629 382.541C408.069 382.006 395.015 380.702 387.778 380.82L379.248 379.973C377.93 373.681 377.337 370.06 377.474 363.684C378.512 359.024 380.212 353.599 381.552 348.938Z" fill="#7D97AF"/>
<path d="M381.554 348.938C386.808 349.016 391.618 349.053 396.85 349.521C460.152 350.516 523.442 352.126 586.712 354.352C598.607 354.673 610.506 354.919 622.403 355.089C636.13 355.341 645.998 354.159 658.096 362.407C664.902 367.051 673.062 371.119 679.918 376.03C674.423 376.707 657.401 375.7 650.842 375.436L595.324 373.21C524.684 370.691 454.064 367.631 383.472 364.032L383.071 364.157L377.477 363.684C378.514 359.024 380.214 353.599 381.554 348.938Z" fill="#A6BED0"/>
<path d="M381.554 348.938C386.808 349.016 391.618 349.053 396.85 349.521C393.854 349.659 390.923 349.828 387.921 349.806C386.949 352.506 383.244 361.875 383.472 364.032L383.071 364.157L377.477 363.684C378.514 359.024 380.214 353.599 381.554 348.938Z" fill="#8CA6BA"/>
<path d="M377.474 363.685L383.069 364.157C383.545 368.588 383.717 378.627 387.778 380.82L379.248 379.973C377.93 373.682 377.337 370.06 377.474 363.685Z" fill="#6E89A1"/>
<path d="M691.821 384.339L692.747 385.178C693.877 397.757 694.094 411.295 695.209 424.179C696.005 433.355 698.076 449.144 698.032 457.735C695.006 460.514 690.192 459.206 686.181 458.983C657.662 457.396 646.614 461.101 647.135 491.56C641.213 492.008 635.276 492.354 629.339 492.598C629.368 482.813 630.128 472.948 622.729 465.297C615.256 457.577 604.096 459.436 594.411 459.459C587.339 459.475 580.294 459.636 573.247 459.724C567.414 459.756 560.842 460.181 554.959 460.428C551.813 453.929 539.868 412.029 541.098 405.899C541.814 402.332 578.909 406.39 582.818 406.692C594.42 407.592 634.501 411.878 644.398 409.839C656.279 407.393 681.446 391.664 691.821 384.339Z" fill="#4D677F"/>
<path d="M405.932 1111.82L406.156 1111.15C411.983 1093.2 428.327 1097.76 443.368 1097.27C451.343 1097.02 459.748 1097.39 467.764 1097.47C459.46 1102.35 455.715 1104.94 449.528 1112.15C467.381 1112.59 485.24 1112.73 503.097 1112.56C501.771 1124.59 502.673 1154.33 502.905 1167.72L444.686 1167.6C435.705 1167.58 414.008 1169.08 407.145 1164.76C404.65 1160.1 406.046 1120.52 405.932 1111.82Z" fill="#648098"/>
<path d="M405.932 1111.82L406.155 1111.15C411.982 1093.2 428.326 1097.76 443.367 1097.27C451.343 1097.02 459.747 1097.39 467.764 1097.47C459.459 1102.35 455.714 1104.94 449.527 1112.15C437.647 1112.84 417.671 1112.23 405.932 1111.82Z" fill="#7D97AF"/>
<path d="M687.057 274.396C688.773 275.346 690.496 276.277 692.233 277.188C692.139 280.536 691.878 283.336 691.56 286.648C691.415 289.252 691.198 298.143 690.865 300.125C689.851 307.808 691.097 314.887 690.597 322.546C690.785 338.027 691.292 353.502 692.117 368.963C681.236 360.84 660.247 345.975 647.338 342.621C643.059 341.509 626.805 341.22 621.324 341.057C604.486 340.971 587.511 339.933 570.638 339.636L560.814 339.551C567.06 333.337 572.697 327.364 576.434 319.253C581.352 308.579 582.872 300.137 589.609 290.283C591.299 292.914 594.551 297.521 595.189 300.337C596.956 303.054 597.479 304.06 599.768 306.269C600.512 305.458 601.396 302.785 601.961 301.565C605.827 300.896 611.427 304.07 615.036 303.997C640.554 303.473 667.82 289.561 687.057 274.396Z" fill="#4D677F"/>
<path d="M687.053 274.396C688.769 275.346 690.493 276.277 692.23 277.188C692.136 280.536 691.875 283.336 691.557 286.648C691.412 289.252 691.195 298.143 690.862 300.125C688.654 301.767 682.673 306.357 680.414 307.125C677.533 309.01 670.517 313.4 667.339 314.497C665.239 312.285 662.437 309.915 660.128 307.843C647.943 312.835 638.241 315.581 624.912 316.427C614.153 316.014 607.697 313.451 599.508 306.712L599.765 306.269C600.508 305.458 601.392 302.785 601.958 301.565C605.824 300.896 611.424 304.07 615.033 303.997C640.551 303.473 667.817 289.561 687.053 274.396Z" fill="#567189"/>
<path d="M676.602 298.935C679.44 302.234 679.969 302.667 680.417 307.125C677.536 309.01 670.52 313.399 667.342 314.496C665.242 312.284 662.44 309.915 660.131 307.842C666.365 304.871 670.651 302.479 676.602 298.935Z" fill="#6E89A1"/>
<path d="M691.561 286.648C691.417 289.253 691.199 298.143 690.866 300.125C688.658 301.768 682.678 306.357 680.419 307.125C679.97 302.668 679.442 302.235 676.604 298.935C682.135 294.747 686.349 291.239 691.561 286.648Z" fill="#648098"/>
<path d="M689.619 312.53C689.59 316.756 689.446 318.364 690.597 322.547C690.785 338.027 691.292 353.503 692.117 368.963C681.235 360.84 660.247 345.976 647.338 342.621C643.059 341.51 626.805 341.22 621.324 341.057C621.817 338.639 622.454 336.144 623.033 333.732C647.569 333.193 668.949 325.607 689.619 312.53Z" fill="#567189"/>
<path d="M585.314 314.97C594.949 326.804 608.109 332.364 623.031 333.732C622.452 336.144 621.815 338.64 621.323 341.058C604.485 340.972 587.509 339.934 570.637 339.636C574.539 334.688 581.834 321.127 585.314 314.97Z" fill="#648098"/>
<path d="M660.131 307.843C662.441 309.916 665.243 312.285 667.342 314.497C651.154 321.892 641.155 325.428 623.084 325.86C623.641 323.292 625.097 320.016 626.074 317.473L624.916 316.427C638.245 315.581 647.946 312.835 660.131 307.843Z" fill="#7D97AF"/>
<path d="M599.51 306.712C607.699 313.451 614.155 316.014 624.915 316.427L626.073 317.473C625.096 320.016 623.64 323.292 623.083 325.86C611.002 324.984 605.18 323.008 595.973 315.183C597.287 311.994 597.442 309.486 599.51 306.712Z" fill="#A6BED0"/>
<path d="M595.972 315.183C593.032 312.132 589.996 309.19 590.653 304.797C592.184 302.19 592.596 302.093 595.187 300.337C596.954 303.054 597.478 304.06 599.766 306.269L599.509 306.712C597.441 309.485 597.286 311.994 595.972 315.183Z" fill="#8CA6BA"/>
<path d="M324.403 330.11C340.949 316.095 354.54 321.66 371.937 327.136C374.789 329.743 374.804 329.994 376.373 333.451L376.783 334.332C376.861 334.51 376.94 334.689 377.019 334.867C364.043 349.176 362.919 372.495 369.272 389.992C370.484 393.331 374.033 400.259 367.971 401.057C360.684 402.016 356.08 397.235 353.612 391.819C350.396 392.376 343.356 393.764 340.649 393.292C334.754 392.264 330.115 387.643 323.935 390.107C321.97 390.89 317.975 390.182 316.244 388.765C308.074 382.072 310.239 369.211 308.549 360.507L309.235 359.132C311.1 350.348 315.328 340.056 321.336 333.26L324.403 330.11Z" fill="#8CA6BA"/>
<path d="M371.937 327.136C374.789 329.743 374.804 329.994 376.373 333.451L376.783 334.332C376.861 334.51 376.94 334.689 377.019 334.867C364.043 349.176 362.919 372.495 369.272 389.992C370.484 393.331 374.033 400.259 367.971 401.057C360.684 402.016 356.08 397.234 353.612 391.819C350.396 392.376 343.356 393.764 340.649 393.292C334.754 392.263 330.115 387.643 323.935 390.107C321.97 390.89 317.975 390.182 316.244 388.765C308.074 382.072 310.239 369.211 308.549 360.507C318.374 363.095 346.55 363.555 357.316 363.617C361.237 363.639 364.129 348.112 365.306 345.085C367.346 339.837 368.593 338.32 366.31 332.564L371.937 327.136Z" fill="#6E89A1"/>
<path d="M324.404 330.11C340.951 316.095 354.542 321.66 371.939 327.136L366.311 332.564C356.139 327.066 346.526 327.354 335.888 330.859C330.751 332.551 329.162 332.759 324.404 330.11Z" fill="#A6BED0"/>
<path d="M321.337 333.26L325.949 337.463C322.814 342.615 315.782 357.147 312.163 359.819C310.02 360.02 310.956 360.277 309.236 359.131C311.101 350.348 315.329 340.055 321.337 333.26Z" fill="#A6BED0"/>
<path d="M564.375 272.757C569.067 272.931 579.537 273.735 582.555 277.475C582.215 280.387 577.174 285.123 574.727 289.717C569.677 299.203 567.533 309.034 561.461 317.762L560.327 319.422C552.805 342.435 516.885 331.61 516.365 316.976C515.042 312.07 505.825 305.084 510.182 301.275C513.356 300.903 513.505 300.931 516.658 301.642L518.534 300.275C521.9 294.374 524.36 291.711 529.039 286.94C535.834 280.395 541.472 277.889 550.121 274.742C555.769 273.623 558.662 273.133 564.375 272.757Z" fill="#7690A7"/>
<path d="M550.119 274.742C555.767 273.623 558.66 273.133 564.373 272.757L566.711 280.987L566.02 281.81C560.531 288.413 558.347 296.383 551.084 301.036C540.936 307.538 527.798 309.323 518.531 300.275C521.897 294.374 524.358 291.711 529.037 286.94C535.831 280.395 541.47 277.889 550.119 274.742Z" fill="#8CA6BA"/>
<path d="M529.037 286.94C535.832 280.395 541.47 277.889 550.119 274.742C551.461 278.525 555.554 282.816 553.086 285.714C541.964 298.772 537.821 295.55 529.037 286.94Z" fill="#A6BED0"/>
<path d="M516.363 316.976L521.588 321.17C523.389 323.603 530.845 326.828 534.043 327.221C544.592 328.518 552.195 325.168 560.325 319.421C552.804 342.434 516.884 331.61 516.363 316.976Z" fill="#567189"/>
<path d="M516.365 316.975C515.042 312.07 505.825 305.084 510.182 301.275C513.356 300.903 513.505 300.93 516.658 301.641C518.374 306.535 524.013 313.203 527.33 317.279C524.056 317.878 522.953 317.442 521.16 319.352L521.59 321.17L516.365 316.975Z" fill="#8CA6BA"/>
<path d="M388.988 334.648C390.615 334.211 392.577 333.662 394.242 333.437C429.02 328.747 463.832 324.183 498.623 319.6C500.923 319.298 501.032 319.333 502.757 320.526C507.206 327.569 512.307 331.613 517.017 337.986C507.547 337.099 490.646 338.334 483.255 336.694C475.142 336.682 461.515 336.895 453.789 335.969C432.186 335.711 410.585 335.271 388.988 334.648Z" fill="#849DB3"/>
<path d="M502.756 320.526C507.205 327.57 512.306 331.614 517.016 337.986C507.546 337.1 490.645 338.335 483.254 336.695C488.307 336.276 499.388 336.816 505.558 336.657L503.024 330.046C501.663 326.83 499.935 324.226 500.333 321.148L502.756 320.526Z" fill="#567189"/>
<path d="M503.025 330.047L505.558 336.658C499.389 336.817 488.307 336.277 483.255 336.695C475.141 336.684 461.514 336.896 453.789 335.97C459.396 335.541 465.776 336.008 471.387 335.515C481.901 334.589 492.851 332.773 503.025 330.047Z" fill="#648098"/>
<path d="M253.685 362.952C249.619 344.865 267.841 336.642 276.741 352.766C281.068 351.978 290.834 352.074 295.195 352.849C295.696 354.906 295.243 356.22 294.842 358.298C294.691 362.201 295.37 362.281 293.425 364.655C288.189 366.488 282.427 364.214 275.812 363.836C268.338 371.623 260.066 372.497 253.685 362.952Z" fill="#A6BED0"/>
<path d="M276.74 352.767C281.068 351.978 290.833 352.074 295.194 352.849C295.695 354.906 295.242 356.22 294.841 358.299C294.69 362.201 295.369 362.281 293.424 364.655C288.188 366.489 282.426 364.214 275.811 363.837C277.568 359.36 274.803 358.743 280.592 357.432L279.572 354.086C279.173 353.533 277.592 353.105 276.74 352.767Z" fill="#6E89A1"/>
<path d="M276.74 352.767C281.068 351.978 290.833 352.074 295.194 352.849C295.695 354.906 295.242 356.22 294.841 358.299C290.2 357.904 285.265 357.701 280.592 357.432L279.572 354.086C279.173 353.533 277.592 353.105 276.74 352.767Z" fill="#A6BED0"/>
<path d="M264.272 361.472C274.2 351.956 273.27 360.52 279.572 354.087L280.592 357.433C274.803 358.744 277.568 359.361 275.811 363.837C268.337 371.624 260.065 372.498 253.684 362.953C257.211 361.645 260.494 361.708 264.272 361.472Z" fill="#7D97AF"/>
</svg>
