M48
; DRILL file {KiCad 9.0.6} date 2026-05-04T10:30:09-0700
; FORMAT={-:-/ absolute / metric / decimal}
; #@! TF.CreationDate,2026-05-04T10:30:09-07:00
; #@! TF.GenerationSoftware,Kicad,Pcbnew,9.0.6
; #@! TF.FileFunction,Plated,1,2,PTH
FMAT,2
METRIC
; #@! TA.AperFunction,Plated,PTH,ComponentDrill
T1C0.800
; #@! TA.AperFunction,Plated,PTH,ViaDrill
T2C0.889
; #@! TA.AperFunction,Plated,PTH,ComponentDrill
T3C1.000
%
G90
G05
T1
X189.92Y-73.5
X192.46Y-73.5
X195.0Y-73.5
T2
X111.0Y-104.0
X115.0Y-108.0
X181.5Y-80.5
X183.0Y-75.0
X193.0Y-107.5
T3
X101.0Y-86.38
X101.0Y-88.92
X101.0Y-91.46
X101.0Y-94.0
X111.3Y-80.5
X111.3Y-83.04
X111.3Y-85.58
X111.3Y-88.12
X111.3Y-90.66
X111.3Y-93.2
X111.3Y-95.74
X111.3Y-98.28
X118.92Y-98.28
X121.46Y-98.28
X124.0Y-80.5
X124.0Y-83.04
X124.0Y-85.58
X124.0Y-88.12
X124.0Y-90.66
X124.0Y-93.2
X124.0Y-95.74
X124.0Y-98.28
X135.5Y-53.24
X135.5Y-55.78
X135.5Y-58.32
X135.5Y-60.86
X135.5Y-63.4
X135.5Y-65.94
X135.5Y-68.48
X135.5Y-71.02
X135.5Y-73.56
X135.5Y-76.1
X135.5Y-78.64
X135.5Y-81.18
X135.5Y-83.72
X135.5Y-86.26
X135.5Y-88.8
X135.5Y-91.34
X135.5Y-93.88
X135.5Y-96.42
X135.5Y-98.96
X135.5Y-101.5
X147.5Y-52.92
X147.5Y-55.46
X147.5Y-58.0
X147.5Y-60.54
X147.5Y-63.08
X147.5Y-65.62
X147.5Y-68.16
X147.5Y-70.7
X147.5Y-73.24
X147.5Y-75.78
X147.5Y-78.32
X147.5Y-80.86
X147.5Y-83.4
X147.5Y-85.94
X147.5Y-88.48
X147.5Y-91.02
X147.5Y-93.56
X147.5Y-96.1
X147.5Y-98.64
X147.5Y-101.18
X165.28Y-52.92
X165.28Y-55.46
X165.28Y-58.0
X165.28Y-60.54
X165.28Y-63.08
X165.28Y-65.62
X165.28Y-68.16
X165.28Y-70.7
X165.28Y-73.24
X165.28Y-75.78
X165.28Y-78.32
X165.28Y-80.86
X165.28Y-83.4
X165.28Y-85.94
X165.28Y-88.48
X165.28Y-91.02
X165.28Y-93.56
X165.28Y-96.1
X165.28Y-98.64
X165.28Y-101.18
X175.0Y-53.24
X175.0Y-55.78
X175.0Y-58.32
X175.0Y-60.86
X175.0Y-63.4
X175.0Y-65.94
X175.0Y-68.48
X175.0Y-71.02
X175.0Y-73.56
X175.0Y-76.1
X175.0Y-78.64
X175.0Y-81.18
X175.0Y-83.72
X175.0Y-86.26
X175.0Y-88.8
X175.0Y-91.34
X175.0Y-93.88
X175.0Y-96.42
X175.0Y-98.96
X175.0Y-101.5
X189.42Y-84.34
X189.42Y-86.88
X189.42Y-89.42
X189.42Y-91.96
X189.42Y-94.5
X189.42Y-97.04
X189.42Y-99.58
X189.42Y-102.12
X191.96Y-84.34
X194.5Y-84.34
X202.12Y-84.34
X202.12Y-86.88
X202.12Y-89.42
X202.12Y-91.96
X202.12Y-94.5
X202.12Y-97.04
X202.12Y-99.58
X202.12Y-102.12
X207.0Y-60.42
X207.0Y-62.96
X207.0Y-65.5
X210.5Y-91.19
X210.5Y-93.73
X210.5Y-96.27
X210.5Y-98.81
T3
G00X186.8Y-62.0
M15
G01X186.8Y-64.0
M16
G05
G00X192.5Y-60.0
M15
G01X190.5Y-60.0
M16
G05
G00X192.5Y-66.0
M15
G01X190.5Y-66.0
M16
G05
M30
